<svg width="84" height="85" viewBox="0 0 84 85" fill="none" xmlns="http://www.w3.org/2000/svg">
<path d="M12.3426 35.9732C12.6853 35.8308 13.0763 35.8767 13.3821 36.0969L17.5796 38.9832C18.3435 39.5176 19.3808 38.9126 19.3233 37.9764L19.0306 32.8185C19.0067 32.4357 19.1642 32.0813 19.4624 31.8471L23.4596 28.6689C24.1974 28.0917 23.9499 26.9018 23.0519 26.6693L18.1543 25.3584C17.7866 25.2599 17.5077 24.9968 17.3773 24.6439L15.6466 19.7874C15.3282 18.8969 14.1459 18.7627 13.6472 19.5529L10.9063 23.9041C10.7124 24.2181 10.3686 24.4154 9.99874 24.4266L4.93226 24.5961C4.00299 24.626 3.51293 25.7288 4.10383 26.4602L7.32092 30.4523C7.55658 30.743 7.63788 31.1364 7.5342 31.492L6.13302 36.4615C5.87911 37.3647 6.74869 38.1852 7.62486 37.8381L12.3426 35.9732Z" fill="#2AAD52"/>
<path d="M70.932 32.8494C71.2876 32.7129 71.5997 32.4298 71.7689 32.0491C71.8514 31.8666 71.8974 31.6692 71.9044 31.4683C71.9114 31.2675 71.8793 31.0673 71.8098 30.8792C71.7403 30.6912 71.6348 30.519 71.4996 30.3728C71.3643 30.2266 71.2019 30.1092 71.0217 30.0274C61.1536 25.4735 56.7587 13.5817 61.2276 3.52581C61.5718 2.75127 61.237 1.84532 60.4804 1.5041C59.7239 1.16288 58.8313 1.49453 58.4964 2.26547C53.345 13.8573 58.4095 27.5611 69.7885 32.82C70.1585 32.9829 70.5764 32.9859 70.932 32.8494ZM24.8557 84.2873C25.2113 84.1508 25.5234 83.8677 25.6926 83.487C30.1614 73.4312 41.8313 68.9527 51.6995 73.5066C52.4596 73.8573 53.3486 73.5161 53.6835 72.7452C54.0183 71.9742 53.6928 71.0647 52.9363 70.7235C41.5609 65.474 28.1129 70.6349 22.9521 82.2303C22.6079 83.0048 22.9427 83.9108 23.6993 84.252C24.0822 84.4208 24.5001 84.4238 24.8557 84.2873Z" fill="#FED056"/>
<path d="M52.3918 36.5779C52.6913 36.463 52.9461 36.2563 53.1377 35.965C53.5791 35.2512 53.3695 34.3081 52.669 33.8582C43.6336 28.0592 39.6469 21.0305 40.4976 12.3741C40.583 11.5355 39.9757 10.7885 39.1528 10.7015C38.3299 10.6144 37.5969 11.2332 37.5114 12.0718C36.5546 21.8579 41.1235 30.057 51.0737 36.4522C51.4791 36.7104 51.9707 36.7396 52.3918 36.5779ZM43.3666 56.8866C43.7877 56.725 44.1348 56.3631 44.2816 55.893C44.517 55.084 44.064 54.2343 43.2701 53.9945C31.9955 50.5793 22.938 52.4981 16.3421 59.6898C15.78 60.3084 15.807 61.278 16.4141 61.8508C17.0212 62.4236 17.9692 62.3865 18.5348 61.7774C24.3582 55.4157 32.1721 53.8326 42.4092 56.9273C42.7418 57.0175 43.0765 56.9979 43.3666 56.8866Z" fill="#E2017B"/>
<path d="M44.6408 45.2693C44.9964 45.1329 45.3085 44.8497 45.4777 44.469C45.5601 44.2865 45.6062 44.0891 45.6132 43.8883C45.6202 43.6874 45.5881 43.4872 45.5186 43.2991C45.4491 43.1111 45.3436 42.939 45.2083 42.7927C45.0731 42.6465 44.9107 42.5291 44.7305 42.4473L34.4115 37.6854C33.6514 37.3346 32.7623 37.6758 32.4275 38.4468C32.0927 39.2177 32.4181 40.1273 33.1747 40.4685L43.4937 45.2304C43.8673 45.4028 44.2758 45.4094 44.6408 45.2693Z" fill="#FED056"/>
</svg>
