<svg width="50" height="50" viewBox="0 0 50 50" fill="none" xmlns="http://www.w3.org/2000/svg">
<path d="M16.5666 48.1041C19.3242 47.3283 20.9426 44.4213 20.1813 41.6112C19.42 38.8011 16.5673 37.1519 13.8096 37.9277C11.0519 38.7035 9.43357 41.6105 10.1949 44.4206C10.9562 47.2307 13.8089 48.8799 16.5666 48.1041Z" fill="#2AAD52"/>
<path d="M27.0725 19.7561C25.8869 20.0896 24.621 20.0123 23.5693 19.9593C21.5552 19.8388 20.6124 19.882 20.0302 20.7963C19.579 21.5047 18.6472 21.7034 17.9547 21.2534C17.2596 20.7935 17.055 19.8468 17.5063 19.1384C19.101 16.6389 21.7783 16.7949 23.7389 16.9093C25.753 17.0299 26.6957 16.9866 27.2779 16.0723C27.9256 15.0549 27.4896 13.8668 26.727 12.0093C25.9079 10.0197 24.8829 7.53835 26.4235 5.10695C28.0183 2.60746 30.6956 2.76343 32.6562 2.87788C34.6703 2.99841 35.613 2.95521 36.1952 2.04085C36.6465 1.33247 37.5782 1.13378 38.2707 1.58383C38.9658 2.04369 39.1608 2.99313 38.7192 3.6988C37.134 6.19558 34.4471 6.04232 32.4962 5.92516C30.4821 5.80463 29.5394 5.84783 28.9572 6.76219C28.3095 7.77954 28.7455 8.96773 29.5081 10.8252C30.3272 12.8148 31.3521 15.2961 29.8115 17.7275C29.0555 18.8811 28.0943 19.4686 27.0725 19.7561Z" fill="#E2017B"/>
</svg>
