<svg width="35" height="41" viewBox="0 0 35 41" fill="none" xmlns="http://www.w3.org/2000/svg">
<path id="Union" fill-rule="evenodd" clip-rule="evenodd" d="M16.8376 2.49412C16.9352 2.39649 17.0935 2.39649 17.1912 2.49412L19.8467 5.14962C20.3417 5.64463 21.0841 5.79701 21.734 5.53702L28.1359 2.97627C28.3528 2.8895 28.5596 3.12121 28.4489 3.32691L23.2669 12.9505H18.4675C18.456 12.9502 18.4445 12.9502 18.4329 12.9505H15.115C15.1045 12.9503 15.094 12.9503 15.0836 12.9505H10.7618L5.5799 3.32691C5.46914 3.12121 5.67595 2.8895 5.89287 2.97627L12.2947 5.53702C12.9447 5.79701 13.6871 5.64463 14.1821 5.14962L16.8376 2.49412ZM14.153 14.4505H10.6832L3.4099 23.9058C2.16609 25.5227 1.4917 27.5055 1.4917 29.5455C1.4917 34.6541 5.633 38.7954 10.7416 38.7954H23.2872C28.3958 38.7954 32.5371 34.6541 32.5371 29.5455C32.5371 27.5055 31.8627 25.5227 30.6189 23.9058L23.3456 14.4505H19.5073L22.5084 23.0249C22.6452 23.4159 22.4392 23.8437 22.0482 23.9806C21.6573 24.1174 21.2294 23.9114 21.0926 23.5204L17.9181 14.4505H15.694L12.0011 30.145C11.9063 30.5482 11.5025 30.7981 11.0993 30.7033C10.6961 30.6084 10.4461 30.2046 10.541 29.8014L14.153 14.4505ZM4.2592 4.03806L9.42318 13.6283L2.22096 22.9912C0.775448 24.8704 -0.00830078 27.1747 -0.00830078 29.5455C-0.00830078 35.4825 4.80458 40.2954 10.7416 40.2954H23.2872C29.2242 40.2954 34.0371 35.4825 34.0371 29.5455C34.0371 27.1747 33.2533 24.8704 31.8078 22.9912L24.6056 13.6283L29.7696 4.03806C30.5449 2.59816 29.0972 0.976194 27.5788 1.58355L21.1769 4.1443C21.0841 4.18144 20.978 4.15967 20.9073 4.08896L18.2518 1.43346C17.5684 0.750044 16.4604 0.750044 15.7769 1.43346L13.1214 4.08896C13.0507 4.15967 12.9447 4.18144 12.8518 4.1443L6.44996 1.58355C4.93156 0.976194 3.48387 2.59816 4.2592 4.03806Z" fill="white"/>
</svg>
