<svg xmlns="http://www.w3.org/2000/svg" version="1.1" xmlns:xlink="http://www.w3.org/1999/xlink" xmlns:svgjs="http://svgjs.dev/svgjs" width="3000" height="3000"><svg fill="none" xmlns="http://www.w3.org/2000/svg" viewBox="0 0 3000 3000"><g clip-path="url(#a)"><path fill-rule="evenodd" clip-rule="evenodd" d="M1245.4 434.9c38.6 79.3 7.7 192.5-63.4 276-58 68-74-101.5-53.4-188 17.9-74.6-59.8-282.5-81.5-338.5 13.8 26.1 49 65.5 86.5 107.5 44.7 50 92.6 103.5 111.8 143Zm-203.9-264.5 5.6 14c-2.8-5.2-4.7-10-5.5-14Zm174.2 428.5s-12.9-14-22-10.1c-9.1 3.8-17.8 17.1-11 23.8 5.1 5 13.3 4.5 18.4-1.2 1.1-1.2 1.5-2.6 1.8-4 .4-1.3.7-2.7 1.8-4 3.2-3.5 11-4.5 11-4.5Z" fill="url(#b)" fill-opacity=".3"></path><mask id="SvgjsMask1124" fill="#fff"><path d="M1177.8 715c77.4-90.7 111-213.8 69-300.2-42-86.3-189.3-231.6-221.8-287.8 0 0 117.3 289.4 94.8 383.5-22.5 94.2-5 278.7 58 204.6Z"></path></mask><path d="m1177.8 715-34.2-29.1 34.2 29.2ZM1025 127l39-22.5-80.7 39.4L1025 127Zm187 617.3c83.5-97.8 128.3-240.2 75.3-349.1l-81 39.3c31 63.7 8.7 167.7-62.7 251.4l68.5 58.4Zm75.3-349.1c-24-49.4-75.6-111.9-120.7-164.8-23.5-27.6-45.7-53-64.5-75.6a444.5 444.5 0 0 1-38.1-50.3l-78 45a513 513 0 0 0 47 62.8c19.1 23.1 42.6 50 65.1 76.5 47.2 55.4 90.3 108.7 108.3 145.7l81-39.3ZM1025 127l-41.7 17 .3.6a716 716 0 0 1 4.5 11.4 2260.2 2260.2 0 0 1 49.8 141c13 41.3 25 84.5 32.4 122.5 7.8 40 8.9 67.3 5.7 80.6l87.6 20.9c8-33.8 3-78-5-118.7-8.3-42.7-21.3-89.5-34.8-132.4a2376.6 2376.6 0 0 0-55.7-156.3l-1-2.5-.3-.7v-.2L1025 127Zm51 373.1a489 489 0 0 0-3.5 184.4c2.8 14 6.5 28 11.8 40.6a95 95 0 0 0 26.1 37.3 63 63 0 0 0 58.4 12.3 92 92 0 0 0 43.3-30.5l-68.5-58.3c-5.5 6.4-5.6 4 .2 2.3a27 27 0 0 1 23.7 4.7c3.1 2.5 2.3 3.3-.2-2.5-2.1-5.1-4.4-12.8-6.4-23-8.2-42.6-7-105.7 2.7-146.4L1076 500Z" fill="url(#c)" mask="url(#d)"></path><path fill-rule="evenodd" clip-rule="evenodd" d="M2075 1295.2s-199.3-105.1-158.3-257c9.5-35 20.2-63.1 29.7-88 31.7-83.4 50.3-132.2-33.8-289.3l.7 1.1c16 25.8 294.2 476.4 161.6 633.2Zm-129.2-285.6c-4-2.8-3.5-7.6-2-12.3 2.8-9.2 16.6-9.6 24.5-4 7.9 5.7 11.9 18.9 4 24.6-4 2.8-8.3 4.8-12.3 2-2-1.5-1.5-3.8-1-6.2.5-2.3 1-4.7-1-6.1-2-1.4-4-.2-6.1 1-2 1.2-4.2 2.4-6.1 1Zm40.2 69c1.5-4.7 2-9.5-2-12.3-1.9-1.5-4-.3-6 1-2.1 1.2-4.2 2.4-6.2 1-2-1.5-1.5-3.9-1-6.2.5-2.4 1-4.7-1-6.2-3.8-2.8-8.3-.8-12.2 2-7.9 5.6-4 18.8 3.9 24.5 7.8 5.8 21.6 5.4 24.5-3.8Z" fill="url(#e)" fill-opacity=".4"></path><mask id="SvgjsMask1123" fill="#fff"><path d="M2075 1295.2s-213.3-121.9-172.3-273.7c41-152 119.6-186.5 10-360.6-.3 0 298.8 472.8 162.2 634.3Z"></path></mask><path d="m2075 1295.2-22.4 39 32.5 18.7 24.2-28.6-34.4-29ZM1912.5 661l38.1-24-18-28.5-32.4 9.2 12.3 43.3Zm162.3 634.3a8209.3 8209.3 0 0 1 22.4-39l-.2-.2-1.4-.8a454.4 454.4 0 0 1-90-71.3c-45.6-46.8-73.5-99-59.6-150.7l-86.8-23.5c-27.1 100.2 31 184.8 82 237a559.5 559.5 0 0 0 108.1 85.7l2.2 1.3.7.4.2.1h.1l22.3-39Zm-128.8-262c9.5-34.9 21-63.2 32.4-90.3 11-26.2 23-54.2 29.6-83.6 14.6-65 1.1-129.5-57.4-222.4l-76.2 48c51.2 81.2 53.3 121 45.8 154.8-4.5 20-13 40-24.8 68.5a780 780 0 0 0-36.2 101.5l86.8 23.5Zm-45.8-415.6a83.9 83.9 0 0 0-27.5 64.1l.8 1.6.5.9a22.2 22.2 0 0 1 1 1.7 532.4 532.4 0 0 1 11.4 18.6 1934.2 1934.2 0 0 1 116.9 230.3c28.1 67.6 51 137.7 59.1 199 8.3 63-.2 106.7-22 132.4l68.8 58c46.5-55 51.8-131 42.5-202.1-9.6-72.7-35.9-151.1-65.4-222a2032.4 2032.4 0 0 0-132.2-257.5l-2.5-4-.5-1c-.1 0 0 0 0 .1l.4.7.9 1.6a84 84 0 0 1-27.6 64.1l-24.6-86.5Z" fill="#EE2445" mask="url(#f)"></path><path fill-rule="evenodd" clip-rule="evenodd" d="M960.5 1222.3c24 84.2-59.1 261.5-132.6 236.6-155.1-52.8-97.6-590.7-94.8-616.5v-1c21.3 142 98.7 223.7 157.9 286.2 33.3 35.2 60.9 64.3 69.5 94.7ZM868.6 1355c5.8-2.7 11-6.4 10.4-12.8-.4-3.2-3.4-4.2-6.4-5.2-3-1-6-2-6.4-5.2-.3-3.1 2.5-4.7 5.2-6.3 2.8-1.6 5.5-3.2 5.2-6.4-.7-6.4-6.5-9-12.7-10.3-12.5-2.8-22 12.7-20.8 25.4 1.3 12.8 13.8 26 25.5 20.8Z" fill="url(#g)" fill-opacity=".3"></path><mask id="SvgjsMask1122" fill="#fff"><path d="M827.9 1458.9c73.5 24.9 156.5-152.4 132.6-236.6-24-84.4-194.2-159-227.3-380.9.1-.2-64.3 563.4 94.6 617.5Z"></path></mask><path d="m827.9 1458.9-14.5 42.6 14.5-42.6Zm132.6-236.6-43.3 12.3 43.3-12.3ZM733.2 841.4l-39.3-21.9-7.5 13.4 2.3 15.2 44.5-6.7Zm80.2 660c38.9 13.3 73.9-2.7 98-22.2 24.1-19.7 44-47.8 59.2-76.9a363.5 363.5 0 0 0 33.8-95.3c6.2-31.7 8-66.4-.6-97l-86.6 24.6c3.3 11.5 3.7 30.5-1.1 55-4.7 23.7-13.7 48.9-25.3 71.1a158.4 158.4 0 0 1-36.2 48.6 34.1 34.1 0 0 1-12.1 7h-.2l-28.9 85.2Zm190.4-291.4c-9-31.7-30.4-58.8-50.6-81.5-10.5-11.9-22.3-24.1-33.7-36.3a1272 1272 0 0 1-35.3-38.4c-46.6-53.3-91.7-119.7-106.5-219l-89 13.3c18.3 122.5 74.8 204.3 127.7 264.9 13 15 26 28.7 37.7 41.1 12 12.7 22.5 23.7 31.8 34.2 19.5 21.9 28.4 35.8 31.3 46.3l86.6-24.6ZM772.5 863.3c-50.6 21.7-84.3-23.3-84.2-24.7V837l.1-.1a1237.7 1237.7 0 0 0-2.4 24.5 2486 2486 0 0 0-10 269.4c1.9 75.1 8.9 154.8 26.6 220.4 8.8 32.8 21 64.1 37.9 90.1 17 26.2 40.7 49.1 72.9 60l29-85.1c-7.6-2.6-16.8-9.1-26.6-24.1a228.9 228.9 0 0 1-26.3-64.4c-15-55.3-21.7-126.6-23.6-199.2a2395.1 2395.1 0 0 1 11.8-280.8l.2-1.2v-.5a70.1 70.1 0 0 0 .2-1.8c0-1.5-33.6-46.4-84.2-24.8l78.6 43.8Z" fill="url(#h)" mask="url(#i)"></path><path d="m1418.5 196.5 11.2-27.9-64.9-26.1 25.8 65 27.9-11ZM873 1919l-25-16.8 25 16.8Zm1438.6 647.3 22.5 19.8-22.5-19.8ZM1832 801.7l-30 1.6 30-1.6Zm-413.5-605.2-27.9 11 .1.3.3.7a403.7 403.7 0 0 1 5.7 14.8 3018.3 3018.3 0 0 1 61.8 177.8c15.7 51 30 103.4 37.7 147.5 3.9 22 6 41.2 6.1 56.5.1 16.2-2 24.6-3.7 27.8l53.2 27.7c8.5-16.4 10.7-36.8 10.5-56-.1-19.9-2.8-42.6-7-66.5a1338.4 1338.4 0 0 0-39.5-154.7 2952.6 2952.6 0 0 0-67.7-193.6l-1.3-3.2-.3-.9v-.2h-.1l-27.9 11Zm80 436.4a181.7 181.7 0 0 1-23.1 30.6c-12.1 13.8-27.5 29.7-45.5 47.6-36.8 36.7-79.7 77-125.7 122.3a1813 1813 0 0 0-127 135.5c-35.8 43.7-66 88.9-76.6 129.7l58 15c7-27.2 29.9-63.7 65-106.7 34.6-42 78.2-87 122.7-130.8 43.4-42.7 90.2-86.9 126-122.5 18.2-18.2 34.8-35.2 48.1-50.4 13-14.8 24.5-29.4 31.4-42.6l-53.2-27.7Zm-398 465.7c-9.8 38.5-9.4 80-9.3 123.1.2 44.2.2 93.6-8.7 153.7-17.6 119.6-71 284.6-234.4 526.8l49.7 33.6c167.3-248 224.8-421.3 244-551.6a1032 1032 0 0 0 9.5-162.7c-.2-45.4-.2-78.4 7.4-108l-58.1-14.9Zm-252.4 803.6c-37 55-42.5 136.5-32.6 222 10.1 87.2 37 185.5 72.4 279.8a1534.4 1534.4 0 0 0 125.3 260.1c22.8 37 46.3 70 69.3 96.7 22.8 26.5 46.6 48.4 70.3 61.7l29.3-52.4c-15-8.3-33.4-24.3-54.1-48.4-20.5-23.8-42-54-63.7-89.1-43.3-70.2-86-158.3-120.2-249.6-34.3-91.4-59.6-184.8-69-265.7-9.5-82.5-1.7-145.3 22.7-181.5l-49.7-33.6Zm304.7 920.3c51.2 28.6 135.5 44.4 232.8 49.4 98.6 5.2 214.9-.6 333-18.3 118.2-17.8 239-47.7 346.6-91.3 107.2-43.5 203-101.3 269-176.2l-45.1-39.6c-57.5 65.2-144 118.7-246.5 160.2-102.1 41.4-218.2 70.3-332.9 87.5a1643.5 1643.5 0 0 1-321 17.8c-95.5-5-168.2-20.4-206.6-41.9l-29.3 52.4Zm1181.3-236.4c103-117 143.6-281.5 154-428 10.2-146.2-9.2-281.2-32.6-343.5l-56.2 21c19.4 51.8 38.8 177.5 28.9 318.3-10 140.8-48.7 289.8-139.1 392.6l45 39.6Zm121.4-771.5c-7.1-18.9-22-41-40-64.1a1211.5 1211.5 0 0 0-70-80 4271.5 4271.5 0 0 0-198.6-194 10851 10851 0 0 0-373.2-328.6l-38.5 46c68.7 57.4 225.8 192 371 326.5 72.6 67.3 141.9 134.2 195.5 191.1 26.9 28.5 49.5 54.2 66.5 76 17.6 22.4 27.5 38.5 31.1 48.2l56.2-21.1Zm-681.8-666.7c-28.1-23.5-35.4-45.6-34.5-67 1-24 12.3-51.2 30.5-82.6 8.9-15.4 18.8-30.8 29.2-46.8 10.1-15.7 20.7-32 30-48 18-31 35-67 33-103.4l-59.9 3.3c1 17.2-7.4 39.6-25 70-8.4 14.5-18.2 29.5-28.5 45.5-10.2 15.8-21 32.5-30.8 49.3-19.1 33.1-36.9 71-38.5 110.3-1.7 41.9 15.1 81.3 56 115.4l38.5-46ZM1862 800c-1.7-31.8-15.5-81-36.8-136-21.6-56-52.3-121.1-90-185.7-74.7-127.4-181-259.6-305.5-309.8l-22.4 55.7c105 42.3 202.7 159.2 276 284.4a1256 1256 0 0 1 86 177c20.9 54 31.6 95.8 32.8 117.6l59.9-3.2Z" fill="#EE2445"></path><path fill-rule="evenodd" clip-rule="evenodd" d="M1418.5 196.5s147.5 372 106.7 450.2c-15.6 29.9-71.8 84-137.2 147-106.1 102.4-236.7 228.2-258.4 312.4-8.6 33.5-8.5 70.1-8.4 113.6.5 132.8 1 329.8-248.2 699.3-122.9 182.1 139.4 790.8 294.5 877.3 179.2 100 897.3 50.2 1144.1-230 193.5-219.8 158.6-627.2 115.8-741.2s-535-539-673-654.2c-86.5-72.2-31.6-157 19.8-236.5 30.6-47.3 60-92.8 57.8-132.7-5.7-107.2-183.8-512.7-413.5-605.2ZM1217.2 2449c-15.6-11.3-8-48.6-8-48.6s10 12 19 13.5c3 .5 5.5-.4 8-1.3 2.5-1 5-1.8 8.1-1.3a26 26 0 0 1 21.5 29.7c-3 19-33 19.2-48.6 8Zm1079.4-594.5c-3.9-2.9-3.4-7.7-2-12.3 3-9.3 16.7-9.7 24.6-4 7.9 5.6 11.9 18.8 4 24.5-4 2.9-8.3 4.9-12.3 2-2-1.4-4.5.4-7 2.2-2.5 1.9-5 3.7-7 2.3-2-1.5-1-4.4-.1-7.4s1.8-6-.2-7.4Zm-567.5-419c-1.5 4.7-2 9.5 2 12.3 2 1.4 4 .2 6.1-1 2-1.2 4.2-2.4 6.1-1 2 1.4 1.5 3.8 1 6.1-.5 2.4-1 4.7 1 6.2 4 2.8 8.4.8 12.3-2 7.9-5.7 3.9-19-4-24.6-7.9-5.7-21.6-5.3-24.5 4Zm-424-151c-4-2.8-3.4-7.6-2-12.3 2.9-9.2 14.3-24 22.2-18.3 7.9 5.7 14.2 33.2 6.3 38.8-3.9 2.9-8.3 4.9-12.2 2-2-1.4-4.5.5-7 2.3-2.6 1.8-5 3.6-7 2.2s-1.1-4.4-.2-7.3c1-3 1.9-6-.1-7.4Zm116.7 1354.8c1.7-4.6 2.4-9.3-1.3-12.4-2-1.5-4-.4-6.2.7-2.2 1-4.3 2.2-6.2.6-1.9-1.5-1.3-3.8-.7-6.2.6-2.3 1.3-4.6-.6-6.1-3.8-3-8.3-1.3-12.4 1.3-8.2 5.2-4.9 18.6 2.7 24.7 7.5 6.1 21.3 6.4 24.7-2.6Zm805.8-576c3.8 3 3 7.8 1.3 12.4-3.3 9-17.1 8.7-24.7 2.6-7.5-6-10.8-19.5-2.6-24.7 4-2.6 8.6-4.4 12.3-1.3 2 1.5 1.3 3.8.7 6.2-.6 2.3-1.2 4.6.7 6.1 1.9 1.6 4 .5 6.1-.6 2.2-1.1 4.3-2.2 6.2-.7Zm-484-352.4 249.8-3.2L2117 1843l2.4 258-489.7 463.2-498.5-450.8-2.6-258 120.9-138.3 249.8-3.2 123.5 135.3 120.9-138.3Z" fill="url(#j)" fill-opacity=".6"></path><path d="m1606 1864.4 17 18.6 16.6-19 114.3-130.6 229.7-3 110.9 121.5 2.2 239.5-467.4 442.2-475.8-430.2-2.4-239.6 108.6-124.2 229.7-3 116.7 127.8Z" stroke="url(#k)" stroke-width="45"></path></g><defs><radialGradient id="SvgjsRadialGradient1121" cx="0" cy="0" r="1" gradientUnits="userSpaceOnUse" gradientTransform="rotate(83.8 416.3 802.9) scale(416.977 122.414)"><stop stop-color="#F37030"></stop><stop offset="1" stop-color="#EE2445"></stop></radialGradient><radialGradient id="SvgjsRadialGradient1120" cx="0" cy="0" r="1" gradientUnits="userSpaceOnUse" gradientTransform="matrix(17.56818 448.37696 -135.99865 5.32866 1183.3 273.2)"><stop stop-color="#F37030"></stop><stop offset="1" stop-color="#EE2445"></stop></radialGradient><radialGradient id="SvgjsRadialGradient1119" cx="0" cy="0" r="1" gradientUnits="userSpaceOnUse" gradientTransform="matrix(51.64596 476.17543 -138.39935 15.01078 1988.8 824.7)"><stop stop-color="#F37030"></stop><stop offset="1" stop-color="#EE2445"></stop></radialGradient><radialGradient id="SvgjsRadialGradient1118" cx="0" cy="0" r="1" gradientUnits="userSpaceOnUse" gradientTransform="rotate(84.7 -126.5 957) scale(463.02 173.196)"><stop stop-color="#F37030"></stop><stop offset="1" stop-color="#EE2445"></stop></radialGradient><radialGradient id="SvgjsRadialGradient1117" cx="0" cy="0" r="1" gradientUnits="userSpaceOnUse" gradientTransform="rotate(89.7 -69.7 931.4) scale(459.665 176.309)"><stop stop-color="#F37030"></stop><stop offset="1" stop-color="#EE2445"></stop></radialGradient><radialGradient id="SvgjsRadialGradient1116" cx="0" cy="0" r="1" gradientUnits="userSpaceOnUse" gradientTransform="matrix(37.16567 2136.0567 -1444.18142 25.1276 1820.6 759.4)"><stop stop-color="#F37030"></stop><stop offset="1" stop-color="#EE2445"></stop></radialGradient><radialGradient id="SvgjsRadialGradient1115" cx="0" cy="0" r="1" gradientUnits="userSpaceOnUse" gradientTransform="matrix(-374.17396 605.72104 -591.03257 -365.10041 1869.8 1940.7)"><stop stop-color="#F37030"></stop><stop offset="1" stop-color="#EE2445"></stop></radialGradient><clipPath id="SvgjsClipPath1114"><path fill="#fff" d="M0 0h3000v3000H0z"></path></clipPath></defs></svg><style>@media (prefers-color-scheme: light) { :root { filter: none; } }
@media (prefers-color-scheme: dark) { :root { filter: none; } }
</style></svg>