<svg width="221" height="222" viewBox="0 0 221 222" fill="none" xmlns="http://www.w3.org/2000/svg">
<g opacity="0.8">
<circle cx="110.654" cy="111.1" r="109.705" fill="url(#paint0_linear_742_8406)" fill-opacity="0.5" stroke="black"/>
<g clip-path="url(#clip0_742_8406)">
<path d="M157.625 197.832C157.599 197.922 157.573 198.015 157.55 198.105C157.092 198.094 156.637 198.079 156.179 198.068C155.326 197.021 155.547 195.704 155.303 194.511C154.999 193.027 154.927 192.937 153.409 193.109C150.569 193.431 147.717 193.584 144.854 193.524C141.213 193.449 137.568 193.562 133.927 193.61C132.417 193.629 132.356 193.741 132.214 195.241C132.123 196.187 132.375 197.181 131.853 198.071C131.545 198.071 131.237 198.071 130.929 198.071C130.421 197.488 130.568 196.778 130.545 196.104C130.523 195.42 130.545 194.732 130.538 194.048C130.53 191.954 130.53 191.942 128.486 192.301C127.389 192.496 126.284 192.477 125.191 192.429C124.124 192.38 123.575 192.735 123.496 193.861C123.436 194.725 123.301 195.585 123.297 196.456C123.293 197.051 123.282 197.656 122.741 198.079C121.734 198.247 121.088 198.202 121.433 196.815C121.693 195.764 121.531 194.616 121.681 193.528C121.948 191.561 121.866 191.067 120.062 190.263C116.774 188.798 114.268 186.389 111.841 183.876C111.131 183.14 110.71 182.964 110 183.876C108.797 185.417 107.313 186.685 106.159 188.319C104.773 190.278 102.458 191.157 100.072 191.456C98.9564 191.595 98.6708 191.95 98.8813 193.019C99.118 194.231 99.0954 195.495 99.3472 196.703C99.614 197.967 99.1931 198.348 97.9945 198.079C97.2843 197.028 97.4835 195.79 97.3219 194.639C97.0138 192.462 97.0739 192.455 94.9322 192.425C94.4738 192.417 94.0116 192.425 93.5607 192.316C91.6256 191.845 90.3857 192.851 90.2842 194.878C90.2316 195.947 90.6186 197.08 89.8972 198.071C89.5402 198.071 89.1795 198.071 88.8226 198.071C88.0899 197.137 88.4055 196.037 88.4055 195.013C88.4055 193.936 87.9621 193.558 86.9175 193.562C83.1375 193.584 79.3575 193.532 75.5775 193.584C72.8045 193.621 70.0578 193.367 67.3036 193.143C65.9134 193.031 65.733 193.158 65.4813 194.534C65.2596 195.727 65.5526 197.047 64.6433 198.079C64.1962 198.09 63.7453 198.105 63.2982 198.116C63.0878 197.851 63.1441 197.57 63.2568 197.29C63.4823 195.749 63.6739 194.205 63.952 192.675C64.0497 192.129 63.8806 191.699 63.7303 191.217C62.9036 188.566 62.5354 185.881 62.8135 183.084C62.9638 181.577 61.7689 180.604 60.837 179.602C60.5177 179.262 60.0442 179.064 59.6422 178.802C58.6126 178.469 57.9776 177.635 57.2299 176.943C55.6442 175.077 54.2164 173.107 53.1756 170.874C52.3302 168.657 52.2099 166.364 52.4692 164.031C52.7923 162.913 52.7322 161.709 53.2357 160.632C53.6904 159.746 54.0736 158.822 54.5208 157.932C54.9867 157.005 55.0543 156.118 54.4043 155.251C53.9008 153.957 53.3372 152.682 53.2132 151.276C53.2357 149.956 53.1305 148.632 53.277 147.316C53.7956 145.528 54.3517 143.752 55.2159 142.088C55.9411 141.059 56.5348 139.945 57.305 138.947C58.7404 137.268 60.3298 135.757 62.1747 134.523C63.5574 134.085 64.091 133.24 63.7979 131.748C63.6176 130.832 63.6814 129.845 63.8693 128.899C64.1962 127.646 64.4893 126.378 65.3347 125.339C67.0744 123.301 69.4153 123.05 71.899 123.188C69.2462 122.347 66.244 122.743 63.9482 120.799C62.945 119.554 62.0995 118.234 61.844 116.614C61.8065 115.979 61.7839 115.343 61.9079 114.715C62.434 113.451 62.0432 112.515 60.7356 111.906C60.3636 111.731 59.9841 111.566 59.6347 111.342C58.8569 110.706 58.1505 109.996 57.5079 109.225C56.7339 108.171 56.3243 106.967 56.0313 105.71C55.9824 104.678 55.896 103.642 56.1214 102.621C56.2379 102.09 56.4258 101.582 56.9443 101.286C57.7747 100.224 58.808 99.4951 60.187 99.3306C61.0099 99.5774 61.4458 99.4278 61.0888 98.4593C60.5026 95.1125 60.063 91.7469 59.9916 88.3477C59.8451 81.4484 60.8821 74.7248 63.0802 68.1845C63.3207 67.4665 63.332 67.1075 62.5805 66.6812C56.0764 62.9455 53.2282 57.1867 53.2395 49.8685C53.2507 44.2406 55.2384 39.413 59.5144 35.7296C66.5371 29.6754 76.547 31.1824 81.7623 38.9343C83.0624 40.8639 83.0473 40.8452 84.99 39.5812C91.4528 35.3743 98.4942 32.7567 106.193 31.9004C111.98 31.2572 117.699 31.5451 123.331 33.0222C124.368 33.2952 124.695 33.011 125.157 32.1472C127.592 27.5813 131.18 24.5261 136.561 24.0998C142.137 23.6586 146.443 26.1079 149.614 30.4307C154.277 36.7916 155.138 43.7657 152.207 51.1287C151.944 51.7906 151.903 52.2244 152.357 52.8452C158.099 60.7093 161.582 69.4709 162.859 79.115C163.446 83.5537 163.585 87.9888 163.13 92.4387C163.059 93.138 163.111 93.5419 163.945 93.8635C165.948 94.6375 166.884 97.057 166.358 99.5961C166.301 99.8616 166.245 100.123 166.189 100.389C165.501 102.195 164.392 103.68 162.799 104.79C162.266 104.884 161.758 105.048 161.221 105.456C163.476 106.566 163.626 108.504 163.378 110.598C162.927 111.675 162.375 112.692 161.627 113.597C160.387 114.696 158.948 115.373 157.283 115.422C156.032 115.459 155.382 116.113 155.051 117.216C154.319 118.323 153.586 119.43 152.853 120.537C152.124 121.457 151.395 122.377 150.527 123.473C152.91 123.607 154.664 124.546 155.856 126.416C156.137 127.511 156.419 128.607 156.701 129.703C156.667 130.559 156.701 131.415 156.521 132.272C156.299 133.289 156.355 134.212 157.693 134.455C158.035 134.519 158.347 134.736 158.674 134.886C160.319 136.004 161.702 137.413 163.066 138.842C163.99 140.312 164.918 141.781 165.843 143.251C166.309 144.717 166.771 146.186 167.237 147.652C167.256 148 167.274 148.351 167.293 148.699C167.455 149.436 167.485 150.172 167.274 150.905C167.068 152.326 166.632 153.688 166.185 155.049C165.381 156.032 165.215 157.005 166.027 158.115C166.448 158.687 166.658 159.416 166.963 160.071C167.331 161.357 167.703 162.647 168.071 163.934C168.161 165.961 168.184 167.984 167.579 169.954C166.805 172.09 165.538 173.941 164.186 175.739C162.769 177.235 161.311 178.679 159.53 179.763C158.978 180.1 158.858 180.709 158.685 181.274C158.024 181.98 157.903 182.743 158.039 183.738C158.305 185.735 158.196 187.822 157.452 189.676C156.46 192.152 157.193 194.497 157.43 196.897C157.46 197.211 157.554 197.522 157.618 197.832H157.625Z" fill="#050505"/>
<path d="M64.625 198.071C64.8279 196.489 65.0533 194.911 65.23 193.326C65.3051 192.656 65.6132 192.522 66.2445 192.6C73.3085 193.471 80.4025 193.071 87.4891 193.109C88.6051 193.116 88.9094 193.43 88.8305 194.489C88.7403 195.674 88.8117 196.871 88.8117 198.063C80.752 198.063 72.6885 198.063 64.6288 198.067L64.625 198.071Z" fill="#F6EB19"/>
<path d="M131.848 198.07C131.874 196.877 132.002 195.677 131.896 194.495C131.81 193.497 132.159 193.261 133.08 193.258C137.826 193.243 142.571 193.168 147.313 193.145C149.669 193.134 152.006 192.91 154.332 192.607C155.223 192.491 155.478 192.816 155.572 193.568C155.76 195.067 155.97 196.563 156.17 198.063C148.061 198.063 139.952 198.063 131.844 198.066L131.848 198.07Z" fill="#F6EB19"/>
<path d="M122.734 198.071C122.877 196.381 123.091 194.69 123.125 193C123.144 192.118 123.429 191.934 124.245 191.949C126.221 191.987 128.209 192.103 130.148 191.538C130.963 191.302 130.918 191.889 130.918 192.413C130.918 194.298 130.918 196.182 130.918 198.067C128.19 198.067 125.458 198.067 122.73 198.067L122.734 198.071Z" fill="#F6EB19"/>
<path d="M89.8827 198.064C89.8827 197.425 89.8827 196.785 89.8827 196.146C89.8827 194.219 90.5703 192.667 91.9455 191.49C92.171 191.296 92.3814 191.075 92.6218 191.37C93.6025 192.571 94.8989 192.081 96.0787 191.984C97.0519 191.905 97.4614 192.088 97.4915 193.177C97.5404 194.811 97.8071 196.441 97.98 198.071C95.2784 198.071 92.5805 198.071 89.8789 198.068L89.8827 198.064Z" fill="#F6EB19"/>
<path d="M68.8283 114.179C68.5578 113.057 67.9528 112.519 66.9947 112.179C65.2212 111.55 63.5002 110.78 61.753 110.085C59.0063 108.989 57.3455 105.866 58.0219 103.039C58.3375 101.719 59.4121 101.02 60.7949 101.177C61.8996 101.3 62.8014 101.996 63.9962 102.262C63.3349 99.2961 62.7037 96.413 62.3354 93.4738C61.5689 87.3635 61.9334 81.3242 63.1283 75.3037C63.6468 72.6973 64.2931 70.1133 65.3264 67.6789C65.9501 66.2093 65.3489 65.7755 64.2292 65.2894C61.8056 64.246 59.8555 62.6119 58.2999 60.4804C53.017 53.2295 54.3621 42.1457 61.0955 36.8731C67.2051 32.0866 75.2686 33.4141 79.9278 39.6253C81.6337 41.9027 81.66 41.9924 79.4882 43.75C77.4141 45.4253 76.0088 47.4708 75.2949 50.1445C76.0689 49.9874 76.3958 49.348 76.8167 48.903C84.1211 41.2071 92.9474 36.1514 103.412 34.2779C115.349 32.1426 126.592 34.334 136.793 40.9005C150.688 49.8491 158.395 62.7876 160.878 78.9459C161.686 84.1924 161.675 89.4464 160.908 94.6966C160.863 95.0032 160.781 95.3323 160.991 95.6277C163.993 94.8836 165.526 96.5476 164.662 99.5878C163.982 101.977 162.321 103.395 159.988 103.956C158.361 104.348 158.29 105.694 157.857 106.835C157.658 107.362 158.124 107.299 158.432 107.228C159.571 106.973 160.837 106.577 161.513 107.893C162.235 109.296 161.75 110.668 160.83 111.861C160.003 112.927 158.906 113.577 157.531 113.622C155.445 113.693 153.95 114.456 153.003 116.487C152.135 118.349 150.677 119.893 149.475 121.572C148.415 123.057 147.107 123.861 145.289 124.317C139.269 125.835 133.937 128.771 129.181 132.731C127.937 133.763 126.9 134.986 126.036 136.369C125.014 138.007 123.477 138.778 121.542 139.174C113.339 140.857 105.276 140.483 97.3136 137.914C96.0248 137.499 95.0328 136.736 94.2174 135.569C91.9442 132.331 88.6226 130.285 85.2784 128.329C83.024 127.013 80.6643 125.854 78.1506 125.099C76.8392 124.706 75.7571 124.029 75.092 122.918C74.1752 121.385 72.7736 120.993 71.1805 120.791C69.9067 120.63 68.6329 120.45 67.3742 120.207C65.4992 119.845 63.7182 117.743 63.6581 115.896C63.6092 114.441 64.6763 113.48 66.1605 113.686C67.0172 113.805 67.8664 113.989 68.8396 114.164L68.8283 114.179Z" fill="url(#paint1_linear_742_8406)"/>
<path d="M62.3189 178.516C55.5067 175.51 52.4218 167.227 55.3526 160.137C56.2093 158.065 57.438 156.738 59.6136 155.945C63.7393 154.438 67.8461 153.017 72.31 153.099C73.8393 153.129 75.3122 153.477 76.7776 153.907C82.3349 155.537 83.0901 161.221 81.6059 165.443C81.3579 166.146 80.8206 165.955 80.366 166.03C75.3498 166.838 70.6191 168.345 66.6475 171.658C64.517 173.438 63.8595 174.552 62.3152 178.516H62.3189Z" fill="#F6EB19"/>
<path d="M71.5878 152.001C66.7219 152.147 62.2129 153.669 57.843 155.647C56.9788 156.04 56.6744 155.841 56.2874 155.101C54.8972 152.468 54.4763 149.686 55.2804 146.848C56.6632 141.983 59.3422 138.049 64.0052 135.693C64.8957 135.244 65.7599 135.121 66.7745 135.409C69.6902 136.239 72.7188 136.636 75.5857 137.664C79.4183 139.04 81.9471 141.927 84.2767 145.049C84.2879 147.405 84.9981 149.821 83.7131 152.072C83.6229 152.233 83.5402 152.397 83.4425 152.554C82.8827 153.448 82.5182 154.697 81.7066 155.138C80.7221 155.673 80.027 154.278 79.1478 153.826C76.7618 152.596 74.2668 151.982 71.5878 152.001Z" fill="#F6EB19"/>
<path d="M165.867 149.618C165.89 151.698 165.278 153.5 164.425 155.254C164.094 155.934 163.775 156.017 163.046 155.691C159.352 154.039 155.572 152.674 151.51 152.18C147.43 151.686 143.616 152.27 140.279 154.786C139.554 155.332 139.314 155.269 138.878 154.54C137.841 152.816 136.552 151.215 136.364 149.117C136.184 147.106 136.323 145.255 137.679 143.467C140.888 139.249 145.213 137.181 150.274 136.269C151.721 136.007 153.156 135.663 154.569 135.263C155.328 135.05 155.94 135.33 156.549 135.603C160.614 137.42 163.034 140.748 164.778 144.656C165.492 146.257 165.913 147.947 165.871 149.618H165.867Z" fill="#F6EB19"/>
<path d="M75.015 189.306C71.5543 189.426 68.9467 187.975 66.8613 185.473C66.2451 184.733 65.6814 183.944 65.1441 183.143C64.3551 181.969 62.9347 180.791 63.1414 179.49C63.4721 177.418 64.3814 175.403 65.9332 173.772C69.0368 170.519 72.9934 168.892 77.2168 167.74C79.5126 167.116 81.8948 166.929 84.1982 166.278C86.4038 165.654 88.414 166.996 89.1129 169.229C89.267 169.719 89.019 169.999 88.8311 170.351C88.0608 171.82 87.4371 173.331 87.3695 175.029C87.3507 175.526 87.2868 176.076 87.0576 176.498C85.1789 179.927 84.2545 183.652 83.6458 187.462C83.5106 188.315 83.2325 188.453 82.4434 188.427C79.8921 188.337 77.4686 189.399 75.0187 189.302L75.015 189.306Z" fill="#F6EB19"/>
<path d="M148.594 153.059C154.29 153.213 159.014 154.97 163.635 157.098C163.834 157.188 164.06 157.341 164.154 157.524C166.036 161.309 167.644 165.164 166.153 169.483C164.879 173.174 162.407 175.967 159.235 178.185C158.754 178.521 158.356 178.69 158.153 177.897C156.714 172.146 152.603 168.657 147.73 165.867C145.412 164.54 142.928 163.579 140.283 163.059C139.216 162.849 138.336 160.217 138.776 158.829C139.843 155.453 142.567 154.185 145.678 153.448C146.794 153.187 147.94 152.97 148.594 153.063V153.059Z" fill="#F6EB19"/>
<path d="M147.969 188.723C146.226 188.678 144.719 187.803 143.092 187.38C140.984 186.834 140.24 185.724 139.951 183.592C139.312 178.88 137.403 174.644 134.232 170.998C133.574 170.242 133.304 169.259 133.871 168.178C134.465 167.041 134.923 165.833 135.742 164.82C136.648 163.702 137.655 163.489 139.147 163.825C143.49 164.805 147.402 166.574 150.937 169.259C154.364 171.861 156.592 175.216 157.705 179.344C157.791 179.673 157.705 179.868 157.577 180.092C156.014 182.807 154.364 185.462 151.82 187.406C150.697 188.263 149.408 188.738 147.969 188.73V188.723Z" fill="#F6EB19"/>
<path d="M121.488 157.958C121.488 159.843 121.477 161.728 121.496 163.609C121.499 164.106 121.462 164.495 120.872 164.645C117.167 165.591 114.529 168.092 112.08 170.796C111.249 171.712 110.892 171.555 110.126 170.762C107.567 168.115 104.907 165.486 101.13 164.704C99.6123 164.39 99.4582 163.699 99.5183 162.431C99.6912 158.852 99.7814 155.273 99.8565 151.691C99.8715 150.924 99.9768 150.618 100.833 150.91C107.417 153.161 114.075 153.221 120.782 151.527C121.567 151.328 121.702 151.549 121.68 152.308C121.616 154.189 121.661 156.074 121.661 157.955C121.605 157.955 121.545 157.955 121.488 157.955V157.958Z" fill="white"/>
<path d="M150.436 50.245C149.136 48.8876 147.888 47.5563 146.603 46.2587C141.144 40.7542 134.684 36.7941 127.384 34.2213C126.283 33.8324 126.538 33.4809 126.899 32.8041C131.168 24.854 140.719 23.7172 147.129 30.4033C151.803 35.2796 153.34 43.6934 150.68 49.8598C150.631 49.972 150.545 50.0692 150.432 50.2413L150.436 50.245Z" fill="#F1DAF2"/>
<path d="M65.5194 130.66C65.5119 127.017 67.1689 124.228 72.4556 125.193C79.7601 126.528 86.0351 129.841 91.5736 134.698C94.2526 137.047 93.6589 138.759 91.8178 141.34C90.4313 143.284 88.1167 143.969 86.0088 144.885C85.3212 145.184 85.2159 144.619 84.9792 144.301C83.6303 142.491 82.1912 140.771 80.474 139.283C77.5695 136.763 73.9511 136.022 70.3703 135.177C69.9231 135.072 69.476 134.975 69.0251 134.889C65.7298 134.268 65.5194 134.014 65.5156 130.663L65.5194 130.66Z" fill="#F6EB19"/>
<path d="M155.159 131.086C154.929 134.68 155.625 133.883 151.841 134.859C149.042 135.584 146.156 136.011 143.507 137.237C140.392 138.677 138.115 141.085 136.225 143.834C135.436 144.978 134.729 145.015 133.659 144.451C132.28 143.725 130.822 143.157 129.627 142.095C128.237 140.861 127.643 139.279 127.369 137.51C127.26 136.815 127.695 136.388 128.075 135.943C130.559 133.015 133.734 130.974 137.07 129.182C140.644 127.264 144.379 125.772 148.448 125.159C153.145 124.452 155.324 126.311 155.155 131.086H155.159Z" fill="#F6EB19"/>
<path d="M89.4727 172.904C90.7013 167.471 97.9044 163.724 103.567 167.172C106.152 168.746 108.237 170.866 110.319 173.001C110.657 173.345 110.871 173.88 111.488 173.861C112.75 174.669 113.374 176.079 114.509 177.006C116.474 179.471 118.728 181.628 121.373 183.363C122.226 183.921 123.117 184.399 124.12 184.646C124.639 184.822 125.176 184.77 125.71 184.77C126.743 184.814 127.761 184.751 128.719 184.31C129.854 183.872 130.85 183.248 131.65 182.313C131.917 181.999 132.195 181.497 132.777 181.853C131.504 186.205 125.323 190.031 121.159 188.961C118.766 188.344 116.97 186.714 115.222 185.084C113.712 183.67 112.292 182.167 110.83 180.705C109.661 180.443 109.184 179.347 108.346 178.682C108.17 178.491 108.019 178.278 107.869 178.068C105.378 175.354 102.827 172.713 99.3811 171.162C98.7085 170.859 98.0246 170.586 97.2656 170.589C96.8673 170.582 96.469 170.589 96.0707 170.589C95.1539 170.574 94.2334 170.545 93.3316 170.75C92.317 171.083 91.4491 171.655 90.6262 172.317C90.288 172.59 90.0288 173.039 89.4764 172.912L89.4727 172.904Z" fill="#2DAADF"/>
<path d="M91.9863 142.812C91.6782 149.319 91.3814 155.501 91.0958 161.682C91.0207 163.331 90.9681 164.984 90.9117 166.633C90.8854 167.351 90.7313 168.005 89.9272 168.499C88.4844 165.455 86.1172 164.296 82.6941 165.601C82.9046 164.442 83.1375 163.477 83.2427 162.497C83.4081 160.93 83.269 159.375 82.5175 157.954C81.984 156.948 82.2883 156.155 82.897 155.306C84.4038 153.197 85.8617 150.972 85.4333 148.257C85.1665 146.571 85.779 145.935 87.2331 145.464C88.8413 144.94 90.3105 144.076 91.9901 142.812H91.9863Z" fill="#F6EB19"/>
<path d="M132.488 168.787C131.699 168.065 130.978 167.355 130.196 166.723C129.896 166.48 129.835 166.237 129.828 165.911C129.632 158.481 128.975 151.069 128.934 143.635C128.934 143.467 128.979 143.302 129.02 142.988C130.809 144.334 132.725 145.183 134.675 145.972C135.028 146.114 135.483 146.219 135.374 146.814C134.818 149.918 136.208 152.453 137.899 154.839C138.628 155.867 138.763 156.798 138.136 157.838C137.437 159.001 137.452 160.194 137.951 161.39C138.241 162.082 138.282 162.377 137.354 162.549C135.783 162.841 134.893 164.079 134.175 165.391C133.585 166.468 133.074 167.594 132.488 168.783V168.787Z" fill="#F6EB19"/>
<path d="M91.8359 166.652C92.099 161.69 92.3657 156.97 92.5912 152.255C92.7377 149.181 92.9256 146.104 92.8993 143.03C92.8843 141.313 94.0829 140.076 94.2933 138.486C94.3534 138.041 94.6653 138.221 94.9058 138.374C95.2928 138.625 95.6422 138.961 96.0631 139.122C98.5543 140.061 98.945 141.874 98.791 144.339C98.434 150.067 98.3814 155.815 98.2048 161.555C98.2011 161.738 98.2048 161.922 98.1973 162.105C98.1297 164.233 98.1334 164.244 96.0819 164.704C94.6277 165.029 93.3352 165.71 91.8359 166.652Z" fill="#F6EB19"/>
<path d="M126.006 138.105C128.723 141.946 127.783 145.977 128.095 149.788C128.501 154.765 128.542 159.772 128.738 164.768C128.749 165.041 128.738 165.314 128.738 165.707C127.021 164.951 125.337 164.379 123.534 164.327C122.688 164.3 122.895 163.706 122.903 163.25C122.951 160.404 123.034 157.562 123.075 154.716C123.128 150.861 123.211 147.005 123.162 143.15C123.147 141.808 123.432 140.794 124.533 139.949C125.134 139.485 125.514 138.741 126.002 138.113L126.006 138.105Z" fill="#F6EB19"/>
<path d="M100.198 144.51C104.764 146.731 109.468 147.554 114.379 147.247C116.54 147.112 118.663 146.731 120.722 146.073C121.511 145.822 121.819 145.77 121.815 146.787C121.815 150.257 121.864 150.302 118.381 151.001C112.47 152.183 106.654 151.764 100.924 149.891C100.127 149.629 99.8115 149.24 99.9016 148.41C100.037 147.18 100.097 145.938 100.202 144.506L100.198 144.51Z" fill="white"/>
<path d="M156.727 184.213C156.667 186.666 156.415 188.693 155.758 190.663C155.581 191.191 155.318 191.434 154.702 191.527C150.032 192.245 145.32 192.088 140.623 192.275C138.041 192.38 135.453 192.309 132.867 192.297C132.499 192.297 131.958 192.526 131.872 191.886C131.797 191.329 132.236 191.321 132.642 191.157C133.559 190.779 134.408 190.413 135.351 191.075C135.671 191.299 136.046 191.135 136.415 191.041C137.429 190.783 138.413 190.319 138.996 189.538C140.228 187.885 141.442 188.18 143.099 188.902C148.574 191.292 152.008 190.312 155.641 185.593C155.916 185.237 156.197 184.886 156.727 184.209V184.213Z" fill="#F6EB19"/>
<path d="M100.331 140.98C104.656 141.971 109.029 142.439 113.463 142.274C115.992 142.181 118.517 141.956 120.982 141.384C121.79 141.197 121.748 141.459 121.838 142.061C122.053 143.501 121.459 144.17 120.069 144.518C113.606 146.126 107.316 145.973 101.206 143.056C100.203 142.577 99.9512 141.994 100.334 140.98H100.331Z" fill="#AAB0D9"/>
<path d="M89.4749 172.905C90.6134 171.929 91.6392 170.777 93.2361 170.508C93.6344 170.885 93.9801 171.166 93.6306 171.876C93.3789 172.381 93.4653 173.118 93.7058 173.731C93.7396 174.202 93.5855 174.636 93.4202 175.059C92.6199 177.123 93.2962 179.101 93.7396 181.094C93.3488 182.788 93.5066 184.508 93.548 186.217C93.5592 186.61 93.8598 187.006 93.4916 187.38C88.5919 184.34 86.9236 178.163 89.4749 172.897V172.905Z" fill="#5E4C9F"/>
<path d="M132.777 181.853C131.519 182.754 130.632 184.175 129.001 184.564C128.622 183.958 129.234 183.457 129.178 182.885C129.11 182.619 129.959 182.391 129.204 182.099C128.896 181.782 128.31 181.636 128.543 180.996C129.527 178.655 129.35 176.318 128.509 173.988C128.422 173.386 128.704 172.926 129.084 172.504C129.238 172.317 129.433 172.41 129.617 172.429C129.508 172.257 129.305 172.279 129.144 172.208C128.776 171.962 128.531 171.618 128.595 171.184C128.73 170.268 128.614 169.385 128.422 168.491C128.332 168.073 128.347 167.639 129.005 167.758C133.1 170.485 134.911 175.417 133.499 180.069C133.315 180.678 133.258 181.355 132.781 181.853H132.777Z" fill="#FAB83F"/>
<path d="M135.198 174.221C137.599 177.422 138.587 181.112 139.222 184.915C139.594 187.133 138.692 188.576 136.569 189.41C135.69 189.758 135.021 189.635 134.818 188.58C134.495 186.92 134.194 185.256 133.875 183.595C133.714 182.75 134.431 182.197 134.57 181.419C134.995 179.041 135.389 176.674 135.198 174.217V174.221Z" fill="#F6EB19"/>
<path d="M85.3857 192.069C78.8703 192.02 72.4676 192.376 66.0874 191.534C65.4749 191.452 65.1894 191.231 65.0316 190.7C64.4379 188.718 64.0095 186.714 64.141 184.594C64.7272 184.654 64.8324 185.177 65.0654 185.514C68.2742 190.158 72.7569 191.467 78.1188 190.51C78.7049 190.405 79.2948 190.3 79.8622 190.124C82.0941 189.433 83.9015 190.02 85.3819 192.073L85.3857 192.069Z" fill="#F5EA19"/>
<path d="M86.6928 179.703C87.0348 179.909 87.1062 180.111 87.14 180.354C87.5307 183.099 88.7895 185.436 90.8298 187.253C92.1073 188.394 91.4986 189.377 90.9425 190.391C90.3676 191.438 89.4959 191.976 88.1808 191.591C86.7943 191.187 85.7798 190.267 84.6939 189.422C84.3895 189.183 84.4534 188.913 84.5022 188.569C84.9193 185.525 85.5355 182.538 86.6928 179.703Z" fill="#F6EB19"/>
<path d="M114.152 177.13C113.168 176.117 112.123 175.152 111.484 173.858C113.04 171.726 114.844 169.838 117.012 168.309C117.985 169.105 116.921 169.932 117.053 170.739C117.015 170.908 116.959 171.068 116.903 171.229C116.88 171.33 116.85 171.431 116.827 171.536C116.816 171.637 116.801 171.738 116.794 171.839C116.794 171.94 116.794 172.037 116.794 172.138C116.809 172.239 116.82 172.34 116.839 172.437C116.88 172.59 116.925 172.747 116.944 172.908C116.97 173.2 117.038 173.488 117.053 173.783C116.598 175.339 115.34 176.203 114.152 177.13Z" fill="#EE3754"/>
<path d="M116.798 173.626C116.663 173.324 116.607 173.017 116.78 172.707C116.753 172.669 116.723 172.632 116.697 172.594C116.697 172.549 116.705 172.501 116.705 172.456C116.735 172.37 116.765 172.284 116.783 172.198C116.795 172.112 116.806 172.022 116.814 171.936C116.814 171.85 116.821 171.764 116.829 171.682C116.829 171.6 116.829 171.517 116.829 171.431C116.817 171.349 116.814 171.267 116.81 171.185L116.806 171.061C116.528 170.119 117.287 169.255 117.016 168.313C118.978 166.794 121.093 165.706 123.682 165.927C123.645 166.368 123.246 166.297 122.98 166.428C122.521 166.652 121.383 166.506 122.326 167.55C121.379 168.242 122.694 169.58 121.563 170.22C121.668 170.336 121.841 170.399 121.867 170.583C120.406 171.615 118.895 172.572 117.449 173.63C117.261 173.765 117.016 173.75 116.798 173.63V173.626Z" fill="#EF4E33"/>
<path d="M105.397 185.984C104.116 187.349 102.609 188.34 100.768 188.778C100.099 187.955 100.31 186.986 100.306 186.052C100.791 185.521 100.373 184.814 100.652 184.242C102.241 183.565 103.394 182.174 105.048 181.602C105.179 181.617 105.299 181.661 105.408 181.732C105.57 182.544 105.284 183.434 106.074 184.141C106.446 184.473 106.28 185.076 105.792 185.427C105.6 185.565 105.228 185.588 105.397 185.98V185.984Z" fill="#BA2D91"/>
<path d="M100.448 185.967C100.783 186.879 100.625 187.848 100.764 188.782C99.261 189.287 97.7655 189.179 96.2813 188.704C95.5599 187.305 95.8417 185.776 95.7252 184.302C95.6839 183.775 96.1461 183.805 96.5106 183.771C97.634 184.104 98.8101 184.164 99.9524 184.407C100.591 184.777 100.907 185.252 100.445 185.967H100.448Z" fill="#8B3E97"/>
<path d="M129.28 172.444C129.1 172.901 128.915 173.361 128.735 173.817C128.649 173.862 128.525 173.895 128.483 173.839C127.469 172.4 125.928 171.611 124.538 170.635C124.309 169.692 125.459 169.415 125.519 168.615C125.752 168.137 125.117 167.994 125.117 167.602C125.162 167.03 124.812 166.203 125.94 166.334C127.123 166.454 128.047 167.131 128.998 167.751C128.919 167.793 128.761 167.852 128.769 167.875C129.092 169.281 128.63 170.784 129.28 172.149C129.363 172.213 129.389 172.276 129.363 172.34C129.336 172.403 129.306 172.437 129.28 172.437V172.444Z" fill="#F79133"/>
<path d="M125.941 166.338C124.965 166.641 125.562 167.449 125.4 168.01C125.585 168.152 125.686 168.339 125.682 168.574C126.013 169.625 124.792 169.756 124.551 170.47C123.642 171.11 122.721 171.076 121.789 170.523C121.767 170.478 121.632 168.915 121.647 168.851C121.729 168.455 121.53 168.002 121.109 167.812C121.369 167.782 121.541 167.767 121.711 167.744C121.842 167.726 121.974 167.699 122.131 167.67C121.598 167.337 121.32 167.105 121.902 166.488C122.451 165.905 123.161 166.308 123.679 165.927C124.472 165.845 125.235 165.946 125.941 166.342V166.338Z" fill="#F16E27"/>
<path d="M96.3214 184.015C95.5624 184.044 95.9569 184.89 95.9645 184.923C96.25 186.172 96.1411 187.451 96.2876 188.704C95.2242 188.543 94.3412 187.997 93.4921 187.391C92.6955 185.63 93.5296 183.764 93.1464 181.98C93.0524 181.546 93.4883 181.483 93.5522 181.188C94.6381 181.973 95.6225 182.855 96.3214 184.018V184.015Z" fill="#72479C"/>
<path d="M125.449 190.303C128.579 189.245 130.728 187.413 132.679 185.105C132.942 186.414 133.141 187.514 133.396 188.602C133.528 189.155 133.238 189.387 132.814 189.484C130.526 190.008 128.245 190.644 125.449 190.303Z" fill="#A9AFD8"/>
<path d="M105.399 185.985C105.019 185.589 105.429 185.488 105.639 185.274C106.102 184.807 106.135 184.392 105.534 183.936C104.708 183.311 105.136 182.545 105.444 181.823C105.384 181.326 105.869 180.997 105.857 180.514C106.312 179.392 107.067 178.521 108.104 177.896C108.24 178.072 108.379 178.248 108.514 178.424C108.706 180.129 108.367 181.808 108.243 183.494C107.42 184.467 106.586 185.424 105.399 185.985Z" fill="#DC1B88"/>
<path d="M108.24 183.495C107.699 181.771 108.277 180.107 108.51 178.424C109.284 179.183 110.058 179.942 110.832 180.701C110.051 181.707 109.288 182.728 108.244 183.495H108.24Z" fill="#EA217C"/>
<path d="M94.0114 189.743C93.5304 189.731 93.1171 189.948 92.9405 189.458C92.9029 189.357 93.0307 189.096 93.0419 189.096C93.3914 189.17 93.7408 189.264 94.0114 189.739V189.743Z" fill="#9CA3D1"/>
<path d="M126.996 85.7137C127.083 86.1101 126.925 86.3794 126.658 86.4504C126.451 86.5065 126.286 86.2672 126.185 86.0391C126.019 85.6614 125.816 85.3024 125.636 84.9322C125.433 84.5246 125.256 84.3114 124.697 84.5695C123.701 85.0257 123.025 84.5695 122.671 83.5785C122.581 83.3205 122.476 83.0624 122.397 82.8007C122.126 81.9107 122.348 80.8225 121.371 80.213C120.188 79.4763 118.876 79.2594 117.524 79.4314C116.667 79.5399 115.81 79.7792 114.995 80.0746C113.691 80.542 112.932 81.361 112.891 82.9091C112.831 85.1603 112.357 85.4482 110.178 84.9845C109.464 84.8312 109.49 85.437 109.238 85.7511C108.953 86.1064 108.701 86.6336 108.175 86.3382C107.675 86.0578 107.901 85.5642 108.085 85.1266C108.881 83.2232 109.761 81.3946 111.128 79.7867C113.556 76.9409 120.221 75.2881 123.641 79.1136C125.373 81.0506 126.177 83.4214 126.996 85.7175V85.7137Z" fill="#0E0E0E"/>
<path d="M86.5233 78.6732C86.5533 77.9814 86.497 77.6337 86.5984 77.3457C86.7863 76.8222 86.8201 76.093 87.6355 76.0967C88.4884 76.1005 88.4772 76.7624 88.5598 77.3644C88.9769 80.3635 91.2351 81.9827 93.7451 81.059C95.3157 80.4794 95.853 79.0995 96.2062 77.6411C96.3265 77.1438 96.4467 76.6838 96.736 76.2501C97.0855 75.7265 97.589 75.749 98.0887 75.8163C98.596 75.8836 98.7237 76.3361 98.7688 76.7287C99.0619 79.466 97.9798 81.6947 95.8906 83.3401C94.1622 84.705 92.0956 84.7387 90.1567 83.744C87.9774 82.6259 86.6398 80.8496 86.5195 78.6732H86.5233Z" fill="#0E0E0D"/>
<path d="M142.581 74.444C142.588 77.8133 140.172 80.6029 136.959 81.0404C134.607 81.3583 131.624 79.2305 130.88 76.7475C130.756 76.3362 130.748 75.9398 130.711 75.5322C130.651 74.8778 130.944 74.4627 131.552 74.2944C132.21 74.1112 132.428 74.6085 132.642 75.076C132.988 75.8313 133.375 76.5568 134.032 77.099C135.054 77.9367 136.238 78.4078 137.497 77.918C138.688 77.4543 139.248 76.3362 139.522 75.1283C139.672 74.4627 139.74 73.7709 139.793 73.0866C139.849 72.3723 140.116 71.8114 140.86 71.6805C141.698 71.5347 142.107 72.0096 142.314 72.7912C142.468 73.3745 142.622 73.9429 142.584 74.444H142.581Z" fill="#0E0E0E"/>
<path d="M88.4681 87.4449L88.4685 87.4431C88.5046 87.2831 88.4372 87.1019 88.1902 86.9822C88.1608 86.9681 88.1413 86.9627 88.1307 86.9605C88.1207 86.9585 88.1165 86.959 88.1165 86.959L88.1165 86.959C88.1163 86.9591 88.1149 86.9592 88.1113 86.9606C88.107 86.9624 88.0982 86.9665 88.0849 86.9758C88.0562 86.996 88.0178 87.032 87.9691 87.0921C87.9203 87.1523 87.8738 87.2202 87.8192 87.3012L88.4681 87.4449ZM88.4681 87.4449C88.102 89.0989 88.0122 90.7563 87.9862 92.3866C87.9779 92.9075 87.9761 93.4224 87.9742 93.9336C87.9702 95.039 87.9662 96.1272 87.8975 97.2218C87.8716 97.6327 87.7587 97.9874 87.5697 98.2475C87.3883 98.4972 87.1197 98.6851 86.7163 98.7532L86.7158 98.7533M88.4681 87.4449L86.7158 98.7533M86.7158 98.7533C86.3123 98.8219 86.0289 98.7286 85.7973 98.5522C85.5457 98.3605 85.3266 98.0473 85.1268 97.6339L85.1262 97.6327M86.7158 98.7533L85.1262 97.6327M85.1262 97.6327C84.8028 96.9677 84.5458 96.3402 84.5633 95.3699M85.1262 97.6327L84.5633 95.3699M84.5633 95.3699C84.8533 93.4604 85.6268 91.396 86.607 89.3676C86.9504 88.659 87.369 87.9697 87.8192 87.3013L84.5633 95.3699Z" fill="#4373B9" stroke="white"/>
<path d="M138.459 70.802C135.664 71.0302 133.379 69.8073 131.114 68.5995C130.351 68.1919 129.885 67.4664 130.309 66.5054C130.76 65.4845 131.617 65.7762 132.331 65.9931C133.556 66.3708 134.751 66.8494 135.938 67.343C137.388 67.9488 138.846 68.4873 140.455 68.4163C140.635 68.4088 140.83 68.4163 141.003 68.4686C141.68 68.693 142.694 68.7042 142.683 69.6017C142.668 70.5403 141.702 70.4692 140.977 70.5777C140.113 70.7086 139.267 70.9367 138.463 70.7946L138.459 70.802Z" fill="#0E0E0F"/>
<path d="M87.8769 74.1375C87.1855 74.1412 86.4979 74.1786 85.8328 73.9093C85.3443 73.7112 85.0663 73.3821 85.1302 72.866C85.1903 72.3687 85.5698 72.2565 86.0357 72.2116C88.8538 71.9274 91.3638 70.9252 93.5281 69.063C94.0804 68.5881 94.7643 68.244 95.4932 68.0982C96.147 67.9673 96.7707 67.9935 97.1502 68.719C97.5297 69.4444 97.387 70.0053 96.8046 70.5588C95.3993 71.89 89.842 74.1412 87.8844 74.1412L87.8769 74.1375Z" fill="#0E0E0E"/>
<path d="M66.9189 41.6365C65.6639 46.1426 66.0697 50.4019 68.8841 54.2909C66.6446 55.0089 61.2189 53.0382 59.7422 51.0077C61.294 51.247 62.8233 51.5013 64.3601 51.7182C65.2694 51.849 65.8217 51.8116 65.1905 50.6113C63.913 48.1731 64.4653 45.7387 65.5249 43.3754C65.8405 42.6686 66.2689 42.0142 66.6484 41.3336C66.9001 41.2888 67.0579 41.3299 66.9152 41.6328L66.9189 41.6365Z" fill="#070709"/>
<path d="M143.082 86.7574L143.082 86.7556C143.062 86.5206 142.99 86.2877 142.929 86.1007C142.914 86.0547 142.9 86.0112 142.886 85.9697C142.838 85.825 142.798 85.7051 142.77 85.5862C142.735 85.4356 142.739 85.3577 142.749 85.3195C142.749 85.3192 142.75 85.3188 142.75 85.3184C142.754 85.3038 142.762 85.2702 142.847 85.2213C142.969 85.1519 143.041 85.1538 143.086 85.1625C143.144 85.1739 143.226 85.212 143.338 85.309C143.451 85.4063 143.564 85.5366 143.692 85.6944C143.72 85.7286 143.749 85.7654 143.779 85.8034C143.876 85.925 143.984 86.0601 144.087 86.1722C145.598 87.8245 146.768 89.5925 147.06 91.799C147.06 91.8019 147.059 91.8047 147.059 91.8075C146.992 92.2347 146.936 92.5911 146.806 92.8812C146.685 93.1493 146.515 93.3296 146.192 93.4122C145.625 93.556 145.098 93.236 144.722 92.5706C144.269 91.7636 144.008 90.883 143.79 89.9456C143.724 89.663 143.661 89.3707 143.597 89.0736C143.455 88.4105 143.307 87.7233 143.109 87.0666C143.104 87.049 143.099 87.0201 143.095 86.9668C143.093 86.9408 143.092 86.9143 143.09 86.8811L143.09 86.8747C143.088 86.8408 143.086 86.7996 143.082 86.7574Z" fill="#4373B9" stroke="white"/>
<path d="M79.8234 91.6043C78.3543 91.436 76.5319 90.991 74.7321 90.475C73.8866 90.2319 73.1464 89.7009 73.3794 88.7249C73.6086 87.7564 74.4953 87.5769 75.3821 87.704C77.0579 87.9471 78.7338 88.2014 80.3945 88.5192C81.4842 88.7286 82.1079 89.4653 82.0027 90.5759C81.905 91.6192 81.0446 91.6529 79.8197 91.6043H79.8234Z" fill="#0E0E0E"/>
<path d="M148.122 85.7516C147.103 85.6656 146.882 85.0561 147.126 84.211C147.325 83.5192 147.844 83.0143 148.422 82.6479C149.617 81.8888 150.846 81.182 152.09 80.5014C152.552 80.2471 153.104 80.2396 153.476 80.7033C153.871 81.1932 153.856 81.8252 153.416 82.2066C151.935 83.493 150.451 84.8018 148.655 85.6581C148.497 85.7329 148.298 85.7217 148.122 85.7479V85.7516Z" fill="#0F0F10"/>
<path d="M66.9191 41.6373C66.8289 41.5363 66.7388 41.4391 66.6523 41.3381C66.7162 40.9492 66.9717 40.7137 67.3324 40.5117C67.4189 41.0016 67.1634 41.3194 66.9191 41.6373Z" fill="#42475C"/>
<path d="M108.1 177.901C107.359 178.832 106.619 179.767 105.879 180.698C105.601 181.053 105.458 181.502 105.112 181.809C104.32 181.794 103.959 182.504 103.44 182.893C102.595 183.533 101.734 184.067 100.72 184.367C100.491 184.595 100.277 184.883 99.9046 184.583C98.6684 184.662 97.4735 184.453 96.3199 184.015C95.2566 183.207 94.2721 182.321 93.5507 181.184C92.461 178.645 92.416 176.11 93.5996 173.586C93.8889 172.12 95.0424 171.398 96.1546 170.639C96.5529 170.471 96.9888 170.426 97.4021 170.295C99.0892 170.31 100.468 171.148 101.783 172.041C104.184 173.672 106.21 175.721 108.107 177.901H108.1Z" fill="#050606"/>
<path d="M121.787 170.523C122.708 170.504 123.629 170.489 124.549 170.471C126.375 171.05 127.717 172.232 128.731 173.818C129.825 176.316 129.922 178.817 128.724 181.315C128.472 181.607 128.588 182.048 128.303 182.329C127.563 183.57 126.342 184.198 125.109 184.804C124.722 184.883 124.343 185.036 123.933 184.984C121.791 184.419 120.104 183.091 118.507 181.67C116.944 180.279 115.437 178.81 114.152 177.138C114.671 176.162 115.591 175.523 116.257 174.666C116.505 174.349 116.88 174.113 116.794 173.631C117.444 173.574 117.842 173.073 118.225 172.677C119.232 171.637 120.487 171.062 121.787 170.527V170.523Z" fill="#060606"/>
<path d="M125.115 184.571C126.34 183.987 127.317 183.094 128.23 182.118C128.504 182.009 128.703 182.155 128.899 182.308C129.079 182.48 129.241 182.667 129.267 182.929C129.883 183.587 128.947 183.995 129 184.563C127.974 185.248 126.843 185.334 125.66 185.158C125.562 184.885 124.919 185.113 125.115 184.571Z" fill="#F39235"/>
<path d="M96.3248 170.866C95.2013 171.558 94.3897 172.56 93.6007 173.585C92.4847 173.207 93.7472 172.268 93.1648 171.767C94.0591 171.397 93.0972 170.926 93.2362 170.511C94.1267 170.092 95.0661 170.144 96.0092 170.234C96.2158 170.395 96.5052 170.511 96.3248 170.866Z" fill="#72479C"/>
<path d="M125.113 184.572C125.294 184.767 125.478 184.965 125.658 185.159C125.064 185.268 124.486 185.23 123.93 184.98C124.324 184.845 124.719 184.707 125.113 184.572Z" fill="#DD692B"/>
<path d="M96.3234 170.866C96.2182 170.657 96.113 170.448 96.0078 170.234C96.4775 170.119 96.9397 170.178 97.3981 170.294C97.0411 170.485 96.6804 170.676 96.3234 170.866Z" fill="#854199"/>
<path d="M129.267 182.931C129 182.826 128.816 182.643 128.715 182.377C128.82 182.127 128.967 181.955 129.271 182.104C129.504 182.145 129.564 181.457 129.846 181.921C130.207 182.508 129.635 182.691 129.267 182.934V182.931Z" fill="#F9A63A"/>
<path d="M129.271 182.1C129.087 182.189 128.903 182.283 128.715 182.373C128.554 182.287 128.392 182.201 128.23 182.115C128.396 181.845 128.561 181.58 128.726 181.311C128.681 181.729 129.602 181.486 129.271 182.1Z" fill="#EC9437"/>
<path d="M129.281 172.445C129.281 172.348 129.281 172.254 129.281 172.157C129.525 172.079 129.815 171.858 129.946 172.258C129.991 172.389 129.894 172.658 129.781 172.733C129.503 172.909 129.51 172.452 129.281 172.445Z" fill="#F89C37"/>
<path d="M116.527 172.174C116.527 172.073 116.527 171.972 116.527 171.871C116.591 171.845 116.655 171.819 116.719 171.793C116.772 171.834 116.828 171.879 116.881 171.92C116.881 171.987 116.881 172.058 116.877 172.126C116.824 172.171 116.772 172.212 116.715 172.257C116.651 172.227 116.591 172.197 116.527 172.171V172.174Z" fill="#EF3754"/>
<path d="M116.527 171.318C116.621 171.232 116.711 171.146 116.805 171.06L116.794 171.049C116.854 171.109 116.877 171.172 116.866 171.236C116.85 171.303 116.835 171.337 116.817 171.337C116.715 171.408 116.618 171.4 116.527 171.318Z" fill="#F04E34"/>
<path d="M116.527 171.318C116.621 171.326 116.711 171.333 116.805 171.337L116.892 171.442C116.892 171.539 116.854 171.618 116.772 171.67L116.64 171.7L116.531 171.621C116.531 171.52 116.531 171.419 116.531 171.318H116.527Z" fill="#EF3754"/>
<path d="M116.523 171.621C116.617 171.621 116.708 171.617 116.801 171.613C116.832 171.658 116.865 171.707 116.895 171.752C116.865 171.797 116.832 171.845 116.801 171.89C116.708 171.883 116.614 171.879 116.523 171.871C116.523 171.785 116.523 171.703 116.523 171.621Z" fill="#F04E34"/>
<path d="M116.801 172.433C116.794 172.526 116.786 172.616 116.775 172.709C116.693 172.616 116.606 172.519 116.523 172.425C116.621 172.328 116.711 172.328 116.801 172.436V172.433Z" fill="#EF3754"/>
<path d="M116.801 172.433C116.708 172.433 116.617 172.425 116.523 172.422C116.523 172.339 116.523 172.257 116.523 172.175C116.617 172.167 116.708 172.16 116.801 172.152C116.865 172.22 116.888 172.287 116.862 172.351C116.835 172.414 116.813 172.444 116.79 172.444L116.801 172.433Z" fill="#F04E34"/>
<path d="M116.804 171.337C116.804 171.24 116.797 171.142 116.793 171.049C116.887 171.139 116.977 171.228 117.071 171.318C116.981 171.453 116.891 171.46 116.793 171.326L116.804 171.337Z" fill="#EF3754"/>
<path d="M116.793 171.326C116.887 171.326 116.977 171.322 117.071 171.318C117.071 171.419 117.071 171.52 117.071 171.621C116.97 171.733 116.876 171.726 116.793 171.603L116.804 171.614C116.804 171.517 116.797 171.423 116.793 171.326Z" fill="#F04E34"/>
<path d="M116.793 171.604C116.887 171.611 116.977 171.615 117.071 171.622C117.071 171.708 117.075 171.798 117.075 171.884C116.981 172.007 116.891 172.007 116.797 171.884L116.804 171.891C116.8 171.794 116.797 171.701 116.793 171.604Z" fill="#EF3754"/>
<path d="M116.793 172.445C116.797 172.348 116.8 172.251 116.804 172.153L116.797 172.161C116.891 172.064 116.981 172.064 117.075 172.161C116.981 172.254 116.887 172.352 116.793 172.445Z" fill="#EF3754"/>
<path d="M117.075 172.16C116.981 172.16 116.891 172.16 116.797 172.16C116.797 172.066 116.797 171.976 116.797 171.883C116.891 171.883 116.981 171.883 117.075 171.883C117.075 171.976 117.075 172.066 117.075 172.16Z" fill="#F04E34"/>
<path d="M99.9102 184.582C100.181 184.511 100.451 184.436 100.726 184.365C100.688 184.907 101.563 185.603 100.455 185.966C100.5 185.416 100.365 184.937 99.9102 184.582Z" fill="#B42F92"/>
<path d="M105.112 181.808C105.09 181.247 105.187 180.768 105.879 180.697C106.292 181.288 105.65 181.475 105.439 181.827C105.33 181.819 105.221 181.815 105.112 181.808Z" fill="#BE2B8F"/>
<path d="M125.68 168.574C125.447 168.455 125.398 168.245 125.398 168.01C125.601 167.965 125.831 167.733 126.003 167.991C126.229 168.331 125.902 168.44 125.68 168.574Z" fill="#F47729"/>
<path d="M111.212 82.9731C111.452 82.9432 111.52 83.0703 111.508 83.2797C111.497 83.5153 111.448 83.7472 111.208 83.8332C111.02 83.9005 110.836 83.7883 110.813 83.5976C110.779 83.3059 110.93 83.0853 111.212 82.9731Z" fill="#FBFCFD"/>
<path d="M124.347 83.1605C124.309 83.3737 124.189 83.5681 124.012 83.4447C123.809 83.3064 123.689 83.0483 123.531 82.8389C123.636 82.7866 123.738 82.6893 123.843 82.6856C124.159 82.6819 124.317 82.8726 124.343 83.1568L124.347 83.1605Z" fill="#DFE2E4"/>
<path d="M98.7812 183.079C98.18 182.975 97.4548 182.877 96.801 182.522C95.1891 181.64 94.9674 181.038 95.6738 179.344C95.9744 178.629 96.3314 177.938 96.647 177.231C97.3083 175.746 98.4956 175.731 99.7957 176.718C101.032 177.657 102.069 178.85 103.241 179.875C103.831 180.391 103.67 180.705 103.189 181.157C101.975 182.298 100.581 182.993 98.7812 183.079Z" fill="#AAB0D9"/>
<path d="M99.5844 172.46C99.7197 172.539 99.9188 172.654 100.114 172.767C102.256 173.986 103.947 175.736 105.687 177.437C106.37 178.107 105.63 178.368 105.371 178.765C105.021 179.296 104.762 179.034 104.424 178.69C102.951 177.175 101.414 175.728 99.7272 174.453C99.1598 174.027 99.0847 173.5 99.1335 172.883C99.1523 172.643 99.1786 172.419 99.5844 172.46Z" fill="#F9F9F9"/>
<path d="M94.1013 177.937C93.9886 176.718 94.2967 175.611 94.8077 174.5C95.2135 173.618 95.578 174.078 96.0552 174.321C96.6301 174.613 96.7841 174.871 96.2468 175.398C95.4465 176.18 95.0257 177.212 94.5973 178.221C94.2854 178.382 94.2178 178.12 94.1051 177.941L94.1013 177.937Z" fill="#EDE21F"/>
<path d="M97.6686 174.063C97.0035 173.704 96.5226 173.446 96.0078 173.166C96.376 172.489 96.9848 172.212 97.725 171.895C97.9767 172.609 97.7137 173.248 97.6649 174.063H97.6686Z" fill="#DED526"/>
<path d="M94.0983 177.938C94.2636 178.031 94.4289 178.124 94.5905 178.218C94.613 178.446 94.5529 178.715 94.3012 178.659C93.8878 178.566 94.0832 178.207 94.0983 177.938Z" fill="#969734"/>
<path d="M121.234 172.303C121.234 174.722 121.242 176.947 121.23 179.168C121.227 179.811 120.663 180.189 120.411 180.72C120.253 181.053 120.02 181.049 119.761 180.81C119.66 180.716 119.536 180.649 119.442 180.552C118.277 179.411 116.932 178.443 116.098 176.992C117.567 175.257 119.062 173.555 121.238 172.299L121.234 172.303Z" fill="#FDFDFD"/>
<path d="M127.513 175.252C129.028 178.213 127.408 182.159 124.301 183.202C123.395 183.509 122.719 183.026 122.2 182.544C121.693 182.069 122.384 181.538 122.67 181.149C123.94 179.421 125.278 177.739 126.608 176.052C126.856 175.738 127.085 175.375 127.513 175.248V175.252Z" fill="#AAB0D8"/>
<path d="M122.797 178.492C122.797 176.446 122.797 174.494 122.797 172.546C122.797 172.206 122.868 171.88 123.323 171.91C124.521 171.985 125.555 172.441 126.4 173.294C126.577 173.473 126.889 173.664 126.565 173.952C125.1 175.272 124.097 176.981 122.793 178.492H122.797Z" fill="#F4E91B"/>
</g>
</g>
<defs>
<linearGradient id="paint0_linear_742_8406" x1="110.654" y1="221.305" x2="106.75" y2="0.894515" gradientUnits="userSpaceOnUse">
<stop stop-color="#F1DAF2"/>
<stop offset="1" stop-color="#EA74F8"/>
</linearGradient>
<linearGradient id="paint1_linear_742_8406" x1="122.728" y1="135.133" x2="80.8546" y2="51.722" gradientUnits="userSpaceOnUse">
<stop stop-color="#F1A7FA"/>
<stop offset="1" stop-color="#F1DAF2"/>
</linearGradient>
<clipPath id="clip0_742_8406">
<rect width="116.643" height="174.106" fill="white" transform="translate(52.332 24.0469)"/>
</clipPath>
</defs>
</svg>
