<svg width="36" height="46" viewBox="0 0 36 46" fill="none" xmlns="http://www.w3.org/2000/svg">
<g clip-path="url(#clip0_567_8510)">
<path d="M31.1199 35.6102C35.455 31.6736 34.5609 23.6901 29.1239 17.7853C23.6869 11.8756 15.7659 10.2818 11.4308 14.2184L9.52181 15.9514C5.18673 19.888 6.39495 27.5786 11.8319 33.4883C17.2689 39.3979 24.871 41.2797 29.2109 37.3432L31.0087 35.7062C31.0474 35.6726 31.086 35.6438 31.1199 35.6102Z" fill="url(#paint0_linear_567_8510)"/>
<mask id="mask0_567_8510" style="mask-type:luminance" maskUnits="userSpaceOnUse" x="6" y="14" width="26" height="26">
<path d="M29.2109 37.3442C24.8758 41.2807 17.2689 39.3941 11.8319 33.4893C6.39495 27.5796 5.18673 19.889 9.52181 15.9524L11.6434 14.0273L31.3277 35.4143L29.2109 37.3442Z" fill="white"/>
</mask>
<g mask="url(#mask0_567_8510)">
<path d="M0.261951 25.1077L0.000976562 24.8245L10.6671 15.1367L10.9281 15.42L0.261951 25.1077ZM11.3292 15.8568L11.0682 15.5736L0.402104 25.2565L0.663079 25.5398L11.3292 15.852V15.8568ZM11.8173 16.3849L11.5564 16.1017L0.890224 25.7846L1.1512 26.0678L11.8173 16.3801V16.3849ZM12.3683 16.9802L12.1073 16.6969L1.44117 26.3847L1.70214 26.6679L12.3683 16.9802ZM12.9579 17.6187L12.6969 17.3354L2.02595 27.0232L2.28692 27.3064L12.9531 17.6187H12.9579ZM13.6297 18.3484L13.3687 18.0651L2.69771 27.7529L2.95869 28.0361L13.6248 18.3484H13.6297ZM14.3932 19.1789L14.1323 18.8956L3.46131 28.5834L3.72228 28.8666L14.3884 19.1789H14.3932ZM15.2438 20.1006L14.9829 19.8174L4.31672 29.5051L4.5777 29.7884L15.2438 20.1006ZM16.1572 21.0943L15.8963 20.8111L5.23013 30.4989L5.49111 30.7821L16.1572 21.0943ZM17.2301 22.2609L16.9692 21.9777L6.30303 31.6654L6.56401 31.9487L17.2301 22.2609ZM18.4384 23.5715L18.1774 23.2883L7.51125 32.976L7.77222 33.2592L18.4384 23.5715ZM19.7577 25.0021L19.4967 24.7189L8.83062 34.4066L9.09159 34.6898L19.7577 25.0021ZM30.0759 36.2117L29.8149 35.9284L19.1488 45.6162L19.4098 45.8994L30.0759 36.2117ZM29.6748 35.7748L29.4138 35.4916L18.7477 45.1793L19.0086 45.4625L29.6748 35.7748ZM29.1866 35.2467L28.9257 34.9635L18.2595 44.6512L18.5205 44.9345L29.1866 35.2467ZM28.6357 34.6514L28.3747 34.3682L17.7086 44.0559L17.9696 44.3392L28.6357 34.6514ZM28.0461 34.0129L27.7851 33.7297L17.119 43.4175L17.38 43.7007L28.0461 34.0129ZM27.3743 33.2832L27.1133 33L16.4472 42.6877L16.7082 42.971L27.3743 33.2832ZM26.6107 32.4527L26.3498 32.1695L15.6836 41.8572L15.9446 42.1405L26.6107 32.4527ZM25.7601 31.531L25.4992 31.2478L14.833 40.9355L15.094 41.2187L25.7601 31.531ZM24.8467 30.5373L24.5858 30.254L13.9196 39.9418L14.1806 40.225L24.8467 30.5373ZM23.7738 29.3707L23.5129 29.0875L12.8467 38.7752L13.1077 39.0584L23.7738 29.3707ZM22.5656 28.0553L22.3046 27.7721L11.6385 37.4598L11.8995 37.7431L22.5656 28.0553ZM21.2462 26.6247L20.9853 26.3415L10.3191 36.0292L10.5801 36.3125L21.2462 26.6247Z" fill="url(#paint1_linear_567_8510)"/>
<path d="M0.348865 25.1995L0.0878906 24.9163L10.754 15.2285L11.015 15.5118L0.348865 25.1995ZM11.4161 15.9486L11.1551 15.6654L0.489018 25.3531L0.749993 25.6364L11.4161 15.9486ZM11.9042 16.4767L11.6433 16.1934L0.977138 25.8812L1.23811 26.1644L11.9042 16.4767ZM12.4552 17.072L12.1942 16.7887L1.52808 26.4813L1.78906 26.7645L12.4552 17.0768V17.072ZM13.0448 17.7105L12.7838 17.4272L2.11286 27.1198L2.37384 27.403L13.04 17.7153L13.0448 17.7105ZM13.7166 18.4402L13.4556 18.1569L2.78463 27.8495L3.0456 28.1327L13.7117 18.445L13.7166 18.4402ZM14.4802 19.2707L14.2192 18.9874L3.54822 28.6752L3.8092 28.9584L14.4753 19.2707H14.4802ZM15.3307 20.1924L15.0698 19.9092L4.40364 29.5969L4.66461 29.8802L15.3307 20.1924ZM16.2442 21.1861L15.9832 20.9029L5.31705 30.5907L5.57802 30.8739L16.2442 21.1861ZM17.3171 22.3527L17.0561 22.0695L6.38995 31.7572L6.65092 32.0405L17.3171 22.3527ZM18.5253 23.6633L18.2643 23.38L7.59816 33.0678L7.85914 33.351L18.5253 23.6633ZM19.8446 25.0939L19.5837 24.8106L8.91753 34.4984L9.17851 34.7816L19.8446 25.0939ZM30.1628 36.3034L29.9018 36.0202L19.2357 45.708L19.4967 45.9912L30.1628 36.3034ZM29.7617 35.8666L29.5007 35.5833L18.8346 45.2711L19.0955 45.5543L29.7617 35.8666ZM29.2736 35.3385L29.0126 35.0553L18.3464 44.743L18.6074 45.0263L29.2736 35.3385ZM28.7226 34.7432L28.4616 34.46L17.7955 44.1477L18.0565 44.431L28.7226 34.7432ZM28.133 34.1047L27.872 33.8215L17.2059 43.5092L17.4669 43.7925L28.133 34.1047ZM27.4612 33.375L27.2003 33.0918L16.5341 42.7795L16.7951 43.0628L27.4612 33.375ZM26.6976 32.5445L26.4367 32.2613L15.7705 41.949L16.0315 42.2323L26.6976 32.5445ZM25.8471 31.6228L25.5861 31.3396L14.9199 41.0273L15.1809 41.3105L25.8471 31.6228ZM24.9336 30.6291L24.6727 30.3458L14.0065 40.0336L14.2675 40.3168L24.9336 30.6291ZM23.8607 29.4625L23.5998 29.1793L12.9336 38.867L13.1946 39.1502L23.8607 29.4625ZM22.6525 28.1519L22.3916 27.8687L11.7254 37.5564L11.9864 37.8397L22.6525 28.1519ZM21.3332 26.7213L21.0722 26.4381L10.4061 36.1258L10.667 36.4091L21.3332 26.7213Z" fill="url(#paint2_linear_567_8510)"/>
</g>
<path d="M31.1191 35.6109C26.784 39.5474 18.8629 37.9488 13.426 32.044C7.98898 26.1343 7.0949 18.1556 11.43 14.2191C15.7651 10.2825 23.6861 11.8812 29.1231 17.786C34.5601 23.6956 35.4541 31.6743 31.1191 35.6109Z" fill="url(#paint3_linear_567_8510)"/>
<path d="M30.913 35.1793C35.0896 31.387 34.2068 23.674 28.9412 17.9519C23.6756 12.2298 16.0212 10.6653 11.8446 14.4576C7.66801 18.2499 8.55085 25.9629 13.8165 31.6851C19.0821 37.4072 26.7365 38.9717 30.913 35.1793Z" fill="url(#paint4_linear_567_8510)"/>
<path d="M31.1199 35.6102C35.455 31.6736 34.5609 23.6901 29.1239 17.7853C23.6869 11.8756 15.7659 10.2818 11.4308 14.2184L9.52181 15.9514C5.18673 19.888 6.39495 27.5786 11.8319 33.4883C17.2689 39.3979 24.871 41.2797 29.2109 37.3432L31.0087 35.7062C31.0474 35.6726 31.086 35.6438 31.1199 35.6102Z" fill="url(#paint5_linear_567_8510)"/>
<path d="M28.5468 32.6234C31.6182 29.8346 30.8963 24.0837 26.9345 19.7784C22.9727 15.4731 17.2712 14.2437 14.1999 17.0325C11.1285 19.8213 11.8504 25.5722 15.8122 29.8775C19.774 34.1828 25.4755 35.4122 28.5468 32.6234Z" fill="#FFF399"/>
<path d="M28.638 32.5351C31.6562 29.7946 30.8912 24.0828 26.9294 19.7775C22.9676 15.4722 17.3092 14.2037 14.291 16.9442C11.2729 19.6847 12.0379 25.3964 15.9997 29.7017C19.9615 34.007 25.6199 35.2755 28.638 32.5351Z" fill="url(#paint6_linear_567_8510)"/>
<path d="M26.4753 20.1913C30.2836 24.3294 30.9312 29.9798 28.2973 32.817C28.4133 32.7258 28.5293 32.6346 28.6404 32.5338C31.6513 29.7974 30.8829 24.075 26.9296 19.7784C22.9715 15.4818 17.3025 14.2096 14.2917 16.9412C14.1805 17.042 14.0742 17.1476 13.9775 17.2581C17.0609 14.9057 22.667 16.0531 26.4753 20.1913Z" fill="url(#paint7_linear_567_8510)"/>
<path d="M28.638 32.5351C31.6562 29.7946 30.8912 24.0828 26.9294 19.7775C22.9676 15.4722 17.3092 14.2037 14.291 16.9442C11.2729 19.6847 12.0379 25.3964 15.9997 29.7017C19.9615 34.007 25.6199 35.2755 28.638 32.5351Z" fill="url(#paint8_linear_567_8510)"/>
<path style="mix-blend-mode:screen" d="M14.9335 18.6507C14.1505 16.788 15.2911 14.5413 17.4804 13.6388C19.6745 12.7362 22.0813 13.5188 22.869 15.3814C23.652 17.2489 22.5066 19.4908 20.3173 20.3885C18.128 21.291 15.7116 20.5085 14.9335 18.6459V18.6507Z" fill="url(#paint9_radial_567_8510)"/>
<path style="mix-blend-mode:screen" d="M17.5871 34.0319C17.2826 34.0079 17.7127 25.6787 18.5488 15.4293C19.3849 5.17987 19.7232 6.0872 20.0373 1.49776C20.3901 -3.63415 20.4964 5.27589 19.6555 15.5205C18.8194 25.7699 17.8964 34.0607 17.5871 34.0319Z" fill="url(#paint10_radial_567_8510)"/>
<path style="mix-blend-mode:screen" d="M1.80772 15.2844C1.83672 14.982 10.2072 15.6157 20.5061 16.7102C30.8001 17.7952 29.8867 18.112 34.4972 18.5393C39.6539 19.0193 30.6889 18.8993 20.3949 17.8048C10.0961 16.715 1.77389 15.5868 1.80772 15.2844Z" fill="url(#paint11_radial_567_8510)"/>
<path style="mix-blend-mode:screen" d="M13.2423 10.8636C13.3438 10.7724 15.9584 13.4559 19.0804 16.85C22.2024 20.2489 24.6575 23.0813 24.556 23.1677C24.4545 23.2637 21.8448 20.5801 18.7179 17.1813C15.5911 13.7872 13.1408 10.9596 13.2423 10.8636Z" fill="url(#paint12_radial_567_8510)"/>
<path style="mix-blend-mode:screen" d="M12.7445 22.6304C12.6527 22.5296 15.3349 19.9372 18.7324 16.836C22.1347 13.7396 24.9668 11.3104 25.0586 11.4112C25.1553 11.512 22.4682 14.0996 19.0707 17.2008C15.6732 20.3021 12.8411 22.7312 12.7493 22.6304H12.7445Z" fill="url(#paint13_radial_567_8510)"/>
<path style="mix-blend-mode:screen" d="M14.1554 16.5963C14.2231 15.7514 16.4075 15.2569 19.0318 15.4922C21.6512 15.7226 23.7197 16.5963 23.6472 17.4412C23.5747 18.2862 21.395 18.7806 18.7708 18.5454C16.1466 18.3102 14.0781 17.4412 14.1554 16.5963Z" fill="url(#paint14_radial_567_8510)"/>
<path style="mix-blend-mode:screen" d="M18.8972 12.2852C19.7478 12.2852 20.4389 14.4071 20.4437 17.0234C20.4486 19.635 19.7623 21.7569 18.9069 21.7521C18.0563 21.7521 17.3604 19.6302 17.3604 17.0186C17.3604 14.4023 18.0418 12.2852 18.8972 12.29V12.2852Z" fill="url(#paint15_radial_567_8510)"/>
<path style="mix-blend-mode:screen" d="M17.461 15.4535C17.7413 15.1991 18.6161 15.6936 19.4087 16.5577C20.2013 17.4218 20.6169 18.3291 20.3366 18.5788C20.0563 18.8332 19.1864 18.3387 18.389 17.4746C17.5915 16.6105 17.1807 15.708 17.461 15.4487V15.4535Z" fill="url(#paint16_radial_567_8510)"/>
<path style="mix-blend-mode:screen" d="M17.2682 18.362C17.0266 18.0692 17.5582 17.2291 18.4619 16.485C19.3657 15.7457 20.2936 15.376 20.5352 15.6689C20.7817 15.9617 20.2453 16.797 19.3415 17.5411C18.4378 18.2852 17.5099 18.6501 17.2634 18.362H17.2682Z" fill="url(#paint17_radial_567_8510)"/>
<path style="mix-blend-mode:screen" d="M24.0944 22.659C27.2175 19.8242 27.4256 15.0002 24.5592 11.8842C21.6929 8.76827 16.8375 8.54029 13.7144 11.375C10.5913 14.2098 10.3832 19.0338 13.2496 22.1498C16.1159 25.2658 20.9713 25.4937 24.0944 22.659Z" fill="url(#paint18_radial_567_8510)"/>
</g>
<defs>
<linearGradient id="paint0_linear_567_8510" x1="10.673" y1="14.8972" x2="30.2145" y2="36.4187" gradientUnits="userSpaceOnUse">
<stop stop-color="#E8A928"/>
<stop offset="0.4" stop-color="#C8690F"/>
<stop offset="0.6" stop-color="#C8690F"/>
<stop offset="0.96" stop-color="#F8C935"/>
</linearGradient>
<linearGradient id="paint1_linear_567_8510" x1="5.37159" y1="19.9334" x2="24.6314" y2="41.1447" gradientUnits="userSpaceOnUse">
<stop offset="0.03" stop-color="#E8B328"/>
<stop offset="0.4" stop-color="#E1800F"/>
<stop offset="0.6" stop-color="#E1800F"/>
<stop offset="0.92" stop-color="#F8D335"/>
</linearGradient>
<linearGradient id="paint2_linear_567_8510" x1="5.45629" y1="20.0261" x2="24.7194" y2="41.241" gradientUnits="userSpaceOnUse">
<stop stop-color="#D8891B"/>
<stop offset="0.4" stop-color="#B75D0F"/>
<stop offset="0.6" stop-color="#B75D0F"/>
<stop offset="1" stop-color="#E4AF2C"/>
</linearGradient>
<linearGradient id="paint3_linear_567_8510" x1="29.1553" y1="17.7446" x2="13.5531" y2="32.102" gradientUnits="userSpaceOnUse">
<stop stop-color="#F8E765"/>
<stop offset="1" stop-color="#F2B52D" stop-opacity="0.8"/>
</linearGradient>
<linearGradient id="paint4_linear_567_8510" x1="28.9933" y1="17.9046" x2="13.9678" y2="31.7312" gradientUnits="userSpaceOnUse">
<stop stop-color="#FFFF82"/>
<stop offset="1" stop-color="#FFD83B"/>
</linearGradient>
<linearGradient id="paint5_linear_567_8510" x1="7.98358" y1="29.8986" x2="30.4677" y2="19.047" gradientUnits="userSpaceOnUse">
<stop offset="0.22" stop-color="#FFF37D" stop-opacity="0"/>
<stop offset="0.67" stop-color="white" stop-opacity="0.7"/>
<stop offset="1" stop-color="#FFF37D" stop-opacity="0"/>
</linearGradient>
<linearGradient id="paint6_linear_567_8510" x1="26.9831" y1="19.7288" x2="16.1274" y2="29.7184" gradientUnits="userSpaceOnUse">
<stop stop-color="#F8E253"/>
<stop offset="1" stop-color="#F7C332"/>
</linearGradient>
<linearGradient id="paint7_linear_567_8510" x1="21.1709" y1="24.9952" x2="26.9268" y2="19.6985" gradientUnits="userSpaceOnUse">
<stop stop-color="#F8C935"/>
<stop offset="1" stop-color="#C8690F"/>
</linearGradient>
<linearGradient id="paint8_linear_567_8510" x1="14.1588" y1="27.1716" x2="28.049" y2="20.4676" gradientUnits="userSpaceOnUse">
<stop offset="0.22" stop-color="#FFF37D" stop-opacity="0"/>
<stop offset="0.29" stop-color="#FFF381" stop-opacity="0.02"/>
<stop offset="0.37" stop-color="#FFF48D" stop-opacity="0.06"/>
<stop offset="0.44" stop-color="#FFF6A1" stop-opacity="0.14"/>
<stop offset="0.52" stop-color="#FFF9BE" stop-opacity="0.25"/>
<stop offset="0.6" stop-color="#FFFCE2" stop-opacity="0.39"/>
<stop offset="0.64" stop-color="white" stop-opacity="0.5"/>
<stop offset="0.67" stop-color="#FFFDEE" stop-opacity="0.44"/>
<stop offset="0.76" stop-color="#FFF9BE" stop-opacity="0.25"/>
<stop offset="0.85" stop-color="#FFF59A" stop-opacity="0.11"/>
<stop offset="0.91" stop-color="#FFF384" stop-opacity="0.03"/>
<stop offset="0.96" stop-color="#FFF37D" stop-opacity="0"/>
</linearGradient>
<radialGradient id="paint9_radial_567_8510" cx="0" cy="0" r="1" gradientUnits="userSpaceOnUse" gradientTransform="translate(27.5664 12.2775) rotate(157.665) scale(4.27009 3.67363)">
<stop stop-color="#FBB040"/>
<stop offset="0.05" stop-color="#E09D39"/>
<stop offset="0.18" stop-color="#A5742A"/>
<stop offset="0.3" stop-color="#72501D"/>
<stop offset="0.43" stop-color="#493312"/>
<stop offset="0.54" stop-color="#291D0A"/>
<stop offset="0.66" stop-color="#120D04"/>
<stop offset="0.76" stop-color="#040301"/>
<stop offset="0.86"/>
</radialGradient>
<radialGradient id="paint10_radial_567_8510" cx="0" cy="0" r="1" gradientUnits="userSpaceOnUse" gradientTransform="translate(12.712 17.5748) rotate(94.671) scale(17.855 0.583543)">
<stop stop-color="#FBB040"/>
<stop offset="0.05" stop-color="#E09D39"/>
<stop offset="0.18" stop-color="#A5742A"/>
<stop offset="0.3" stop-color="#72501D"/>
<stop offset="0.43" stop-color="#493312"/>
<stop offset="0.54" stop-color="#291D0A"/>
<stop offset="0.66" stop-color="#120D04"/>
<stop offset="0.76" stop-color="#040301"/>
<stop offset="0.86"/>
</radialGradient>
<radialGradient id="paint11_radial_567_8510" cx="0" cy="0" r="1" gradientUnits="userSpaceOnUse" gradientTransform="translate(13.1522 65.9198) rotate(-173.96) scale(17.9874 0.580204)">
<stop stop-color="#FBB040"/>
<stop offset="0.05" stop-color="#E09D39"/>
<stop offset="0.18" stop-color="#A5742A"/>
<stop offset="0.3" stop-color="#72501D"/>
<stop offset="0.43" stop-color="#493312"/>
<stop offset="0.54" stop-color="#291D0A"/>
<stop offset="0.66" stop-color="#120D04"/>
<stop offset="0.76" stop-color="#040301"/>
<stop offset="0.86"/>
</radialGradient>
<radialGradient id="paint12_radial_567_8510" cx="0" cy="0" r="1" gradientUnits="userSpaceOnUse" gradientTransform="translate(-5.67504 43.6365) rotate(-132.611) scale(8.32034 0.270297)">
<stop stop-color="#FBB040"/>
<stop offset="0.05" stop-color="#E09D39"/>
<stop offset="0.18" stop-color="#A5742A"/>
<stop offset="0.3" stop-color="#72501D"/>
<stop offset="0.43" stop-color="#493312"/>
<stop offset="0.54" stop-color="#291D0A"/>
<stop offset="0.66" stop-color="#120D04"/>
<stop offset="0.76" stop-color="#040301"/>
<stop offset="0.86"/>
</radialGradient>
<radialGradient id="paint13_radial_567_8510" cx="0" cy="0" r="1" gradientUnits="userSpaceOnUse" gradientTransform="translate(14.4376 21.6528) rotate(137.651) scale(8.36232 0.271342)">
<stop stop-color="#FBB040"/>
<stop offset="0.05" stop-color="#E09D39"/>
<stop offset="0.18" stop-color="#A5742A"/>
<stop offset="0.3" stop-color="#72501D"/>
<stop offset="0.43" stop-color="#493312"/>
<stop offset="0.54" stop-color="#291D0A"/>
<stop offset="0.66" stop-color="#120D04"/>
<stop offset="0.76" stop-color="#040301"/>
<stop offset="0.86"/>
</radialGradient>
<radialGradient id="paint14_radial_567_8510" cx="0" cy="0" r="1" gradientUnits="userSpaceOnUse" gradientTransform="translate(11.2465 12.1306) rotate(-174.914) scale(4.77945 1.5194)">
<stop stop-color="#FBB040"/>
<stop offset="0.05" stop-color="#E09D39"/>
<stop offset="0.18" stop-color="#A5742A"/>
<stop offset="0.3" stop-color="#72501D"/>
<stop offset="0.43" stop-color="#493312"/>
<stop offset="0.54" stop-color="#291D0A"/>
<stop offset="0.66" stop-color="#120D04"/>
<stop offset="0.76" stop-color="#040301"/>
<stop offset="0.86"/>
</radialGradient>
<radialGradient id="paint15_radial_567_8510" cx="0" cy="0" r="1" gradientUnits="userSpaceOnUse" gradientTransform="translate(29.6763 14.9443) rotate(-90.0604) scale(4.74786 1.5295)">
<stop stop-color="#FBB040"/>
<stop offset="0.05" stop-color="#E09D39"/>
<stop offset="0.18" stop-color="#A5742A"/>
<stop offset="0.3" stop-color="#72501D"/>
<stop offset="0.43" stop-color="#493312"/>
<stop offset="0.54" stop-color="#291D0A"/>
<stop offset="0.66" stop-color="#120D04"/>
<stop offset="0.76" stop-color="#040301"/>
<stop offset="0.86"/>
</radialGradient>
<radialGradient id="paint16_radial_567_8510" cx="0" cy="0" r="1" gradientUnits="userSpaceOnUse" gradientTransform="translate(22.3648 11.0718) rotate(-132.611) scale(2.12838 0.681477)">
<stop stop-color="#FBB040"/>
<stop offset="0.05" stop-color="#E09D39"/>
<stop offset="0.18" stop-color="#A5742A"/>
<stop offset="0.3" stop-color="#72501D"/>
<stop offset="0.43" stop-color="#493312"/>
<stop offset="0.54" stop-color="#291D0A"/>
<stop offset="0.66" stop-color="#120D04"/>
<stop offset="0.76" stop-color="#040301"/>
<stop offset="0.86"/>
</radialGradient>
<radialGradient id="paint17_radial_567_8510" cx="0" cy="0" r="1" gradientUnits="userSpaceOnUse" gradientTransform="translate(19.8501 8.79537) rotate(140.538) scale(2.10904 0.68085)">
<stop stop-color="#FBB040"/>
<stop offset="0.05" stop-color="#E09D39"/>
<stop offset="0.18" stop-color="#A5742A"/>
<stop offset="0.3" stop-color="#72501D"/>
<stop offset="0.43" stop-color="#493312"/>
<stop offset="0.54" stop-color="#291D0A"/>
<stop offset="0.66" stop-color="#120D04"/>
<stop offset="0.76" stop-color="#040301"/>
<stop offset="0.86"/>
</radialGradient>
<radialGradient id="paint18_radial_567_8510" cx="0" cy="0" r="1" gradientUnits="userSpaceOnUse" gradientTransform="translate(17.8065 15.548) rotate(47.3692) scale(7.62271 7.62709)">
<stop stop-color="#FBB040"/>
<stop offset="0.05" stop-color="#E09D39"/>
<stop offset="0.18" stop-color="#A5742A"/>
<stop offset="0.3" stop-color="#72501D"/>
<stop offset="0.43" stop-color="#493312"/>
<stop offset="0.54" stop-color="#291D0A"/>
<stop offset="0.66" stop-color="#120D04"/>
<stop offset="0.76" stop-color="#040301"/>
<stop offset="0.86"/>
</radialGradient>
<clipPath id="clip0_567_8510">
<rect width="36" height="46" fill="white"/>
</clipPath>
</defs>
</svg>
