<svg width="39" height="44" viewBox="0 0 39 44" fill="none" xmlns="http://www.w3.org/2000/svg">
<path d="M33.0504 31.9803C35.8424 27.8426 33.4607 21.3985 27.731 17.5806C22.0006 13.7661 15.0952 14.025 12.3032 18.1628L10.5466 20.6841C7.75464 24.8219 10.3415 30.9652 16.0684 34.779C21.7953 38.5929 28.4984 38.6388 31.2903 34.501L32.9746 32.0816C32.9989 32.0465 33.0261 32.0155 33.0504 31.9803Z" fill="url(#paint0_linear_567_8450)"/>
<mask id="mask0_567_8450" style="mask-type:luminance" maskUnits="userSpaceOnUse" x="9" y="17" width="25" height="21">
<path d="M31.2946 34.5021C28.5026 38.6399 21.7995 38.594 16.0727 34.7801C10.3458 30.9663 7.75889 24.8229 10.5509 20.6852L12.4445 17.9623L33.1847 31.7786L31.294 34.5056L31.2946 34.5021Z" fill="white"/>
</mask>
<g mask="url(#mask0_567_8450)">
<path d="M5.26988 29.4335L4.99536 29.2485L11.8638 19.0743L12.1383 19.2593L5.26988 29.4335ZM12.5588 19.5384L12.2843 19.3534L5.4159 29.5275L5.69041 29.7125L12.5588 19.5384ZM13.073 19.8807L12.7985 19.6957L5.93007 29.8698L6.20459 30.0548L13.073 19.8807ZM13.6517 20.2667L13.3772 20.0817L6.5088 30.2559L6.78332 30.4409L13.6517 20.2667ZM14.2729 20.6782L13.9984 20.4932L7.13002 30.6674L7.40453 30.8524L14.2729 20.6782ZM14.9814 21.1483L14.7069 20.9633L7.83848 31.1374L8.11299 31.3224L14.9814 21.1483ZM15.7835 21.6816L15.509 21.4966L8.64057 31.6707L8.91509 31.8557L15.7835 21.6816ZM16.6792 22.2781L16.4047 22.0931L9.5363 32.2672L9.81082 32.4522L16.6792 22.2781ZM17.643 22.919L17.3685 22.734L10.5001 32.9081L10.7746 33.0931L17.643 22.919ZM18.7749 23.6722L18.5004 23.4872L11.632 33.6613L11.9065 33.8463L18.7749 23.6722ZM20.0493 24.5188L19.7748 24.3338L12.9064 34.508L13.1809 34.693L20.0493 24.5188ZM21.44 25.4435L21.1655 25.2585L14.2971 35.4326L14.5716 35.6176L21.44 25.4435ZM32.3115 32.6845L32.037 32.4995L25.1686 42.6736L25.4431 42.8586L32.3115 32.6845ZM31.891 32.4054L31.6164 32.2204L24.7481 42.3946L25.0226 42.5796L31.891 32.4054ZM31.3768 32.0631L31.1023 31.8781L24.2339 42.0523L24.5084 42.2373L31.3768 32.0631ZM30.7981 31.6771L30.5235 31.4921L23.6551 41.6662L23.9297 41.8512L30.7981 31.6771ZM30.1775 31.2621L29.9029 31.0771L23.0346 41.2512L23.3091 41.4362L30.1775 31.2621ZM29.469 30.792L29.1945 30.607L22.3261 40.7812L22.6006 40.9662L29.469 30.792ZM28.6669 30.2587L28.3924 30.0737L21.524 40.2479L21.7985 40.4329L28.6669 30.2587ZM27.7712 29.6622L27.4967 29.4772L20.6283 39.6514L20.9028 39.8364L27.7712 29.6622ZM26.8074 29.0213L26.5329 28.8363L19.6645 39.0105L19.939 39.1955L26.8074 29.0213ZM25.6755 28.2681L25.401 28.0831L18.5326 38.2573L18.8071 38.4423L25.6755 28.2681ZM24.4011 27.4215L24.1266 27.2365L17.2582 37.4107L17.5327 37.5957L24.4011 27.4215ZM23.0104 26.4968L22.7359 26.3118L15.8675 36.486L16.142 36.671L23.0104 26.4968Z" fill="url(#paint1_linear_567_8450)"/>
<path d="M5.35972 29.496L5.08521 29.311L11.9536 19.1368L12.2281 19.3218L5.35972 29.496ZM12.6487 19.6009L12.3741 19.4159L5.50574 29.59L5.78026 29.775L12.6487 19.6009ZM13.1628 19.9432L12.8883 19.7582L6.01992 29.9323L6.29443 30.1173L13.1628 19.9432ZM13.7416 20.3292L13.467 20.1442L6.59865 30.3184L6.87316 30.5034L13.7416 20.3292ZM14.3628 20.7407L14.0883 20.5557L7.21986 30.7299L7.49438 30.9149L14.3628 20.7407ZM15.0712 21.2108L14.7967 21.0258L7.92832 31.1999L8.20284 31.3849L15.0712 21.2108ZM15.8733 21.7441L15.5988 21.5591L8.73041 31.7332L9.00493 31.9182L15.8733 21.7441ZM16.7691 22.3406L16.4945 22.1556L9.62614 32.3297L9.90066 32.5147L16.7691 22.3406ZM17.7328 22.9815L17.4583 22.7965L10.5899 32.9706L10.8645 33.1556L17.7328 22.9815ZM18.8647 23.7347L18.5902 23.5497L11.7218 33.7238L11.9963 33.9088L18.8647 23.7347ZM20.1391 24.5813L19.8646 24.3963L12.9962 34.5705L13.2707 34.7555L20.1391 24.5813ZM21.5299 25.506L21.2553 25.321L14.3869 35.4951L14.6615 35.6801L21.5299 25.506ZM32.4013 32.747L32.1268 32.562L25.2584 42.7361L25.533 42.9211L32.4013 32.747ZM31.9808 32.4679L31.7063 32.2829L24.8379 42.4571L25.1124 42.6421L31.9808 32.4679ZM31.4666 32.1256L31.1921 31.9406L24.3237 42.1148L24.5982 42.2998L31.4666 32.1256ZM30.8879 31.7396L30.6134 31.5546L23.745 41.7287L24.0195 41.9137L30.8879 31.7396ZM30.2667 31.328L29.9922 31.143L23.1238 41.3172L23.3983 41.5022L30.2667 31.328ZM29.5582 30.858L29.2837 30.673L22.4153 40.8472L22.6898 41.0322L29.5582 30.858ZM28.7561 30.3247L28.4816 30.1397L21.6132 40.3139L21.8877 40.4989L28.7561 30.3247ZM27.8604 29.7282L27.5859 29.5432L20.7175 39.7174L20.992 39.9024L27.8604 29.7282ZM26.8966 29.0873L26.6221 28.9023L19.7537 39.0765L20.0282 39.2615L26.8966 29.0873ZM25.7647 28.3341L25.4902 28.1491L18.6218 38.3233L18.8963 38.5083L25.7647 28.3341ZM24.4903 27.4875L24.2158 27.3025L17.3474 37.4766L17.6219 37.6616L24.4903 27.4875ZM23.0996 26.5628L22.8251 26.3778L15.9567 36.552L16.2312 36.737L23.0996 26.5628Z" fill="url(#paint2_linear_567_8450)"/>
</g>
<path d="M33.0523 31.9792C35.8431 27.8434 33.4615 21.398 27.7328 17.583C22.0042 13.768 15.0978 14.0281 12.3071 18.1638C9.51628 22.2996 11.8979 28.745 17.6265 32.56C23.3552 36.375 30.2615 36.115 33.0523 31.9792Z" fill="url(#paint3_linear_567_8450)"/>
<path d="M32.796 31.6625C30.1072 35.6464 23.4308 35.8779 17.882 32.1817C12.3331 28.4855 10.0138 22.2606 12.7025 18.2766C15.3913 14.2926 22.0677 14.0612 27.62 17.758C33.1689 21.4542 35.4882 27.6792 32.7995 31.6631L32.796 31.6625Z" fill="url(#paint4_linear_567_8450)"/>
<path d="M33.0504 31.9803C35.8424 27.8426 33.4607 21.3985 27.731 17.5806C22.0006 13.7661 15.0952 14.025 12.3032 18.1628L10.5466 20.6841C7.75464 24.8219 10.3415 30.9652 16.0684 34.779C21.7953 38.5929 28.4984 38.6388 31.2903 34.501L32.9746 32.0816C32.9989 32.0465 33.0261 32.0155 33.0504 31.9803Z" fill="url(#paint5_linear_567_8450)"/>
<path d="M30.3037 30.012C32.2807 27.0821 30.4982 22.4526 26.3222 19.6716C22.1463 16.8906 17.1583 17.0113 15.1813 19.9411C13.2043 22.871 14.9868 27.5005 19.1628 30.2815C23.3387 33.0625 28.3267 32.9418 30.3037 30.012Z" fill="#FFF399"/>
<path d="M19.2863 30.097C15.1182 27.3201 13.3054 22.7236 15.2436 19.8508C17.1819 16.978 22.1533 16.8994 26.3214 19.6763C30.4894 22.4531 32.3023 27.0497 30.364 29.9225C28.4257 32.7952 23.4543 32.8738 19.2863 30.097Z" fill="url(#paint6_linear_567_8450)"/>
<path d="M26.0285 20.1086C30.0448 22.7832 31.7416 27.3412 30.1373 30.2267C30.2161 30.1295 30.2919 30.0282 30.3648 29.9228C32.3031 27.05 30.4902 22.4534 26.3222 19.6766C22.1541 16.8997 17.1827 16.9783 15.2445 19.8511C15.1715 19.9565 15.1085 20.0672 15.046 20.1745C17.1254 17.6065 22.0123 17.434 26.0285 20.1086Z" fill="url(#paint7_linear_567_8450)"/>
<path d="M19.2863 30.097C15.1182 27.3201 13.3054 22.7236 15.2436 19.8508C17.1819 16.978 22.1533 16.8994 26.3214 19.6763C30.4894 22.4531 32.3023 27.0497 30.364 29.9225C28.4257 32.7952 23.4543 32.8738 19.2863 30.097Z" fill="url(#paint8_linear_567_8450)"/>
<defs>
<linearGradient id="paint0_linear_567_8450" x1="11.5427" y1="19.2306" x2="32.2443" y2="33.1998" gradientUnits="userSpaceOnUse">
<stop stop-color="#E8A928"/>
<stop offset="0.4" stop-color="#C8690F"/>
<stop offset="0.6" stop-color="#C8690F"/>
<stop offset="0.96" stop-color="#F8C935"/>
</linearGradient>
<linearGradient id="paint1_linear_567_8450" x1="8.46167" y1="24.1346" x2="28.8272" y2="37.877" gradientUnits="userSpaceOnUse">
<stop offset="0.03" stop-color="#E8B328"/>
<stop offset="0.4" stop-color="#E1800F"/>
<stop offset="0.6" stop-color="#E1800F"/>
<stop offset="0.92" stop-color="#F8D335"/>
</linearGradient>
<linearGradient id="paint2_linear_567_8450" x1="8.55312" y1="24.1956" x2="28.9187" y2="37.938" gradientUnits="userSpaceOnUse">
<stop stop-color="#D8891B"/>
<stop offset="0.4" stop-color="#B75D0F"/>
<stop offset="0.6" stop-color="#B75D0F"/>
<stop offset="1" stop-color="#E4AF2C"/>
</linearGradient>
<linearGradient id="paint3_linear_567_8450" x1="27.7563" y1="17.5609" x2="17.7427" y2="32.5975" gradientUnits="userSpaceOnUse">
<stop stop-color="#F8E765"/>
<stop offset="1" stop-color="#F2B52D" stop-opacity="0.8"/>
</linearGradient>
<linearGradient id="paint4_linear_567_8450" x1="27.6481" y1="17.7318" x2="18.0037" y2="32.2138" gradientUnits="userSpaceOnUse">
<stop stop-color="#FFFF82"/>
<stop offset="1" stop-color="#FFD83B"/>
</linearGradient>
<linearGradient id="paint5_linear_567_8450" x1="12.0217" y1="32.4859" x2="29.1019" y2="18.3607" gradientUnits="userSpaceOnUse">
<stop offset="0.22" stop-color="#FFF37D" stop-opacity="0"/>
<stop offset="0.67" stop-color="white" stop-opacity="0.7"/>
<stop offset="1" stop-color="#FFF37D" stop-opacity="0"/>
</linearGradient>
<linearGradient id="paint6_linear_567_8450" x1="26.3545" y1="19.6494" x2="19.386" y2="30.1134" gradientUnits="userSpaceOnUse">
<stop stop-color="#F8E253"/>
<stop offset="1" stop-color="#F7C332"/>
</linearGradient>
<linearGradient id="paint7_linear_567_8450" x1="22.6274" y1="25.1742" x2="26.3216" y2="19.6271" gradientUnits="userSpaceOnUse">
<stop stop-color="#F8C935"/>
<stop offset="1" stop-color="#C8690F"/>
</linearGradient>
<linearGradient id="paint8_linear_567_8450" x1="17.231" y1="28.3962" x2="27.3636" y2="20.0171" gradientUnits="userSpaceOnUse">
<stop offset="0.22" stop-color="#FFF37D" stop-opacity="0"/>
<stop offset="0.29" stop-color="#FFF381" stop-opacity="0.02"/>
<stop offset="0.37" stop-color="#FFF48D" stop-opacity="0.06"/>
<stop offset="0.44" stop-color="#FFF6A1" stop-opacity="0.14"/>
<stop offset="0.52" stop-color="#FFF9BE" stop-opacity="0.25"/>
<stop offset="0.6" stop-color="#FFFCE2" stop-opacity="0.39"/>
<stop offset="0.64" stop-color="white" stop-opacity="0.5"/>
<stop offset="0.67" stop-color="#FFFDEE" stop-opacity="0.44"/>
<stop offset="0.76" stop-color="#FFF9BE" stop-opacity="0.25"/>
<stop offset="0.85" stop-color="#FFF59A" stop-opacity="0.11"/>
<stop offset="0.91" stop-color="#FFF384" stop-opacity="0.03"/>
<stop offset="0.96" stop-color="#FFF37D" stop-opacity="0"/>
</linearGradient>
</defs>
</svg>
