<svg width="35" height="36" viewBox="0 0 35 36" fill="none" xmlns="http://www.w3.org/2000/svg">
<path d="M28.7128 15.3016C27.9614 11.9098 23.5671 10.0251 18.8947 11.0888C14.2237 12.1544 11.0463 15.7647 11.7977 19.1565L12.2291 21.2512C12.9806 24.643 17.3214 26.28 21.9903 25.2159C26.6593 24.1517 29.8937 20.7896 29.1422 17.3978L28.7276 15.3884C28.7216 15.3593 28.7189 15.3307 28.7128 15.3016Z" fill="url(#paint0_linear_567_8490)"/>
<mask id="mask0_567_8490" style="mask-type:luminance" maskUnits="userSpaceOnUse" x="11" y="15" width="19" height="11">
<path d="M29.1445 17.397C29.896 20.7888 26.6616 24.1509 21.9927 25.2151C17.3237 26.2793 12.9829 24.6422 12.2314 21.2504L11.7639 18.99L28.675 15.138L29.146 17.399L29.1445 17.397Z" fill="white"/>
</mask>
<g mask="url(#mask0_567_8490)">
<path d="M14.1188 28.1083L13.8939 28.1582L12.0478 19.8166L12.2727 19.7667L14.1188 28.1083ZM12.615 19.688L12.3901 19.738L14.2362 28.0796L14.4611 28.0297L12.615 19.688ZM13.0342 19.5924L12.8092 19.6424L14.6553 27.984L14.8803 27.9341L13.0342 19.5924ZM13.5063 19.4852L13.2814 19.5352L15.1275 27.8768L15.3524 27.8268L13.5063 19.4852ZM14.0117 19.3687L13.7868 19.4187L15.6328 27.7603L15.8578 27.7103L14.0117 19.3687ZM14.5884 19.2362L14.3634 19.2862L16.2095 27.6278L16.4345 27.5779L14.5884 19.2362ZM15.2418 19.0868L15.0169 19.1367L16.863 27.4783L17.0879 27.4284L15.2418 19.0868ZM15.9721 18.9203L15.7472 18.9703L17.5933 27.3119L17.8182 27.2619L15.9721 18.9203ZM16.7574 18.7408L16.5325 18.7907L18.3786 27.1323L18.6035 27.0824L16.7574 18.7408ZM17.6799 18.5302L17.455 18.5801L19.3011 26.9217L19.526 26.8718L17.6799 18.5302ZM18.7178 18.2924L18.4929 18.3423L20.339 26.6839L20.5639 26.634L18.7178 18.2924ZM19.8509 18.0332L19.626 18.0832L21.4721 26.4248L21.697 26.3748L19.8509 18.0332ZM28.7147 16.0136L28.4898 16.0635L30.3359 24.4052L30.5608 24.3552L28.7147 16.0136ZM28.3724 16.0922L28.1474 16.1422L29.9935 24.4838L30.2185 24.4338L28.3724 16.0922ZM27.9532 16.1878L27.7283 16.2378L29.5744 24.5794L29.7993 24.5294L27.9532 16.1878ZM27.4811 16.295L27.2562 16.345L29.1023 24.6866L29.3272 24.6367L27.4811 16.295ZM26.9743 16.4095L26.7493 16.4595L28.5954 24.8011L28.8204 24.7512L26.9743 16.4095ZM26.3976 16.542L26.1726 16.592L28.0187 24.9336L28.2437 24.8837L26.3976 16.542ZM25.7441 16.6915L25.5192 16.7415L27.3653 25.0831L27.5902 25.0331L25.7441 16.6915ZM25.0138 16.8579L24.7889 16.9079L26.635 25.2495L26.8599 25.1996L25.0138 16.8579ZM24.2285 17.0375L24.0036 17.0875L25.8497 25.4291L26.0746 25.3791L24.2285 17.0375ZM23.306 17.2481L23.0811 17.2981L24.9272 25.6397L25.1521 25.5897L23.306 17.2481ZM22.2681 17.4859L22.0432 17.5359L23.8893 25.8775L24.1142 25.8275L22.2681 17.4859ZM21.135 17.745L20.9101 17.795L22.7562 26.1366L22.9811 26.0867L21.135 17.745Z" fill="url(#paint1_linear_567_8490)"/>
<path d="M14.194 28.0927L13.969 28.1426L12.123 19.801L12.3479 19.751L14.194 28.0927ZM12.6902 19.6724L12.4653 19.7224L14.3114 28.064L14.5363 28.014L12.6902 19.6724ZM13.1094 19.5768L12.8844 19.6268L14.7305 27.9684L14.9555 27.9184L13.1094 19.5768ZM13.5815 19.4696L13.3566 19.5195L15.2027 27.8612L15.4276 27.8112L13.5815 19.4696ZM14.0869 19.3531L13.8619 19.4031L15.708 27.7447L15.933 27.6947L14.0869 19.3531ZM14.6636 19.2206L14.4386 19.2706L16.2847 27.6122L16.5097 27.5622L14.6636 19.2206ZM15.317 19.0711L15.0921 19.1211L16.9382 27.4627L17.1631 27.4128L15.317 19.0711ZM16.0473 18.9047L15.8224 18.9547L17.6685 27.2963L17.8934 27.2463L16.0473 18.9047ZM16.8326 18.7251L16.6077 18.7751L18.4538 27.1167L18.6787 27.0668L16.8326 18.7251ZM17.7551 18.5145L17.5302 18.5645L19.3763 26.9061L19.6012 26.8562L17.7551 18.5145ZM18.793 18.2767L18.5681 18.3267L20.4142 26.6683L20.6391 26.6184L18.793 18.2767ZM19.9261 18.0176L19.7012 18.0676L21.5473 26.4092L21.7722 26.3592L19.9261 18.0176ZM28.7899 15.998L28.565 16.0479L30.4111 24.3895L30.636 24.3396L28.7899 15.998ZM28.4476 16.0766L28.2226 16.1265L30.0687 24.4682L30.2936 24.4182L28.4476 16.0766ZM28.0284 16.1722L27.8035 16.2221L29.6496 24.5638L29.8745 24.5138L28.0284 16.1722ZM27.5563 16.2794L27.3314 16.3294L29.1775 24.671L29.4024 24.621L27.5563 16.2794ZM27.0509 16.3959L26.826 16.4459L28.6721 24.7875L28.897 24.7375L27.0509 16.3959ZM26.4742 16.5284L26.2493 16.5783L28.0954 24.92L28.3203 24.87L26.4742 16.5284ZM25.8207 16.6778L25.5958 16.7278L27.4419 25.0694L27.6668 25.0195L25.8207 16.6778ZM25.0905 16.8443L24.8655 16.8943L26.7116 25.2359L26.9366 25.1859L25.0905 16.8443ZM24.3052 17.0238L24.0803 17.0738L25.9264 25.4154L26.1513 25.3655L24.3052 17.0238ZM23.3827 17.2345L23.1578 17.2844L25.0039 25.626L25.2288 25.5761L23.3827 17.2345ZM22.3447 17.4723L22.1198 17.5222L23.9659 25.8638L24.1908 25.8139L22.3447 17.4723ZM21.2117 17.7314L20.9868 17.7814L22.8329 26.123L23.0578 26.073L21.2117 17.7314Z" fill="url(#paint2_linear_567_8490)"/>
</g>
<path d="M28.7124 15.3014C27.9614 11.9112 23.5665 10.0258 18.896 11.0903C14.2256 12.1548 11.0483 15.7661 11.7993 19.1563C12.5504 22.5466 16.9453 24.432 21.6157 23.3675C26.2861 22.3029 29.4634 18.6917 28.7124 15.3014Z" fill="url(#paint3_linear_567_8490)"/>
<path d="M28.4306 15.2787C29.1539 18.5448 26.0723 22.0262 21.548 23.0569C17.0237 24.0876 12.7699 22.2764 12.0467 19.0104C11.3234 15.7443 14.405 12.2629 18.9313 11.2307C23.4556 10.2 27.7094 12.0113 28.4326 15.2773L28.4306 15.2787Z" fill="url(#paint4_linear_567_8490)"/>
<path d="M28.7128 15.3016C27.9614 11.9098 23.5671 10.0251 18.8947 11.0888C14.2237 12.1544 11.0463 15.7647 11.7977 19.1565L12.2291 21.2512C12.9806 24.643 17.3214 26.28 21.9903 25.2159C26.6593 24.1517 29.8937 20.7896 29.1422 17.3978L28.7276 15.3884C28.7216 15.3593 28.7189 15.3307 28.7128 15.3016Z" fill="url(#paint5_linear_567_8490)"/>
<path d="M26.4027 15.7475C25.8707 13.3458 22.6795 12.0279 19.2749 12.8039C15.8704 13.5799 13.5417 16.1559 14.0738 18.5576C14.6058 20.9593 17.797 22.2772 21.2016 21.5012C24.6061 20.7252 26.9347 18.1492 26.4027 15.7475Z" fill="#FFF399"/>
<path d="M21.1676 21.3482C17.7689 22.1222 14.5798 20.8353 14.058 18.4806C13.5362 16.1258 15.8782 13.5783 19.2769 12.8043C22.6755 12.0303 25.8646 13.3171 26.3864 15.6719C26.9082 18.0267 24.5662 20.5742 21.1676 21.3482Z" fill="url(#paint6_linear_567_8490)"/>
<path d="M19.3543 13.1608C22.6286 12.4145 25.7426 13.7414 26.4308 15.9337C26.4195 15.8473 26.4047 15.7605 26.3864 15.6732C25.8646 13.3184 22.6755 12.0316 19.2769 12.8056C15.8782 13.5796 13.5363 16.1271 14.058 18.4819C14.0763 18.5692 14.102 18.6541 14.1263 18.737C13.826 16.4569 16.08 13.9071 19.3543 13.1608Z" fill="url(#paint7_linear_567_8490)"/>
<path d="M21.1676 21.3482C17.7689 22.1222 14.5798 20.8353 14.058 18.4806C13.5362 16.1258 15.8782 13.5783 19.2769 12.8043C22.6755 12.0303 25.8646 13.3171 26.3864 15.6719C26.9082 18.0267 24.5662 20.5742 21.1676 21.3482Z" fill="url(#paint8_linear_567_8490)"/>
<defs>
<linearGradient id="paint0_linear_567_8490" x1="11.9725" y1="20.052" x2="28.9423" y2="16.2928" gradientUnits="userSpaceOnUse">
<stop stop-color="#E8A928"/>
<stop offset="0.4" stop-color="#C8690F"/>
<stop offset="0.6" stop-color="#C8690F"/>
<stop offset="0.96" stop-color="#F8C935"/>
</linearGradient>
<linearGradient id="paint1_linear_567_8490" x1="12.9727" y1="23.9584" x2="29.667" y2="20.2602" gradientUnits="userSpaceOnUse">
<stop offset="0.03" stop-color="#E8B328"/>
<stop offset="0.4" stop-color="#E1800F"/>
<stop offset="0.6" stop-color="#E1800F"/>
<stop offset="0.92" stop-color="#F8D335"/>
</linearGradient>
<linearGradient id="paint2_linear_567_8490" x1="13.0479" y1="23.9412" x2="29.7422" y2="20.243" gradientUnits="userSpaceOnUse">
<stop stop-color="#D8891B"/>
<stop offset="0.4" stop-color="#B75D0F"/>
<stop offset="0.6" stop-color="#B75D0F"/>
<stop offset="1" stop-color="#E4AF2C"/>
</linearGradient>
<linearGradient id="paint3_linear_567_8490" x1="18.8961" y1="11.0679" x2="21.6903" y2="23.3267" gradientUnits="userSpaceOnUse">
<stop stop-color="#F8E765"/>
<stop offset="1" stop-color="#F2B52D" stop-opacity="0.8"/>
</linearGradient>
<linearGradient id="paint4_linear_567_8490" x1="18.9315" y1="11.204" x2="21.6226" y2="23.0108" gradientUnits="userSpaceOnUse">
<stop stop-color="#FFFF82"/>
<stop offset="1" stop-color="#FFD83B"/>
</linearGradient>
<linearGradient id="paint5_linear_567_8490" x1="18.894" y1="26.1603" x2="19.9453" y2="10.7704" gradientUnits="userSpaceOnUse">
<stop offset="0.22" stop-color="#FFF37D" stop-opacity="0"/>
<stop offset="0.67" stop-color="white" stop-opacity="0.7"/>
<stop offset="1" stop-color="#FFF37D" stop-opacity="0"/>
</linearGradient>
<linearGradient id="paint6_linear_567_8490" x1="19.2791" y1="12.7746" x2="21.2236" y2="21.3057" gradientUnits="userSpaceOnUse">
<stop stop-color="#F8E253"/>
<stop offset="1" stop-color="#F7C332"/>
</linearGradient>
<linearGradient id="paint7_linear_567_8490" x1="20.2824" y1="17.3046" x2="19.2516" y2="12.7822" gradientUnits="userSpaceOnUse">
<stop stop-color="#F8C935"/>
<stop offset="1" stop-color="#C8690F"/>
</linearGradient>
<linearGradient id="paint8_linear_567_8490" x1="19.3243" y1="21.571" x2="19.9483" y2="12.4414" gradientUnits="userSpaceOnUse">
<stop offset="0.22" stop-color="#FFF37D" stop-opacity="0"/>
<stop offset="0.29" stop-color="#FFF381" stop-opacity="0.02"/>
<stop offset="0.37" stop-color="#FFF48D" stop-opacity="0.06"/>
<stop offset="0.44" stop-color="#FFF6A1" stop-opacity="0.14"/>
<stop offset="0.52" stop-color="#FFF9BE" stop-opacity="0.25"/>
<stop offset="0.6" stop-color="#FFFCE2" stop-opacity="0.39"/>
<stop offset="0.64" stop-color="white" stop-opacity="0.5"/>
<stop offset="0.67" stop-color="#FFFDEE" stop-opacity="0.44"/>
<stop offset="0.76" stop-color="#FFF9BE" stop-opacity="0.25"/>
<stop offset="0.85" stop-color="#FFF59A" stop-opacity="0.11"/>
<stop offset="0.91" stop-color="#FFF384" stop-opacity="0.03"/>
<stop offset="0.96" stop-color="#FFF37D" stop-opacity="0"/>
</linearGradient>
</defs>
</svg>
