<svg fill="none" xmlns="http://www.w3.org/2000/svg" viewBox="0 0 141 140"><g clip-path="url(#a)"><path d="M140.7 73.5a66 66 0 1 1-132 0 66 66 0 0 1 132 0Z" fill="#202165"/><path d="M136.8 68.5a66.9 66.9 0 1 1-133.7 0 66.9 66.9 0 0 1 133.7 0Z" fill="url(#b)"/><g clip-path="url(#c)"><path d="M122.6 15.2H15.2v107.5h107.4V15.2Z" fill="#2A2A8D"/><path d="M82.4 96.2s4.9-14.5 9-15.2c4.2-.7 17 8 17 8s-10.3-12.4-6.3-17.2c3-3.6 16.7-1.6 16.7-1.6s-12.2-4.7-13.1-9c-1-4.3 6.3-11.6 10.9-14.6 0 0-14 4.6-17.6 2-3.5-2.6 2.3-19.6 2.3-19.6s-8.6 16.2-14.8 16.8c-6.7.7-20.6-13.5-20.6-13.5S71.6 45.6 69 49c-2.6 3.2-16 .5-16 .5S65.1 54.9 64 61c-.8 5-15 10.8-15 10.8s13.2-.2 16.2 2.8-2.6 13.7-5 17.2c3-2.6 13.2-10.8 16-10 2.8 1 6 11 6.2 14.3Z" fill="#7F99FF"/><path d="M53.8 121.4V103l29 15 29-15v18.4l-29 14.7-29-14.7Z" fill="url(#d)"/><path fill-rule="evenodd" clip-rule="evenodd" d="M53.4 102.5h.6l28.8 14.8 28.6-14.8a.6.6 0 0 1 1 .5v18.4c0 .3-.2.5-.4.6l-29 14.7h-.5l-29-14.7a.6.6 0 0 1-.4-.6V103c0-.2.1-.4.3-.5Zm1 1.6v17l28.4 14.3L111 121v-17l-28 14.6h-.6l-28.1-14.5Z" fill="#1C0347"/><path d="m82.8 118-32-15.1 32-10.7 32 10.7-32 15.1Z" fill="url(#e)"/><path fill-rule="evenodd" clip-rule="evenodd" d="M82.6 91.6h.4l32 10.7a.6.6 0 0 1 0 1.2l-32 15c-.1.2-.3.2-.5 0l-32-15a.6.6 0 0 1 0-1.2l32-10.7ZM52.4 103l30.4 14.3L113 103 82.8 92.9 52.4 103Z" fill="#1C0347"/><path d="M82.9 85c-16.1 0-25 16-25 16s9.6 6.5 25 6.5c15.3 0 25-6.5 25-6.5s-9-16-25-16Z" fill="url(#f)"/><path fill-rule="evenodd" clip-rule="evenodd" d="m58.7 100.8 1.2.6a51.3 51.3 0 0 0 47.1-.7h-.1a33 33 0 0 0-6-7.2c-4.1-4-10.2-7.8-18-7.8-7.9 0-14 3.8-18.2 7.8a39 39 0 0 0-6 7.1v.2Zm49.1.2.6-.3-.2-.2a27 27 0 0 0-1.5-2.4 40.1 40.1 0 0 0-5-5.5c-4.2-4-10.6-8.2-18.8-8.2-8.3 0-14.7 4-19 8.1a40.2 40.2 0 0 0-6.6 8.1l.5.4-.5-.3-.3.5.5.3.3-.5-.3.5a17.4 17.4 0 0 0 1.8 1 52.5 52.5 0 0 0 48.8-1l-.3-.5Zm0 0 .4.5.4-.3-.2-.5-.6.3Z" fill="#1C0347"/><path fill-rule="evenodd" clip-rule="evenodd" d="M86 88.7c0-.3.3-.4.5-.4v.4-.4a1.4 1.4 0 0 1 .1 0 23.8 23.8 0 0 1 4 1c1.9.8 3.3 1.6 4 2.2a.4.4 0 1 1-.6.6 14.8 14.8 0 0 0-7.6-3 .4.4 0 0 1-.4-.4ZM96 93c0-.3.4-.3.6-.2 1.2.7 2.3 1.6 2.8 2l.2.3a.4.4 0 1 1-.5.6l-.2-.2c-.6-.5-1.6-1.3-2.8-2a.4.4 0 0 1-.1-.6Zm-12.8-4.7c0 .2.2.4.4.4a9.1 9.1 0 0 0 .6 0 .4.4 0 0 0 .2-.8h-.3a8 8 0 0 1-.4 0c-.2 0-.5.1-.5.4Z" fill="#fff"/><path fill-rule="evenodd" clip-rule="evenodd" d="M82.2 132.9v-15.7h1.2v15.7h-1.2Z" fill="#1C0347"/><path d="M73.3 91.6c5.2-4.5 12.1-5.7 12.1-5.7s-6-1.2-13.6 2.6a36 36 0 0 0-13 12.3 66.4 66.4 0 0 0 8 3.5s-1.1-6 6.5-12.7Zm-10 16.5 3-2.5s-2.9-1-4.7-1.8a58 58 0 0 1-4.3-2.4l-4.7 1.6 10.7 5.1Zm-8.9 16.2v-19.2l8.5 4v19l-8.5-3.8Z" fill="#66093B" fill-opacity=".4"/><path fill-rule="evenodd" clip-rule="evenodd" d="M3160.5 442.2C2279-31.2 1171.6 231.5 618 1073.9c-554 842.3-356 1963 428 2584.7a1999.8 1999.8 0 0 1-152.8-91C-9.1 2974.3-265.4 1770.5 320.9 878.6 907-13.2 2113.9-255.3 3016.3 338c50.1 32.9 98.2 67.7 144.2 104.2Z" fill="#010101" fill-opacity=".4"/></g><path d="m58.9 11.5 13.6-3.7c2-.5 4-.2 5.7.8.8.5 2.6 1.8 3.2 2.5 0 0 7.3-5 12 2.3 3.4 5.2.8 8.6-1.1 9.7 2.2-.9 4.4.6 8.2 2.8 2.4 5.8-.1 8.9-1.3 10 2 .7 5 2 5.7 4 1.3 3.7-1.8 7-2.6 8 2.3.6 4.2 3.3 4.4 5.8l-.2.8c.1 2.5-3.6 4-5.1 6.8-8.9 10.6-22.2 13.7-31 16.5l-2.5 1a359.6 359.6 0 0 0-42.3 21.9l-.4-.6s-2.5-3.5-3.7-5.8l-1.7-3.7a50.2 50.2 0 0 1-4.6-22c.3-9.9 2.1-14.6 2.1-14.6s8.3-.6 16.6-3.5c10.4-3.6 12.4-13 12.4-13v.1l.1-.1h-.1l6.3-19.8a8.9 8.9 0 0 1 6.3-6.2Z" fill="url(#g)"/><path d="M59 19.7c-8.6 8.8-14 29.6-14 29.6v-5S53.5 14 56.2 13a135 135 0 0 1 15-4.5c5.2-1.4 7.2-.1 7.2-.1S65 13.5 59 19.7Z" fill="#66093B" fill-opacity=".4"/><path d="M44.7 49.2s-.5 1.2-4.8 5.8c-2 2.2-5.6 3.8-9.7 5.1-2.4.8-3 1.2-5.7 1.8a61 61 0 0 0-.8 19.4A61.9 61.9 0 0 0 29 98.1s-3 2-3.6 2.2c0 0-5.8-7-8.7-19a57.7 57.7 0 0 1-.6-21.5l.4-2.4c.3-1.7 1-3.4 1-3.4l10.9-1.2s9.3-2.9 10.7-3.6a42 42 0 0 0 5.4-5l.6 3.9c.1.6-.3 1-.3 1Zm33-13.4 2.2-7-4-2-3-3.4s-.3 1.6-.2 2.8c.2 1.4 1.7 1.5 2.4 2.8 1 1.9-.8 4.8-.2 7 .8 2.8 1.5 3.6 1.8 6.5.3 2.8.2 3.9 1.4 6.4.6 1.1 1.3 1.5 2.2 2.5 1.8 2.1 1.8 4.6 3.2 7 1.3 2.4 1.9 3 3.7 5 3 3.6 11.4 1.7 11.4 1.7l5-5.6 1.8-2.4-4.5 2-6.7 1.7-3.4.6-2.8-2.7-.8-3 1.5-2.2-.5-.7-3.4-.8-4-4.1 1.5-6.2-4.6-5.9Z" fill="#66093B" fill-opacity=".4"/><path fill-rule="evenodd" clip-rule="evenodd" d="m50 29.1-3.7 11.4a17.1 17.1 0 0 1-7.4 8.8l-1.8.7-3.2 1.1-6.2 2.2-3.1 1a29.8 29.8 0 0 1-4.9.8l-2.8.3.1-.5.3-1 2.7-.2 1.6-.2L24 53c2.3-.4 2.3-.5 2.6-.6l7-2.4 3.1-1.2 1.6-.6c2-1 5.4-4 6.8-8.1a474 474 0 0 0 3.7-11.3l2.3-7a68.8 68.8 0 0 1 3.5-8.3c.4-.5.8-1 1.3-1.1a142.6 142.6 0 0 1 18.4-5 20.9 20.9 0 0 1 3.5-.3c.3 0 .5 0 .8.2L80 8.4l2 2a126.8 126.8 0 0 1 10.8 14l.4.9.2.8a4.6 4.6 0 0 1-1.8 3.2c-1 .8-2.2 1.2-3.5 1.4A20.8 20.8 0 0 1 74.7 27a12.2 12.2 0 0 1-4-8.4 27.4 27.4 0 0 1-.2-2h.7-.7a.6.6 0 0 1 1.3 0m0 0a3.7 3.7 0 0 0 0 .2 22.1 22.1 0 0 0 .8 5 11 11 0 0 0 2.9 4.3c1.2 1 2.8 1.8 4.7 2.4 2.4.8 5.4 1.2 7.7 1a6 6 0 0 0 3-1.1c.6-.6 1-1.3 1.2-2.4v-.3l-.4-.7a99.6 99.6 0 0 0-14-16.7h-.8l-2.4.3a141.7 141.7 0 0 0-18.2 5l-.7.6-1 1.8-2.3 6.2-2.3 7" fill="#1C0347"/><path fill-rule="evenodd" clip-rule="evenodd" d="M82.6 11.4a79.2 79.2 0 0 0-.8-1 2.2 2.2 0 0 1 .1 0 6.8 6.8 0 0 1 1-.7c.8-.3 1.8-.7 3-.9 2.4-.4 5.5.1 8.4 3.5a7 7 0 0 1 1.8 4.4c0 1.5-.4 2.8-1 3.8a12.3 12.3 0 0 1-2.8 3.6l-.5-.5-.4-.5a5.8 5.8 0 0 0 .3-.2 11.6 11.6 0 0 0 2.3-3c.6-1 .9-2 .9-3.1 0-1.2-.5-2.4-1.6-3.7-2.5-3-5.2-3.4-7.2-3a8.9 8.9 0 0 0-3.5 1.3Z" fill="#1C0347"/><path fill-rule="evenodd" clip-rule="evenodd" d="m80.4 29.1.3.5-.3-.5a.6.6 0 0 1 .6 1.1l-.3-.5.3.5a3.5 3.5 0 0 0-.1.1 6.7 6.7 0 0 0-1.7 1.6c-.8 1-1.5 2.6-.8 4.6.7 2 2 2.9 3 3.2a5 5 0 0 0 2 .2l15.5-5a5.1 5.1 0 0 0 .5-.6c.3-.3.7-.9 1-1.6a5.5 5.5 0 0 0 0-5.3 6 6 0 0 0-4.8-3.5 8.5 8.5 0 0 0-3 .2.6.6 0 0 1-.4-1.2l.2.5a54 54 0 0 1-.2-.5 4.7 4.7 0 0 1 .3 0 9 9 0 0 1 3.3-.2c2 .2 4.3 1.3 5.8 4.2a7 7 0 0 1 0 6.4 9.1 9.1 0 0 1-2 2.5l-.4-.4.4.5h-.2l-15.7 5.2-.2-.6.1.6a2.8 2.8 0 0 1-.2 0l-.5.1c-.5 0-1.1 0-1.8-.3a6 6 0 0 1-3.9-4 6 6 0 0 1 1-5.8 8.5 8.5 0 0 1 2.2-2Z" fill="#1C0347"/><path fill-rule="evenodd" clip-rule="evenodd" d="M84 41a4.5 4.5 0 0 0-.1 0 9 9 0 0 0-1.7 2.2c-.8 1.3-1.3 3-.4 4.8a6.2 6.2 0 0 0 3.9 3.2 9.4 9.4 0 0 0 2.5.4l14.4-4.9a10 10 0 0 0 1.5-2.2c.6-1.4 1-3.1.3-4.7-.5-1-1.7-2-2.8-2.8a19 19 0 0 0-2-1.2.6.6 0 1 1 .6-1.1l-.3.5.3-.5h.2a17.4 17.4 0 0 1 2 1.3c1 .8 2.4 2 3 3.2 1.1 2.2.5 4.3-.2 5.9a12 12 0 0 1-1.7 2.6l-.5-.4.4.4-.2.2-14.7 5h-.2v-.7.6a3.4 3.4 0 0 1-.3 0 9.3 9.3 0 0 1-2.7-.4 7.5 7.5 0 0 1-4.6-3.9 6.2 6.2 0 0 1 .4-6 11 11 0 0 1 2-2.5h.1l.4.4-.4-.4a.6.6 0 0 1 .8 1Z" fill="#1C0347"/><path fill-rule="evenodd" clip-rule="evenodd" d="M89.9 51.5c.2.2.2.6 0 .9l-.5-.5.4.5a1.8 1.8 0 0 0-.1 0 7.1 7.1 0 0 0-1.3 1.7c-.6 1-1 2.3-.3 3.7.6 1.4 1.8 2 3 2.4a7.2 7.2 0 0 0 1.9.3l11.3-3.8a7.6 7.6 0 0 0 1.1-1.7c.6-1.1.9-2.4.3-3.6a6.5 6.5 0 0 0-2.1-2.2 14.7 14.7 0 0 0-1.5-.8v-.1a.6.6 0 1 1 .5-1.1l-.3.5.3-.5a7.7 7.7 0 0 1 .5.3l1.2.7c.9.6 2 1.6 2.5 2.6.8 1.7.4 3.5-.2 4.7a9.6 9.6 0 0 1-1.4 2.1l-.5-.4.4.4-.2.2-11.6 4H93v-.6.6a4.8 4.8 0 0 1-.7 0l-1.7-.4a6 6 0 0 1-3.8-3 5 5 0 0 1 .4-5 8.8 8.8 0 0 1 1.7-2l.4.5-.4-.5c.3-.2.7-.2.9 0Z" fill="#1C0347"/><path fill-rule="evenodd" clip-rule="evenodd" d="m25.6 100.7.3.4.4-.2.2-.1-.2.1a484.6 484.6 0 0 1 14-8 177 177 0 0 1 25.1-12.2l7.3-2.3a63.7 63.7 0 0 0 28.7-15.8 28 28 0 0 0 3.6-5 .6.6 0 0 0-1-.6 26.7 26.7 0 0 1-8.2 8.9c-8 6.5-14.7 8.5-23.3 11.2L65 79.5c-6.7 2.3-16.9 7.6-25.3 12.3a514 514 0 0 0-14 8c-.4.3.3-.2.1 0h-.2l-.4.3.2.4.2.2Z" fill="#1C0347"/><path fill-rule="evenodd" clip-rule="evenodd" d="M58.8 67.6a.6.6 0 0 1 .6.6l.1.3.4 1.1c.5 1 1.3 2.5 3 4.4a20 20 0 0 0 5.3 4.5.6.6 0 0 1-.3 1.2l.2-.6-.2.6a3.4 3.4 0 0 1-.6-.2l-1.2-.8c-1-.7-2.6-2-4.2-3.9a19.6 19.6 0 0 1-3.6-6 4.6 4.6 0 0 1-.1-.5h.6-.6c0-.4.2-.7.6-.7Zm7.1-42.8Zm-.3.5-.3.6a1.2 1.2 0 0 0 .1 0l.3.1 1 .3a6.2 6.2 0 0 0 5.7-1.9 3.9 3.9 0 0 0 .6-1l-.6-.3.6.2a.6.6 0 0 0-1.2-.3.9.9 0 0 1 0 .1l-.4.5c-.3.4-1 .9-2 1.3a5 5 0 0 1-3.5-.1.6.6 0 0 0-.6 1l.3-.5Zm.3-.5Zm-20 14.8c.3.2.5.5.4.8v.1a12.8 12.8 0 0 0-.4 1.2l-.6 3c-.2 2.5 0 5.5 1.5 7.8a16 16 0 0 0 6 4.9 21.7 21.7 0 0 0 3.5 1.4m0 0A.6.6 0 0 1 56 60l.1-.6-.1.6a11.8 11.8 0 0 1-1.1-.4 23 23 0 0 1-2.7-1 17 17 0 0 1-6.4-5.4c-1.9-2.7-2-6-1.7-8.6a22.7 22.7 0 0 1 1-4.6l.5.2-.5-.2c.1-.3.5-.5.8-.4m22.3 15.9a1.8 1.8 0 0 0 .2 0l.6.1h2.3c1.7-.3 4-1 6-3.1 1.8-2 2.6-5 2.8-7.7a25 25 0 0 0 0-4.6m0 0a.6.6 0 0 1 1.2-.2l-.5.1h.5a13.5 13.5 0 0 1 .1 1.4v3.4c-.3 2.7-1 6.1-3.3 8.4A11.1 11.1 0 0 1 69 57a9.9 9.9 0 0 1-1-.2l.2-.6-.2.6a.6.6 0 0 1 .3-1.2m6.4 5.8c0-.3.1-.7.4-.8a9.5 9.5 0 0 0 .7-.3l1.6-.7a8.8 8.8 0 0 0 3.4-2.8 14.1 14.1 0 0 0 1.8-5.2v-.1m0 0a.6.6 0 0 1 1.3.1h-.6.6a1.5 1.5 0 0 1 0 .2 11.8 11.8 0 0 1-.4 1.7c-.3 1.1-.8 2.6-1.7 4a10 10 0 0 1-3.8 3.2 18.4 18.4 0 0 1-2.5 1l-.2-.5.2.6c-.3 0-.6 0-.8-.4" fill="#1C0347"/></g><defs><linearGradient id="b" x1="124.8" y1="161.3" x2="22.3" y2="17.8" gradientUnits="userSpaceOnUse"><stop stop-color="#4F71FA"/><stop offset="1" stop-color="#21236A"/></linearGradient><linearGradient id="d" x1="82.7" y1="103" x2="82.7" y2="136.1" gradientUnits="userSpaceOnUse"><stop stop-color="#F17768"/><stop offset="1" stop-color="#F94FCC"/></linearGradient><linearGradient id="e" x1="82.8" y1="92.2" x2="82.8" y2="118" gradientUnits="userSpaceOnUse"><stop stop-color="#F17768"/><stop offset="1" stop-color="#F94FCC"/></linearGradient><radialGradient id="f" cx="0" cy="0" r="1" gradientUnits="userSpaceOnUse" gradientTransform="matrix(.03235 18.53397 -41.20364 .07191 82.8 89)"><stop stop-color="#FB48C3"/><stop offset="1" stop-color="#97186F"/></radialGradient><radialGradient id="g" cx="0" cy="0" r="1" gradientUnits="userSpaceOnUse" gradientTransform="matrix(58.18281 -54.20625 31.97346 34.31903 19.9 101.3)"><stop stop-color="#10F8FF"/><stop offset="1" stop-color="#967CFF"/></radialGradient><clipPath id="a"><path fill="#fff" transform="translate(.7)" d="M0 0h140v140H0z"/></clipPath><clipPath id="c"><rect x="15.2" y="15.2" width="107.4" height="107.4" rx="53.7" fill="#fff"/></clipPath></defs></svg>