<svg width="76" height="37" viewBox="0 0 76 37" fill="none" xmlns="http://www.w3.org/2000/svg">
<rect width="76" height="36" rx="18" fill="#E2017B" fill-opacity="0.6"/>
<path d="M17.334 16H15.0586L12.4219 11.6543V16H10.4883V8.67578H12.7637L15.4004 13.0361V8.67578H17.334V16ZM17.9688 15.1602L18.877 13.6855C19.1146 13.8711 19.3359 14.0225 19.541 14.1396C19.7493 14.2568 19.9512 14.3431 20.1465 14.3984C20.3451 14.4505 20.5469 14.4766 20.752 14.4766C20.9538 14.4766 21.1263 14.4538 21.2695 14.4082C21.4128 14.3594 21.5218 14.291 21.5967 14.2031C21.6748 14.112 21.7139 14.0046 21.7139 13.8809C21.7139 13.7246 21.6585 13.5911 21.5479 13.4805C21.4372 13.3698 21.2891 13.2705 21.1035 13.1826C20.9212 13.0947 20.721 13.0068 20.5029 12.9189C20.2686 12.8245 20.0293 12.7204 19.7852 12.6064C19.541 12.4893 19.3164 12.3477 19.1113 12.1816C18.9062 12.0156 18.7402 11.8138 18.6133 11.5762C18.4863 11.3353 18.4229 11.0423 18.4229 10.6973C18.4229 10.2415 18.5368 9.85254 18.7646 9.53027C18.9958 9.20475 19.3099 8.95736 19.707 8.78809C20.1074 8.61556 20.5599 8.5293 21.0645 8.5293C21.4323 8.5293 21.8213 8.57812 22.2314 8.67578C22.6416 8.77344 23.0566 8.92643 23.4766 9.13477L22.7246 10.6875C22.4902 10.5443 22.2331 10.4303 21.9531 10.3457C21.6764 10.2578 21.4225 10.2139 21.1914 10.2139C21.0319 10.2139 20.8919 10.235 20.7715 10.2773C20.6543 10.3197 20.5632 10.3815 20.498 10.4629C20.4329 10.541 20.4004 10.6338 20.4004 10.7412C20.4004 10.8844 20.4557 11.0114 20.5664 11.1221C20.6771 11.2295 20.8236 11.3288 21.0059 11.4199C21.1882 11.5111 21.3867 11.6038 21.6016 11.6982C21.8359 11.7992 22.0752 11.9115 22.3193 12.0352C22.5667 12.1589 22.793 12.3053 22.998 12.4746C23.2064 12.6439 23.374 12.8473 23.501 13.085C23.6279 13.3193 23.6914 13.6009 23.6914 13.9297C23.6914 14.3691 23.571 14.7565 23.3301 15.0918C23.0924 15.4238 22.7588 15.6826 22.3291 15.8682C21.9027 16.0537 21.4062 16.1465 20.8398 16.1465C20.3125 16.1465 19.8047 16.0618 19.3164 15.8926C18.8281 15.7233 18.3789 15.4792 17.9688 15.1602ZM24.4238 16V8.67578H29.1113V10.3604H26.3574V11.4932H28.916V13.1777H26.3574V16H24.4238ZM38.1104 16H36.2988L35.0488 11.8252L33.7939 16H31.9824L29.5996 8.67578H31.6309L32.8857 12.8848L34.1406 8.67578H35.9521L37.2021 12.875L38.4521 8.67578H40.4834L38.1104 16ZM14.2139 28.1465C13.6637 28.1465 13.1543 28.0521 12.6855 27.8633C12.2201 27.6745 11.8148 27.4092 11.4697 27.0674C11.1279 26.7223 10.8626 26.3187 10.6738 25.8564C10.485 25.391 10.3906 24.8848 10.3906 24.3379C10.3906 23.7878 10.485 23.2816 10.6738 22.8193C10.8626 22.3538 11.1279 21.9502 11.4697 21.6084C11.8148 21.2666 12.2201 21.0013 12.6855 20.8125C13.1543 20.6237 13.6637 20.5293 14.2139 20.5293C14.7673 20.5293 15.2751 20.6237 15.7373 20.8125C16.2028 21.0013 16.6064 21.2666 16.9482 21.6084C17.2933 21.9502 17.5602 22.3538 17.749 22.8193C17.9378 23.2816 18.0322 23.7878 18.0322 24.3379C18.0322 24.8848 17.9378 25.391 17.749 25.8564C17.5602 26.3187 17.2933 26.7223 16.9482 27.0674C16.6064 27.4092 16.2028 27.6745 15.7373 27.8633C15.2751 28.0521 14.7673 28.1465 14.2139 28.1465ZM14.2139 27.1992C14.6045 27.1992 14.9658 27.1276 15.2979 26.9844C15.6299 26.8411 15.918 26.641 16.1621 26.3838C16.4062 26.1234 16.5951 25.8206 16.7285 25.4756C16.8652 25.1273 16.9336 24.748 16.9336 24.3379C16.9336 23.9277 16.8652 23.5485 16.7285 23.2002C16.5951 22.8519 16.4062 22.5492 16.1621 22.292C15.918 22.0316 15.6299 21.8314 15.2979 21.6914C14.9658 21.5482 14.6045 21.4766 14.2139 21.4766C13.8232 21.4766 13.4619 21.5482 13.1299 21.6914C12.8011 21.8314 12.513 22.0316 12.2656 22.292C12.0215 22.5492 11.8311 22.8519 11.6943 23.2002C11.5576 23.5485 11.4893 23.9277 11.4893 24.3379C11.4893 24.748 11.5576 25.1273 11.6943 25.4756C11.8311 25.8239 12.0215 26.1283 12.2656 26.3887C12.513 26.6458 12.8011 26.846 13.1299 26.9893C13.4619 27.1292 13.8232 27.1992 14.2139 27.1992ZM25.5957 28H24.4141L20.2051 22.3457V28H19.1309V20.6758H20.3125L24.5215 26.335V20.6758H25.5957V28Z" fill="white"/>
<g filter="url(#filter0_d_753_8088)">
<rect x="43" y="4" width="27" height="27" rx="13.5" fill="white"/>
<path d="M63.2984 15.6988C63.2416 15.5587 63.0365 15.5801 63.0087 15.7287C62.9159 16.2233 62.6697 16.9244 62.0179 17.3723C61.6789 17.6054 61.3324 17.6995 61.0762 17.7394C61.0818 16.8369 60.9992 13.2459 58.2551 10.3801C57.0331 9.10387 55.6964 8.40278 54.7401 8.01777C54.5719 7.95006 54.393 8.08521 54.4094 8.26525C54.4622 8.84525 54.4783 9.63184 54.3279 10.5302C53.716 14.1868 51.13 15.0185 50.2758 18.0302C49.6383 20.2776 50.0447 23.4588 52.1397 25.3594C54.4039 27.4135 58.0765 27.4596 60.5464 25.9389C63.5968 24.061 64.9291 19.7221 63.2984 15.6988Z" fill="#FF7344" shape-rendering="geometricPrecision"/>
<path d="M53.1623 22.4706C53.194 22.3689 53.3402 22.3463 53.4034 22.4348C53.5833 22.6869 53.9318 23.0604 54.5182 23.2556C54.5251 23.2579 54.5308 23.2598 54.5327 23.2605C55.0592 23.4327 55.5913 23.387 56.0881 23.233C55.9246 22.978 54.8448 21.2308 55.6469 19.356C55.8837 18.8026 56.2235 18.3806 56.5344 18.0762C56.6856 17.9281 56.9577 18.0082 56.9843 18.2098C57.0253 18.5194 57.1032 18.8862 57.2504 19.2813C57.9547 21.1715 59.3826 21.3996 59.8542 22.8675C60.1877 23.9054 59.978 25.3609 58.9237 26.2398C57.803 27.1741 56.0019 27.2283 54.7268 26.5064C53.3324 25.7171 52.6686 24.0575 53.1623 22.4706Z" fill="#FFDD55" shape-rendering="geometricPrecision"/>
</g>
<defs>
<filter id="filter0_d_753_8088" x="39" y="2" width="35" height="35" filterUnits="userSpaceOnUse" color-interpolation-filters="sRGB">
<feFlood flood-opacity="0" result="BackgroundImageFix"/>
<feColorMatrix in="SourceAlpha" type="matrix" values="0 0 0 0 0 0 0 0 0 0 0 0 0 0 0 0 0 0 127 0" result="hardAlpha"/>
<feOffset dy="1"/>
<feGaussianBlur stdDeviation="0.5"/>
<feComposite in2="hardAlpha" operator="out"/>
<feColorMatrix type="matrix" values="0 0 0 0 0 0 0 0 0 0 0 0 0 0 0 0 0 0 0.16 0"/>
<feBlend mode="normal" in2="BackgroundImageFix" result="effect1_dropShadow_753_8088"/>
<feBlend mode="normal" in="SourceGraphic" in2="effect1_dropShadow_753_8088" result="shape"/>
</filter>
</defs>
</svg>
