<svg width="76" height="36" viewBox="0 0 76 36" fill="none" xmlns="http://www.w3.org/2000/svg">
<rect width="76" height="36" rx="18" fill="#525252" fill-opacity="0.5"/>
<path d="M42.334 16H40.0586L37.4219 11.6543V16H35.4883V8.67578H37.7637L40.4004 13.0361V8.67578H42.334V16ZM42.9688 15.1602L43.877 13.6855C44.1146 13.8711 44.3359 14.0225 44.541 14.1396C44.7493 14.2568 44.9512 14.3431 45.1465 14.3984C45.3451 14.4505 45.5469 14.4766 45.752 14.4766C45.9538 14.4766 46.1263 14.4538 46.2695 14.4082C46.4128 14.3594 46.5218 14.291 46.5967 14.2031C46.6748 14.112 46.7139 14.0046 46.7139 13.8809C46.7139 13.7246 46.6585 13.5911 46.5479 13.4805C46.4372 13.3698 46.2891 13.2705 46.1035 13.1826C45.9212 13.0947 45.721 13.0068 45.5029 12.9189C45.2686 12.8245 45.0293 12.7204 44.7852 12.6064C44.541 12.4893 44.3164 12.3477 44.1113 12.1816C43.9062 12.0156 43.7402 11.8138 43.6133 11.5762C43.4863 11.3353 43.4229 11.0423 43.4229 10.6973C43.4229 10.2415 43.5368 9.85254 43.7646 9.53027C43.9958 9.20475 44.3099 8.95736 44.707 8.78809C45.1074 8.61556 45.5599 8.5293 46.0645 8.5293C46.4323 8.5293 46.8213 8.57812 47.2314 8.67578C47.6416 8.77344 48.0566 8.92643 48.4766 9.13477L47.7246 10.6875C47.4902 10.5443 47.2331 10.4303 46.9531 10.3457C46.6764 10.2578 46.4225 10.2139 46.1914 10.2139C46.0319 10.2139 45.8919 10.235 45.7715 10.2773C45.6543 10.3197 45.5632 10.3815 45.498 10.4629C45.4329 10.541 45.4004 10.6338 45.4004 10.7412C45.4004 10.8844 45.4557 11.0114 45.5664 11.1221C45.6771 11.2295 45.8236 11.3288 46.0059 11.4199C46.1882 11.5111 46.3867 11.6038 46.6016 11.6982C46.8359 11.7992 47.0752 11.9115 47.3193 12.0352C47.5667 12.1589 47.793 12.3053 47.998 12.4746C48.2064 12.6439 48.374 12.8473 48.501 13.085C48.6279 13.3193 48.6914 13.6009 48.6914 13.9297C48.6914 14.3691 48.571 14.7565 48.3301 15.0918C48.0924 15.4238 47.7588 15.6826 47.3291 15.8682C46.9027 16.0537 46.4062 16.1465 45.8398 16.1465C45.3125 16.1465 44.8047 16.0618 44.3164 15.8926C43.8281 15.7233 43.3789 15.4792 42.9688 15.1602ZM49.4238 16V8.67578H54.1113V10.3604H51.3574V11.4932H53.916V13.1777H51.3574V16H49.4238ZM63.1104 16H61.2988L60.0488 11.8252L58.7939 16H56.9824L54.5996 8.67578H56.6309L57.8857 12.8848L59.1406 8.67578H60.9521L62.2021 12.875L63.4521 8.67578H65.4834L63.1104 16ZM39.2139 28.1465C38.6637 28.1465 38.1543 28.0521 37.6855 27.8633C37.2201 27.6745 36.8148 27.4092 36.4697 27.0674C36.1279 26.7223 35.8626 26.3187 35.6738 25.8564C35.485 25.391 35.3906 24.8848 35.3906 24.3379C35.3906 23.7878 35.485 23.2816 35.6738 22.8193C35.8626 22.3538 36.1279 21.9502 36.4697 21.6084C36.8148 21.2666 37.2201 21.0013 37.6855 20.8125C38.1543 20.6237 38.6637 20.5293 39.2139 20.5293C39.7673 20.5293 40.2751 20.6237 40.7373 20.8125C41.2028 21.0013 41.6064 21.2666 41.9482 21.6084C42.2933 21.9502 42.5602 22.3538 42.749 22.8193C42.9378 23.2816 43.0322 23.7878 43.0322 24.3379C43.0322 24.8848 42.9378 25.391 42.749 25.8564C42.5602 26.3187 42.2933 26.7223 41.9482 27.0674C41.6064 27.4092 41.2028 27.6745 40.7373 27.8633C40.2751 28.0521 39.7673 28.1465 39.2139 28.1465ZM39.2139 27.1992C39.6045 27.1992 39.9658 27.1276 40.2979 26.9844C40.6299 26.8411 40.918 26.641 41.1621 26.3838C41.4062 26.1234 41.5951 25.8206 41.7285 25.4756C41.8652 25.1273 41.9336 24.748 41.9336 24.3379C41.9336 23.9277 41.8652 23.5485 41.7285 23.2002C41.5951 22.8519 41.4062 22.5492 41.1621 22.292C40.918 22.0316 40.6299 21.8314 40.2979 21.6914C39.9658 21.5482 39.6045 21.4766 39.2139 21.4766C38.8232 21.4766 38.4619 21.5482 38.1299 21.6914C37.8011 21.8314 37.513 22.0316 37.2656 22.292C37.0215 22.5492 36.8311 22.8519 36.6943 23.2002C36.5576 23.5485 36.4893 23.9277 36.4893 24.3379C36.4893 24.748 36.5576 25.1273 36.6943 25.4756C36.8311 25.8239 37.0215 26.1283 37.2656 26.3887C37.513 26.6458 37.8011 26.846 38.1299 26.9893C38.4619 27.1292 38.8232 27.1992 39.2139 27.1992ZM44.1309 28V20.6758H48.5986V21.623H45.2051V23.8154H48.3984V24.7627H45.2051V28H44.1309ZM49.9609 28V20.6758H54.4287V21.623H51.0352V23.8154H54.2285V24.7627H51.0352V28H49.9609Z" fill="#FAFAFA"/>
<g filter="url(#filter0_d_753_8165)">
<rect x="6" y="5" width="27" height="27" rx="13.5" fill="white"/>
<path d="M26.2984 16.6988C26.2416 16.5587 26.0365 16.5801 26.0087 16.7287C25.9159 17.2233 25.6697 17.9244 25.0179 18.3723C24.6789 18.6054 24.3324 18.6995 24.0762 18.7394C24.0818 17.8369 23.9992 14.2459 21.2551 11.3801C20.0331 10.1039 18.6964 9.40278 17.7401 9.01777C17.5719 8.95006 17.393 9.08521 17.4094 9.26525C17.4622 9.84525 17.4783 10.6318 17.3279 11.5302C16.716 15.1868 14.13 16.0185 13.2758 19.0302C12.6383 21.2776 13.0447 24.4588 15.1397 26.3594C17.4039 28.4135 21.0765 28.4596 23.5464 26.9389C26.5968 25.061 27.9291 20.7221 26.2984 16.6988Z" fill="#FF7344"/>
<path d="M16.1623 23.4706C16.194 23.3689 16.3402 23.3463 16.4034 23.4348C16.5833 23.6869 16.9318 24.0604 17.5182 24.2556C17.5251 24.2579 17.5308 24.2598 17.5327 24.2605C18.0592 24.4327 18.5913 24.387 19.0881 24.233C18.9246 23.978 17.8448 22.2308 18.6469 20.356C18.8837 19.8026 19.2235 19.3806 19.5344 19.0762C19.6856 18.9281 19.9577 19.0082 19.9843 19.2098C20.0253 19.5194 20.1032 19.8862 20.2504 20.2813C20.9547 22.1715 22.3826 22.3996 22.8542 23.8675C23.1877 24.9054 22.978 26.3609 21.9237 27.2398C20.803 28.1741 19.0019 28.2283 17.7268 27.5064C16.3324 26.7171 15.6686 25.0575 16.1623 23.4706Z" fill="#FFDD55"/>
</g>
<defs>
<filter id="filter0_d_753_8165" x="4" y="5" width="31" height="31" filterUnits="userSpaceOnUse" color-interpolation-filters="sRGB">
<feFlood flood-opacity="0" result="BackgroundImageFix"/>
<feColorMatrix in="SourceAlpha" type="matrix" values="0 0 0 0 0 0 0 0 0 0 0 0 0 0 0 0 0 0 127 0" result="hardAlpha"/>
<feOffset dy="2"/>
<feGaussianBlur stdDeviation="1"/>
<feComposite in2="hardAlpha" operator="out"/>
<feColorMatrix type="matrix" values="0 0 0 0 0 0 0 0 0 0 0 0 0 0 0 0 0 0 0.16 0"/>
<feBlend mode="normal" in2="BackgroundImageFix" result="effect1_dropShadow_753_8165"/>
<feBlend mode="normal" in="SourceGraphic" in2="effect1_dropShadow_753_8165" result="shape"/>
</filter>
</defs>
</svg>
