<svg width="86" height="63" viewBox="0 0 86 63" fill="none" xmlns="http://www.w3.org/2000/svg">
<g id="Group" opacity="0.4">
<path id="Vector" d="M111.832 32.2836H88.2658L62.0329 17.1381C58.6538 15.1875 52.753 15.4325 48.8517 17.6848L23.5652 32.2846H0.0108289V48.1051H0.0186773C-0.0773351 49.4247 0.658431 50.6994 2.28182 51.636L49.8001 79.071C53.1792 81.0216 59.08 80.7767 62.9813 78.5243L108.605 52.1836C110.632 51.0138 111.71 49.5325 111.814 48.1051H111.832V32.2836Z" fill="url(#paint0_linear_778_2660)" style=""/>
<path id="Vector_2" d="M1.50505 49.1945H1.4972V33.374H25.0516L50.3381 18.7742C54.2394 16.5218 60.1412 16.2769 63.5192 18.2275L89.7522 33.373H111.831V32.2826H88.265L62.032 17.1371C58.653 15.1865 52.7522 15.4314 48.8509 17.6838L23.5644 32.2836H0.00999934V48.104H0.0168461C-0.0791663 49.4237 0.656615 50.6983 2.28001 51.6349L2.54747 51.7897C1.78622 51.0119 1.43745 50.1154 1.50505 49.1945Z" fill="#D4088C" style="fill:#D4088C;fill:color(display-p3 0.8314 0.0314 0.5490);fill-opacity:1;"/>
<path id="Vector_3" d="M49.7994 63.2496L2.28106 35.8146C-1.09799 33.864 -0.673767 30.4565 3.22747 28.2041L48.851 1.86341C52.7522 -0.38896 58.654 -0.633874 62.0321 1.31675L109.55 28.7518C112.929 30.7024 112.505 34.1099 108.604 36.3622L62.9805 62.7029C59.0792 64.9553 53.1784 65.2002 49.7994 63.2496Z" fill="url(#paint1_linear_778_2660)" style=""/>
<path id="Vector_4" d="M109.551 28.7517L62.0331 1.3167C60.2833 0.306609 57.8566 -0.109782 55.3808 0.0312972C57.1806 0.140046 58.8667 0.562316 60.1736 1.3167L107.692 28.7517C111.071 30.7024 110.647 34.1098 106.745 36.3622L61.122 62.7029C59.2409 63.7884 56.8965 64.4027 54.5931 64.535C57.4471 64.7064 60.59 64.0843 62.9815 62.7029L108.605 36.3622C112.506 34.1098 112.929 30.7024 109.551 28.7517Z" fill="#200916" style="fill:#200916;fill:color(display-p3 0.1255 0.0353 0.0863);fill-opacity:1;"/>
<path id="Vector_5" d="M55.6226 56.7169C53.9502 56.7169 52.3513 56.3789 51.159 55.6902L15.7823 35.264C14.5557 34.5557 13.8807 33.5584 13.8807 32.4522C13.8807 31.1473 14.8311 29.8511 16.4868 28.8949L50.4536 9.28386C53.4653 7.54682 58.0523 7.36361 60.673 8.87727L96.0497 29.3034C97.2763 30.0118 97.9513 31.0091 97.9513 32.1152C97.9513 33.4202 97.001 34.7164 95.3453 35.6726L61.3784 55.2846C59.7364 56.23 57.6271 56.716 55.6226 56.7169ZM56.2094 8.64998C54.3529 8.64998 52.3915 9.10361 50.8592 9.98732L16.8924 29.5993C15.4943 30.4056 14.6929 31.4461 14.6929 32.4522C14.6929 33.2546 15.2239 34.0041 16.188 34.5596L51.5646 54.9858C53.9649 56.3711 58.1836 56.1879 60.9728 54.5792L94.9397 34.9672C96.3377 34.1609 97.1391 33.1204 97.1391 32.1142C97.1391 31.3119 96.6081 30.5624 95.6441 30.0069L60.2674 9.58072C59.1849 8.95664 57.7319 8.64998 56.2094 8.64998Z" fill="#660644" style="fill:#660644;fill:color(display-p3 0.4016 0.0239 0.2683);fill-opacity:1;"/>
<path id="Vector_6" d="M51.9313 63.2497L4.41301 35.8146C1.03396 33.864 1.45818 30.4566 5.35942 28.2042L50.9829 1.86346C52.8356 0.793612 55.1379 0.183248 57.4079 0.0392292C54.5109 -0.167491 51.2906 0.455609 48.8511 1.86346L3.22756 28.2042C-0.673678 30.4566 -1.09692 33.864 2.28115 35.8146L49.7994 63.2497C51.5737 64.2745 54.0446 64.6869 56.5566 64.5282C54.8185 64.4038 53.1971 63.9806 51.9313 63.2497Z" fill="#D4088C" style="fill:#D4088C;fill:color(display-p3 0.8314 0.0314 0.5490);fill-opacity:1;"/>
</g>
<defs>
<linearGradient id="paint0_linear_778_2660" x1="-10.5726" y1="48.1036" x2="125.671" y2="48.1036" gradientUnits="userSpaceOnUse">
<stop stop-color="#17020E" style="stop-color:#17020E;stop-color:color(display-p3 0.0902 0.0078 0.0549);stop-opacity:1;"/>
<stop offset="0.0668" stop-color="#300920" style="stop-color:#300920;stop-color:color(display-p3 0.1882 0.0353 0.1255);stop-opacity:1;"/>
<stop offset="0.1494" stop-color="#1D0211" style="stop-color:#1D0211;stop-color:color(display-p3 0.1137 0.0078 0.0667);stop-opacity:1;"/>
<stop offset="0.2393" stop-color="#1D0211" style="stop-color:#1D0211;stop-color:color(display-p3 0.1137 0.0078 0.0667);stop-opacity:1;"/>
<stop offset="0.3408" stop-color="#1D0211" style="stop-color:#1D0211;stop-color:color(display-p3 0.1137 0.0078 0.0667);stop-opacity:1;"/>
<stop offset="0.4785" stop-color="#1D0211" style="stop-color:#1D0211;stop-color:color(display-p3 0.1137 0.0078 0.0667);stop-opacity:1;"/>
<stop offset="0.6264" stop-color="#1D0211" style="stop-color:#1D0211;stop-color:color(display-p3 0.1137 0.0078 0.0667);stop-opacity:1;"/>
<stop offset="0.9436" stop-color="#500134" style="stop-color:#500134;stop-color:color(display-p3 0.3137 0.0039 0.2039);stop-opacity:1;"/>
<stop offset="1" stop-color="#500134" style="stop-color:#500134;stop-color:color(display-p3 0.3137 0.0039 0.2039);stop-opacity:1;"/>
</linearGradient>
<linearGradient id="paint1_linear_778_2660" x1="-0.911743" y1="32.2848" x2="103.977" y2="58.2387" gradientUnits="userSpaceOnUse">
<stop stop-color="#660644" style="stop-color:#660644;stop-color:color(display-p3 0.4000 0.0235 0.2667);stop-opacity:1;"/>
<stop offset="0.1651" stop-color="#660644" style="stop-color:#660644;stop-color:color(display-p3 0.4000 0.0235 0.2667);stop-opacity:1;"/>
<stop offset="0.4284" stop-color="#1D0211" style="stop-color:#1D0211;stop-color:color(display-p3 0.1137 0.0078 0.0667);stop-opacity:1;"/>
<stop offset="0.7551" stop-color="#500134" style="stop-color:#500134;stop-color:color(display-p3 0.3137 0.0039 0.2039);stop-opacity:1;"/>
<stop offset="1" stop-color="#500134" style="stop-color:#500134;stop-color:color(display-p3 0.3137 0.0039 0.2039);stop-opacity:1;"/>
</linearGradient>
</defs>
</svg>
