<svg width="284" height="284" viewBox="0 0 284 284" fill="none" xmlns="http://www.w3.org/2000/svg">
<g clip-path="url(#clip0_876_3109)">
<mask id="mask0_876_3109" style="mask-type:luminance" maskUnits="userSpaceOnUse" x="0" y="0" width="284" height="284">
<path d="M284 0H0V284H284V0Z" fill="white"/>
</mask>
<g mask="url(#mask0_876_3109)">
<path d="M250.58 157C250.543 157.276 250.509 157.536 250.472 157.781C250.422 158.128 250.372 158.441 250.33 158.714C250.209 159.461 250.114 159.926 250.085 160.061C248.81 166.077 246.501 171.762 243.351 177.082C241.997 179.37 240.487 181.589 238.836 183.738C238.447 184.245 238.05 184.747 237.645 185.247C237.221 185.768 236.79 186.286 236.351 186.799C234.765 188.652 233.072 190.449 231.284 192.189C217.457 205.64 197.932 215.625 177.589 221.347C176.19 221.738 174.786 222.112 173.379 222.467C170.936 223.08 168.483 223.632 166.032 224.121C161.651 224.994 157.278 225.667 152.955 226.125C149.836 226.459 146.746 226.682 143.701 226.793C140.059 226.927 136.251 226.908 132.336 226.73C126.014 226.443 119.411 225.746 112.771 224.607C89.3625 220.592 65.4723 211.115 51.7588 194.987C51.3591 194.517 50.9673 194.041 50.586 193.559C48.2772 190.654 46.2944 187.543 44.6956 184.216C43.77 182.294 42.9706 180.296 42.3132 178.226C42.0449 177.377 41.7978 176.514 41.5716 175.636C40.5776 171.76 40.0149 167.605 39.9097 163.376C39.9071 163.232 39.9018 163.087 39.9018 162.943C39.8887 162.406 39.8887 161.87 39.8939 161.331C39.8965 161.018 39.9018 160.702 39.9097 160.387C39.9938 156.915 40.3883 153.426 41.1062 150.034C42.9969 141.051 47.128 132.744 53.7442 127.203C69.5824 113.939 97.3881 118.436 102.566 119.388C112.716 121.25 121.915 125.268 137.18 123.551C138.434 123.409 142.794 122.883 150.78 120.661C174.376 114.092 179.335 106.69 192.607 103.313C205.847 99.9446 225.654 101.02 238.252 112.682C248.513 122.181 250.99 135.923 251.182 146.173C251.266 150.675 250.911 154.501 250.58 157Z" fill="#E6EDFA"/>
</g>
<mask id="mask1_876_3109" style="mask-type:luminance" maskUnits="userSpaceOnUse" x="0" y="0" width="284" height="284">
<path d="M284 0H0V284H284V0Z" fill="white"/>
</mask>
<g mask="url(#mask1_876_3109)">
<path d="M166.032 150.531V224.118C158.493 225.622 150.97 226.527 143.702 226.793C107.108 228.129 53.7262 214.115 42.3136 178.223C42.0454 177.374 41.7956 176.512 41.5721 175.633C40.5781 171.76 40.018 167.602 39.9102 163.374V160.387C39.9969 156.913 40.3914 153.423 41.1066 150.031H60.3818V176.609H63.682V123.619H84.1537V203.355H96.6996V137.488L145.566 161.92V150.533C145.566 145.243 149.852 140.956 155.143 140.956H156.458C161.746 140.954 166.032 145.243 166.032 150.531Z" fill="#FF50B8"/>
</g>
<mask id="mask2_876_3109" style="mask-type:luminance" maskUnits="userSpaceOnUse" x="0" y="0" width="284" height="284">
<path d="M284 0H0V284H284V0Z" fill="white"/>
</mask>
<g mask="url(#mask2_876_3109)">
<path d="M250.472 149.952V157.781C250.285 159.072 250.125 159.877 250.085 160.061C243.474 191.238 209.168 213.482 173.379 222.467V131.545H193.848V200.218H197.151V159.022L217.62 150.034V149.952C217.62 145.416 219.458 141.309 222.432 138.337C225.403 135.366 229.511 133.528 234.047 133.528C243.119 133.525 250.472 140.877 250.472 149.952Z" fill="#FF50B8"/>
</g>
<mask id="mask3_876_3109" style="mask-type:luminance" maskUnits="userSpaceOnUse" x="0" y="0" width="284" height="284">
<path d="M284 0H0V284H284V0Z" fill="white"/>
</mask>
<g mask="url(#mask3_876_3109)">
<path d="M217.162 173.24H231.284V192.189C217.457 205.64 197.932 215.625 177.592 221.347V214.481H178.105V180.753C178.105 177.051 183.177 174.048 189.436 174.048C192.565 174.048 195.397 174.8 197.448 176.012C199.499 177.227 200.767 178.902 200.767 180.753V180.787L214.888 184.456V201.272H217.165V173.24H217.162Z" fill="#FF92D3"/>
</g>
<mask id="mask4_876_3109" style="mask-type:luminance" maskUnits="userSpaceOnUse" x="0" y="0" width="284" height="284">
<path d="M284 0H0V284H284V0Z" fill="white"/>
</mask>
<g mask="url(#mask4_876_3109)">
<path d="M243.352 177.082C241.345 180.472 238.997 183.714 236.352 186.799V180.992C236.352 178.833 239.307 177.082 242.957 177.082H243.352Z" fill="#CAD4EF"/>
</g>
<mask id="mask5_876_3109" style="mask-type:luminance" maskUnits="userSpaceOnUse" x="0" y="0" width="284" height="284">
<path d="M284 0H0V284H284V0Z" fill="white"/>
</mask>
<g mask="url(#mask5_876_3109)">
<path d="M112.772 180.787V224.607C84.5615 219.769 55.6487 206.997 44.6963 184.216L73.5985 175.665V202.553H82.2553V170.006H96.3764V191.637H98.6537V180.787H112.772Z" fill="#FF92D3"/>
</g>
<mask id="mask6_876_3109" style="mask-type:luminance" maskUnits="userSpaceOnUse" x="0" y="0" width="284" height="284">
<path d="M284 0H0V284H284V0Z" fill="white"/>
</mask>
<g mask="url(#mask6_876_3109)">
<path d="M109.989 111.71C101.141 109.803 91.7712 106.14 87.4139 98.2064C85.8493 95.3559 85.0604 91.8742 86.2122 88.8344C87.7558 84.7506 92.3077 82.5943 96.6255 81.9684C101.985 81.1874 107.588 82.1709 112.364 84.7269C118.922 88.2375 124.179 94.68 131.544 95.7188C137.18 96.5129 142.649 93.9069 148.074 92.1977C153.502 90.4884 160.139 89.9125 164.22 93.878C165.196 94.8273 165.359 96.0869 165.453 96.6023C166.25 100.941 161.951 104.922 160.397 106.363C158.275 108.328 153.349 112.041 137.929 113.285C129.635 113.953 121.173 114.118 109.989 111.71Z" fill="#E6EDFA"/>
</g>
<mask id="mask7_876_3109" style="mask-type:luminance" maskUnits="userSpaceOnUse" x="0" y="0" width="284" height="284">
<path d="M284 0H0V284H284V0Z" fill="white"/>
</mask>
<g mask="url(#mask7_876_3109)">
<path d="M85.6655 110.478H33.8934C33.2018 109.281 32.8047 107.89 32.8047 106.407C32.8047 101.908 36.452 98.2604 40.9539 98.2604C42.3134 98.2604 43.5941 98.5944 44.7195 99.1834C45.2218 92.7224 50.6231 87.6367 57.2129 87.6367C64.1341 87.6367 69.7457 93.2483 69.7457 100.17C69.7457 101.973 69.3644 103.688 68.6781 105.239C74.3318 107.03 79.8803 109.226 85.6655 110.478Z" fill="#CAD4EF"/>
</g>
<mask id="mask8_876_3109" style="mask-type:luminance" maskUnits="userSpaceOnUse" x="0" y="0" width="284" height="284">
<path d="M284 0H0V284H284V0Z" fill="white"/>
</mask>
<g mask="url(#mask8_876_3109)">
<path d="M196.67 126.682H224.531C224.904 126.037 225.117 125.29 225.117 124.491C225.117 122.069 223.156 120.107 220.734 120.107C220.003 120.107 219.314 120.286 218.709 120.604C218.438 117.128 215.532 114.391 211.985 114.391C208.261 114.391 205.24 117.409 205.24 121.136C205.24 122.106 205.445 123.029 205.813 123.863C202.768 124.828 199.783 126.008 196.67 126.682Z" fill="#D8DFF3"/>
</g>
<mask id="mask9_876_3109" style="mask-type:luminance" maskUnits="userSpaceOnUse" x="0" y="0" width="284" height="284">
<path d="M284 0H0V284H284V0Z" fill="white"/>
</mask>
<g mask="url(#mask9_876_3109)">
<path d="M171.229 91.4665H241.866C242.81 89.8335 243.351 87.9375 243.351 85.9127C243.351 79.7751 238.373 74.7973 232.233 74.7973C230.379 74.7973 228.633 75.2522 227.098 76.0568C226.411 67.2423 219.043 60.3027 210.052 60.3027C200.609 60.3027 192.955 67.9576 192.955 77.4006C192.955 79.8619 193.475 82.2023 194.411 84.3165C186.693 86.7647 179.123 89.7598 171.229 91.4665Z" fill="#CAD4EF"/>
</g>
<mask id="mask10_876_3109" style="mask-type:luminance" maskUnits="userSpaceOnUse" x="0" y="0" width="284" height="284">
<path d="M284 0H0V284H284V0Z" fill="white"/>
</mask>
<g mask="url(#mask10_876_3109)">
<path d="M152.955 138.971V226.125C149.836 226.458 146.746 226.682 143.701 226.792C140.059 226.927 136.251 226.908 132.336 226.729V138.971H152.955Z" fill="#FF92D3"/>
</g>
<mask id="mask11_876_3109" style="mask-type:luminance" maskUnits="userSpaceOnUse" x="0" y="0" width="284" height="284">
<path d="M284 0H0V284H284V0Z" fill="white"/>
</mask>
<g mask="url(#mask11_876_3109)">
<path d="M152.955 208.264V221.565C151.066 222.002 147.48 222.501 143.998 221.189V207.791C143.998 207.791 148.876 209.337 152.955 208.264Z" fill="#F0F8FA"/>
</g>
<mask id="mask12_876_3109" style="mask-type:luminance" maskUnits="userSpaceOnUse" x="0" y="0" width="284" height="284">
<path d="M284 0H0V284H284V0Z" fill="white"/>
</mask>
<g mask="url(#mask12_876_3109)">
<path d="M152.944 149.958H132.344C131.652 149.958 131.092 149.398 131.092 148.706V146.537C131.092 145.845 131.652 145.285 132.344 145.285H152.944C153.636 145.285 154.196 145.845 154.196 146.537V148.706C154.198 149.398 153.636 149.958 152.944 149.958Z" fill="#BDCFD3"/>
</g>
<mask id="mask13_876_3109" style="mask-type:luminance" maskUnits="userSpaceOnUse" x="0" y="0" width="284" height="284">
<path d="M284 0H0V284H284V0Z" fill="white"/>
</mask>
<g mask="url(#mask13_876_3109)">
<path d="M152.944 158.204H132.344C131.652 158.204 131.092 157.644 131.092 156.952V154.783C131.092 154.091 131.652 153.531 132.344 153.531H152.944C153.636 153.531 154.196 154.091 154.196 154.783V156.952C154.198 157.644 153.636 158.204 152.944 158.204Z" fill="#BAC7EB"/>
</g>
<mask id="mask14_876_3109" style="mask-type:luminance" maskUnits="userSpaceOnUse" x="0" y="0" width="284" height="284">
<path d="M284 0H0V284H284V0Z" fill="white"/>
</mask>
<g mask="url(#mask14_876_3109)">
<path d="M152.944 166.452H132.344C131.652 166.452 131.092 165.892 131.092 165.2V163.031C131.092 162.339 131.652 161.779 132.344 161.779H152.944C153.636 161.779 154.196 162.339 154.196 163.031V165.2C154.198 165.892 153.636 166.452 152.944 166.452Z" fill="#BAC7EB"/>
</g>
<mask id="mask15_876_3109" style="mask-type:luminance" maskUnits="userSpaceOnUse" x="0" y="0" width="284" height="284">
<path d="M284 0H0V284H284V0Z" fill="white"/>
</mask>
<g mask="url(#mask15_876_3109)">
<path d="M238.836 183.737C238.447 184.244 238.05 184.747 237.645 185.246C231.397 186.04 225.257 186.437 219.272 186.437C213.047 186.437 206.986 186.009 201.13 185.151C191.734 183.774 182.843 181.294 174.705 177.783C160.815 171.788 154.025 164.956 153.741 164.667C153.436 164.356 153.441 163.857 153.752 163.552C154.065 163.247 154.564 163.252 154.869 163.562C154.935 163.631 161.777 170.502 175.412 176.371C188 181.786 209.119 187.434 238.25 183.576C238.468 183.547 238.676 183.611 238.836 183.737Z" fill="#BAC7EB"/>
</g>
<mask id="mask16_876_3109" style="mask-type:luminance" maskUnits="userSpaceOnUse" x="0" y="0" width="284" height="284">
<path d="M284 0H0V284H284V0Z" fill="white"/>
</mask>
<g mask="url(#mask16_876_3109)">
<path d="M250.58 156.998C250.543 157.275 250.509 157.535 250.472 157.779C250.422 158.127 250.372 158.439 250.33 158.713C241.736 162.684 231.397 165.058 219.59 165.774C217.015 165.931 214.365 166.01 211.653 166.01C204.264 166.01 196.391 165.429 188.145 164.277C168.961 161.595 154.201 156.664 154.054 156.615C153.641 156.475 153.418 156.028 153.557 155.615C153.696 155.202 154.143 154.979 154.556 155.121C154.704 155.168 169.351 160.059 188.392 162.718C205.91 165.166 230.847 166.171 250.135 157.064C250.28 156.996 250.433 156.977 250.58 156.998Z" fill="#BAC7EB"/>
</g>
<mask id="mask17_876_3109" style="mask-type:luminance" maskUnits="userSpaceOnUse" x="0" y="0" width="284" height="284">
<path d="M284 0H0V284H284V0Z" fill="white"/>
</mask>
<g mask="url(#mask17_876_3109)">
<path d="M131.699 164.621C131.423 164.952 124.789 172.862 111.483 180.625C103.681 185.177 95.2029 188.714 86.2884 191.136C76.6798 193.747 66.5399 195.064 56.0766 195.064C54.6435 195.064 53.2051 195.038 51.7588 194.988C51.3591 194.517 50.9672 194.041 50.5859 193.56C50.7279 193.444 50.912 193.379 51.1092 193.387C78.4732 194.475 98.6109 186.308 110.689 179.26C123.753 171.64 130.419 163.693 130.485 163.614C130.763 163.277 131.26 163.233 131.597 163.509C131.931 163.787 131.978 164.284 131.699 164.621Z" fill="#BAC7EB"/>
</g>
<mask id="mask18_876_3109" style="mask-type:luminance" maskUnits="userSpaceOnUse" x="0" y="0" width="284" height="284">
<path d="M284 0H0V284H284V0Z" fill="white"/>
</mask>
<g mask="url(#mask18_876_3109)">
<path d="M132.483 156.642C132.475 156.645 132.425 156.653 132.336 156.671C130.585 157.002 113.692 160.171 94.5481 162.498C80.4743 164.21 68.7252 165.065 59.3795 165.065C50.8831 165.065 44.3748 164.36 39.9018 162.943C39.8887 162.406 39.8887 161.87 39.8939 161.331C39.9807 161.328 40.0675 161.341 40.1542 161.37C61.9249 168.483 131.487 155.227 132.186 155.093C132.236 155.083 132.286 155.08 132.336 155.08C132.707 155.08 133.038 155.34 133.109 155.719C133.193 156.148 132.912 156.561 132.483 156.642Z" fill="#BAC7EB"/>
</g>
<mask id="mask19_876_3109" style="mask-type:luminance" maskUnits="userSpaceOnUse" x="0" y="0" width="284" height="284">
<path d="M284 0H0V284H284V0Z" fill="white"/>
</mask>
<g mask="url(#mask19_876_3109)">
<path d="M93.3095 67.3476C92.3181 67.5659 91.453 67.0057 91.2216 65.9539C90.998 64.9336 91.545 64.0448 92.5338 63.8265C93.5409 63.6056 94.4245 64.1789 94.6506 65.1992C94.882 66.251 94.314 67.1267 93.3095 67.3476ZM89.8699 51.8144C90.5931 51.654 91.5976 51.5803 91.7948 52.3666C91.8527 52.6269 91.8974 53.0161 91.9237 53.3553C92.0631 54.9752 92.305 58.8933 92.61 61.8017L91.5792 62.0279C90.7062 59.4035 89.2993 55.7509 88.6866 54.1232C88.5709 53.8523 88.3895 53.379 88.3316 53.1213C88.1712 52.3876 89.1073 51.9827 89.8699 51.8144Z" fill="#FFF200"/>
</g>
<mask id="mask20_876_3109" style="mask-type:luminance" maskUnits="userSpaceOnUse" x="0" y="0" width="284" height="284">
<path d="M284 0H0V284H284V0Z" fill="white"/>
</mask>
<g mask="url(#mask20_876_3109)">
<path d="M154.88 130.914V133.228C154.88 135.532 154.202 137.788 152.929 139.71L138.313 161.783L135.999 193.323H123.716L123.424 179.17L107.652 159.29L107.107 158.607C104.386 155.175 104.828 150.231 108.07 147.339C108.146 147.27 108.225 147.202 108.304 147.136L127.863 130.914H154.88Z" fill="#32477B"/>
</g>
<mask id="mask21_876_3109" style="mask-type:luminance" maskUnits="userSpaceOnUse" x="0" y="0" width="284" height="284">
<path d="M284 0H0V284H284V0Z" fill="white"/>
</mask>
<g mask="url(#mask21_876_3109)">
<path d="M137.235 175.84L134.563 188.68C134.242 190.224 133.033 191.428 131.489 191.741L123.716 193.322H135.999L137.235 175.84Z" fill="#1F315F"/>
</g>
<mask id="mask22_876_3109" style="mask-type:luminance" maskUnits="userSpaceOnUse" x="0" y="0" width="284" height="284">
<path d="M284 0H0V284H284V0Z" fill="white"/>
</mask>
<g mask="url(#mask22_876_3109)">
<path d="M136.217 190.139H123.655V190.533H136.217V190.139Z" fill="#1F315F"/>
</g>
<mask id="mask23_876_3109" style="mask-type:luminance" maskUnits="userSpaceOnUse" x="0" y="0" width="284" height="284">
<path d="M284 0H0V284H284V0Z" fill="white"/>
</mask>
<g mask="url(#mask23_876_3109)">
<path d="M133.951 190.346L133.557 190.325L135.121 162.328C135.205 160.808 135.723 159.351 136.618 158.118L154.465 133.465L154.786 133.696L136.938 158.349C136.089 159.522 135.597 160.905 135.518 162.351L133.951 190.346Z" fill="#1F315F"/>
</g>
<mask id="mask24_876_3109" style="mask-type:luminance" maskUnits="userSpaceOnUse" x="0" y="0" width="284" height="284">
<path d="M284 0H0V284H284V0Z" fill="white"/>
</mask>
<g mask="url(#mask24_876_3109)">
<path d="M127.863 130.914L154.88 133.228V130.914H127.863Z" fill="#1B2C58"/>
</g>
<mask id="mask25_876_3109" style="mask-type:luminance" maskUnits="userSpaceOnUse" x="0" y="0" width="284" height="284">
<path d="M284 0H0V284H284V0Z" fill="white"/>
</mask>
<g mask="url(#mask25_876_3109)">
<path d="M126.596 149.45C123.88 152.546 122.462 156.569 122.638 160.682L120.243 156.506C119.633 155.443 119.83 154.102 120.719 153.258L135.795 138.969L126.596 149.45Z" fill="#1B2C58"/>
</g>
<mask id="mask26_876_3109" style="mask-type:luminance" maskUnits="userSpaceOnUse" x="0" y="0" width="284" height="284">
<path d="M284 0H0V284H284V0Z" fill="white"/>
</mask>
<g mask="url(#mask26_876_3109)">
<path d="M128.77 156.689C128.77 160.121 126.259 162.966 122.972 163.482C122.833 163.505 122.691 163.521 122.546 163.534L122.425 160.692C122.273 157.107 123.293 153.634 125.323 150.73C125.447 150.801 125.57 150.875 125.688 150.954C127.545 152.185 128.77 154.294 128.77 156.689Z" fill="#1F315F"/>
</g>
<mask id="mask27_876_3109" style="mask-type:luminance" maskUnits="userSpaceOnUse" x="0" y="0" width="284" height="284">
<path d="M284 0H0V284H284V0Z" fill="white"/>
</mask>
<g mask="url(#mask27_876_3109)">
<path d="M137.235 137.652L126.759 149.591C126.375 150.027 126.017 150.482 125.688 150.953C123.703 153.785 122.701 157.177 122.851 160.672L122.972 163.481L123.64 179.161L123.211 179.18L122.546 163.533L122.425 160.691C122.273 157.106 123.293 153.633 125.323 150.73C125.665 150.24 126.036 149.765 126.435 149.31L136.912 137.371L137.235 137.652Z" fill="#1F315F"/>
</g>
<mask id="mask28_876_3109" style="mask-type:luminance" maskUnits="userSpaceOnUse" x="0" y="0" width="284" height="284">
<path d="M284 0H0V284H284V0Z" fill="white"/>
</mask>
<g mask="url(#mask28_876_3109)">
<path d="M166.637 116.564L167.547 122.234C167.933 124.632 167.471 127.091 166.237 129.187L152.71 152.191L149.976 144.12L156.679 124.256L155.532 120.451L166.637 116.564Z" fill="#FFC1C2"/>
</g>
<mask id="mask29_876_3109" style="mask-type:luminance" maskUnits="userSpaceOnUse" x="0" y="0" width="284" height="284">
<path d="M284 0H0V284H284V0Z" fill="white"/>
</mask>
<g mask="url(#mask29_876_3109)">
<path d="M112.33 104.523L124.574 96.7499C126.906 95.2694 129.596 94.4463 132.357 94.3674L149.09 93.8546C155.516 93.6574 161.323 97.6597 163.429 103.737L168.144 117.348L154.943 122.255V130.914H127.863V110.59L118.241 117.579L112.33 104.523Z" fill="#E2017B"/>
</g>
<mask id="mask30_876_3109" style="mask-type:luminance" maskUnits="userSpaceOnUse" x="0" y="0" width="284" height="284">
<path d="M284 0H0V284H284V0Z" fill="white"/>
</mask>
<g mask="url(#mask30_876_3109)">
<path d="M152.882 109.764V124.069C152.882 126.351 151.17 128.268 148.903 128.526L127.863 130.916H154.943V122.257L152.882 109.764Z" fill="#BA006F"/>
</g>
<mask id="mask31_876_3109" style="mask-type:luminance" maskUnits="userSpaceOnUse" x="0" y="0" width="284" height="284">
<path d="M284 0H0V284H284V0Z" fill="white"/>
</mask>
<g mask="url(#mask31_876_3109)">
<path d="M127.863 108.096L118.241 117.581L127.863 110.589V108.096Z" fill="#BA006F"/>
</g>
<mask id="mask32_876_3109" style="mask-type:luminance" maskUnits="userSpaceOnUse" x="-17" y="-20" width="327" height="327">
<path d="M263.52 -19.6835L-16.7031 26.5801L29.5605 306.803L309.783 260.539L263.52 -19.6835Z" fill="white"/>
</mask>
<g mask="url(#mask32_876_3109)">
<path d="M152.833 108.057L152.41 108.127L154.748 122.286L155.171 122.216L152.833 108.057Z" fill="#4863C9"/>
</g>
<mask id="mask33_876_3109" style="mask-type:luminance" maskUnits="userSpaceOnUse" x="0" y="0" width="284" height="284">
<path d="M284 0H0V284H284V0Z" fill="white"/>
</mask>
<g mask="url(#mask33_876_3109)">
<path d="M128.079 106.445H127.65V110.59H128.079V106.445Z" fill="#4863C9"/>
</g>
<mask id="mask34_876_3109" style="mask-type:luminance" maskUnits="userSpaceOnUse" x="0" y="0" width="284" height="284">
<path d="M284 0H0V284H284V0Z" fill="white"/>
</mask>
<g mask="url(#mask34_876_3109)">
<path d="M143.021 78.2754L135.613 80.0872C132.063 91.8969 137.288 92.0836 137.288 92.0836L137.023 93.9296C136.996 94.1084 136.983 94.2872 136.983 94.4686C136.973 96.6276 138.711 98.3842 140.87 98.3973C143.029 98.4078 144.788 96.6696 144.798 94.5107L144.84 86.4719L146.245 86.4798C147.42 86.4851 148.377 85.5384 148.383 84.363C148.383 84.2867 148.38 84.2078 148.375 84.1316C148.254 82.7326 147.023 81.6965 145.624 81.8175L144.885 81.8806L143.021 78.2754Z" fill="#FFC1C2"/>
</g>
<mask id="mask35_876_3109" style="mask-type:luminance" maskUnits="userSpaceOnUse" x="0" y="0" width="284" height="284">
<path d="M284 0H0V284H284V0Z" fill="white"/>
</mask>
<g mask="url(#mask35_876_3109)">
<path d="M147.186 84.5851C147.188 84.5772 147.425 83.8725 147.088 83.436C146.865 83.1467 146.428 83.0231 145.787 83.0705L145.758 82.676C146.541 82.6208 147.096 82.7943 147.404 83.1993C147.869 83.8068 147.572 84.6798 147.559 84.7166L147.186 84.5851Z" fill="#EF9EA0"/>
</g>
<mask id="mask36_876_3109" style="mask-type:luminance" maskUnits="userSpaceOnUse" x="0" y="0" width="284" height="284">
<path d="M284 0H0V284H284V0Z" fill="white"/>
</mask>
<g mask="url(#mask36_876_3109)">
<path d="M135.946 86.4966L137.351 83.8223L137.7 84.0063L136.472 86.3441L137.924 87.1777L137.727 87.5221L135.946 86.4966Z" fill="#EF9EA0"/>
</g>
<mask id="mask37_876_3109" style="mask-type:luminance" maskUnits="userSpaceOnUse" x="0" y="0" width="284" height="284">
<path d="M284 0H0V284H284V0Z" fill="white"/>
</mask>
<g mask="url(#mask37_876_3109)">
<path d="M135.704 83.6871C135.662 83.9658 135.499 84.1709 135.336 84.1473C135.176 84.1236 135.076 83.879 135.118 83.6003C135.126 83.5425 135.139 83.4899 135.157 83.4399C135.186 83.3557 135.226 83.2847 135.273 83.2348C135.394 83.2322 135.518 83.2427 135.639 83.2558C135.673 83.311 135.697 83.3847 135.707 83.4662C135.718 83.5346 135.715 83.6082 135.704 83.6871Z" fill="#32477B"/>
</g>
<mask id="mask38_876_3109" style="mask-type:luminance" maskUnits="userSpaceOnUse" x="0" y="0" width="284" height="284">
<path d="M284 0H0V284H284V0Z" fill="white"/>
</mask>
<g mask="url(#mask38_876_3109)">
<path d="M141.611 82.5147C141.626 82.4542 141.59 82.3938 141.529 82.3806L139.381 81.8231C139.155 81.7626 138.915 81.8731 138.813 82.0808L138.763 82.1808C138.739 82.2255 138.729 82.2754 138.729 82.328C138.731 82.5016 138.876 82.6436 139.052 82.6383L141.503 82.5989C141.553 82.5989 141.597 82.5647 141.611 82.5147Z" fill="#32477B"/>
</g>
<mask id="mask39_876_3109" style="mask-type:luminance" maskUnits="userSpaceOnUse" x="0" y="0" width="284" height="284">
<path d="M284 0H0V284H284V0Z" fill="white"/>
</mask>
<g mask="url(#mask39_876_3109)">
<path d="M134.526 81.8807C134.524 81.8281 134.566 81.7808 134.619 81.7781L136.562 81.6861C136.767 81.6756 136.951 81.8123 137.004 82.0096L137.027 82.1042C137.038 82.1489 137.04 82.1936 137.03 82.2383C136.996 82.3882 136.846 82.4803 136.696 82.4461L134.603 81.9701C134.558 81.9622 134.526 81.9254 134.526 81.8807Z" fill="#32477B"/>
</g>
<mask id="mask40_876_3109" style="mask-type:luminance" maskUnits="userSpaceOnUse" x="0" y="0" width="284" height="284">
<path d="M284 0H0V284H284V0Z" fill="white"/>
</mask>
<g mask="url(#mask40_876_3109)">
<path d="M137.017 93.9537C138.558 93.8327 140.012 93.1805 141.124 92.105C139.928 92.4968 137.287 92.084 137.287 92.084L137.017 93.9537Z" fill="#EF9EA0"/>
</g>
<mask id="mask41_876_3109" style="mask-type:luminance" maskUnits="userSpaceOnUse" x="0" y="0" width="284" height="284">
<path d="M284 0H0V284H284V0Z" fill="white"/>
</mask>
<g mask="url(#mask41_876_3109)">
<path d="M137.711 71.3807C137.711 71.3807 136.414 67.9674 140.235 68.6459C142.336 69.0193 144.224 71.144 145.5 72.9795C146.489 74.4021 147.588 75.7485 148.821 76.9634C149.342 77.4762 149.631 77.9626 149.799 78.3124C151.267 81.3522 149.421 86.1092 144.819 89.6356L144.835 86.4695L146.239 86.4774H146.241C147.256 86.48 148.166 85.7726 148.34 84.7734C148.377 84.5604 148.385 84.3421 148.366 84.1291C148.245 82.7302 147.014 81.6941 145.616 81.8151C145.184 81.8519 144.837 82.1832 144.782 82.6118L144.624 83.8241C144.611 83.9319 144.522 84.0213 144.406 84.0292C144.298 84.0371 144.201 83.9661 144.164 83.8662L143.02 80.9131C143.015 80.8973 143.007 80.8815 142.999 80.8658C142.836 80.5213 142.426 80.374 142.081 80.5371C140.843 81.1287 138.045 82.1227 135.444 80.6317C134.632 80.1558 133.924 79.5168 133.364 78.7594C129.572 73.7842 135.386 70.1711 137.711 71.3807Z" fill="#32477B"/>
</g>
<mask id="mask42_876_3109" style="mask-type:luminance" maskUnits="userSpaceOnUse" x="0" y="0" width="284" height="284">
<path d="M284 0H0V284H284V0Z" fill="white"/>
</mask>
<g mask="url(#mask42_876_3109)">
<path d="M137.111 89.3042L137.043 88.9545C137.493 88.865 137.953 88.8019 138.408 88.7625C138.857 88.7257 139.312 88.7125 139.765 88.7257L139.754 89.0833C139.318 89.0702 138.873 89.0833 138.437 89.1201C137.995 89.1543 137.548 89.2174 137.111 89.3042Z" fill="#EF9EA0"/>
</g>
<mask id="mask43_876_3109" style="mask-type:luminance" maskUnits="userSpaceOnUse" x="0" y="0" width="284" height="284">
<path d="M284 0H0V284H284V0Z" fill="white"/>
</mask>
<g mask="url(#mask43_876_3109)">
<path d="M136.851 83.5346C136.846 83.5346 136.844 83.5346 136.838 83.5346L134.779 83.34C134.7 83.3321 134.645 83.2638 134.653 83.1875C134.661 83.1086 134.729 83.0534 134.806 83.0613L136.865 83.2559C136.941 83.2638 136.999 83.3322 136.991 83.4084C136.986 83.4794 136.922 83.5346 136.851 83.5346Z" fill="#32477B"/>
</g>
<mask id="mask44_876_3109" style="mask-type:luminance" maskUnits="userSpaceOnUse" x="0" y="0" width="284" height="284">
<path d="M284 0H0V284H284V0Z" fill="white"/>
</mask>
<g mask="url(#mask44_876_3109)">
<path d="M139.941 83.9332C139.899 84.2119 139.736 84.417 139.573 84.3934C139.412 84.3697 139.312 84.1251 139.354 83.8464C139.362 83.7885 139.375 83.7359 139.394 83.686C139.423 83.6018 139.462 83.5308 139.51 83.4809C139.63 83.4782 139.754 83.4888 139.875 83.5019C139.909 83.5571 139.933 83.6308 139.943 83.7123C139.954 83.7807 139.951 83.8543 139.941 83.9332Z" fill="#32477B"/>
</g>
<mask id="mask45_876_3109" style="mask-type:luminance" maskUnits="userSpaceOnUse" x="0" y="0" width="284" height="284">
<path d="M284 0H0V284H284V0Z" fill="white"/>
</mask>
<g mask="url(#mask45_876_3109)">
<path d="M141.046 83.8042C141.041 83.8042 141.038 83.8042 141.033 83.8042L138.974 83.6096C138.895 83.6017 138.84 83.5333 138.847 83.457C138.855 83.3782 138.924 83.3229 139 83.3308L141.059 83.5254C141.135 83.5333 141.193 83.6017 141.185 83.6779C141.18 83.7489 141.117 83.8042 141.046 83.8042Z" fill="#32477B"/>
</g>
<mask id="mask46_876_3109" style="mask-type:luminance" maskUnits="userSpaceOnUse" x="0" y="0" width="284" height="284">
<path d="M284 0H0V284H284V0Z" fill="white"/>
</mask>
<g mask="url(#mask46_876_3109)">
<path d="M112.33 104.523L103.532 88.3404C103.532 88.3404 97.0706 85.4162 95.6953 91.3277L104.436 115.912C105.625 119.254 109.506 120.764 112.641 119.102L117.711 116.412L112.33 104.523Z" fill="#FFC1C2"/>
</g>
<mask id="mask47_876_3109" style="mask-type:luminance" maskUnits="userSpaceOnUse" x="0" y="0" width="284" height="284">
<path d="M284 0H0V284H284V0Z" fill="white"/>
</mask>
<g mask="url(#mask47_876_3109)">
<path d="M112.33 104.523L115.504 117.582L117.71 116.409L112.33 104.523Z" fill="#EF9EA0"/>
</g>
<mask id="mask48_876_3109" style="mask-type:luminance" maskUnits="userSpaceOnUse" x="0" y="0" width="284" height="284">
<path d="M284 0H0V284H284V0Z" fill="white"/>
</mask>
<g mask="url(#mask48_876_3109)">
<path d="M103.39 88.2839C103.39 88.2839 98.3091 92.8279 95.6952 91.2712C93.084 89.7118 91.0986 83.9687 91.0986 83.9687C91.3853 84.1422 91.6956 84.2869 92.0216 84.4105L92.3214 85.6069C92.4529 86.1355 92.9893 86.4563 93.5179 86.3222L94.2095 86.1486L100.668 84.5262C100.673 84.5235 100.678 84.5235 100.684 84.5209C100.686 84.5235 100.689 84.5209 100.689 84.5183C100.237 83.9003 100.728 82.8353 101.096 82.2095C101.275 81.9071 101.423 81.7072 101.423 81.7072C101.231 81.6283 101.06 81.5415 100.907 81.4521C100.173 81.0235 99.8632 80.5055 99.7396 80.0663C99.6239 79.6561 99.95 79.2669 100.358 79.2695C100.394 79.2695 100.431 79.2748 100.468 79.2801L101.128 79.4037L103.442 79.8349C103.944 79.927 104.313 80.3635 104.323 80.8736C104.42 85.9514 103.39 88.2839 103.39 88.2839Z" fill="#FFC1C2"/>
</g>
<mask id="mask49_876_3109" style="mask-type:luminance" maskUnits="userSpaceOnUse" x="0" y="0" width="284" height="284">
<path d="M284 0H0V284H284V0Z" fill="white"/>
</mask>
<g mask="url(#mask49_876_3109)">
<path d="M100.685 84.5772C100.68 84.5799 100.675 84.5825 100.67 84.5825L94.2113 86.205L93.5197 86.3785C92.9911 86.5127 92.4573 86.1892 92.3232 85.6633L92.0234 84.4668C92.2785 84.5641 92.5467 84.6456 92.8228 84.7166C96.1046 85.5528 100.493 84.6167 100.685 84.5772Z" fill="#F0AE8C"/>
</g>
<mask id="mask50_876_3109" style="mask-type:luminance" maskUnits="userSpaceOnUse" x="0" y="0" width="284" height="284">
<path d="M284 0H0V284H284V0Z" fill="white"/>
</mask>
<g mask="url(#mask50_876_3109)">
<path d="M91.051 77.6049C90.7722 77.4471 90.5382 77.3683 90.341 77.3446C90.0333 77.3051 89.8177 77.4051 89.6652 77.5523C89.3549 77.8521 89.4022 78.3649 89.7362 78.641L89.773 78.6726L90.3804 79.1748L91.782 79.9348L92.2816 78.2176L91.051 77.6049Z" fill="#FFC1C2"/>
</g>
<mask id="mask51_876_3109" style="mask-type:luminance" maskUnits="userSpaceOnUse" x="0" y="0" width="284" height="284">
<path d="M284 0H0V284H284V0Z" fill="white"/>
</mask>
<g mask="url(#mask51_876_3109)">
<path d="M100.686 84.5108C100.683 84.5134 100.681 84.5134 100.681 84.5134C100.675 84.5161 100.67 84.5187 100.665 84.5187L94.2065 86.1412L93.5149 86.3147C92.9864 86.4462 92.4526 86.1254 92.3185 85.5995L92.1081 84.7606L92.0187 84.403L91.7005 83.1381L91.2982 81.5314L90.8327 79.6775L90.4199 78.0367L90.0281 76.4773L89.0472 72.5775C88.9157 72.049 89.2339 71.5152 89.7625 71.3837L90.4514 71.2101C90.4541 71.2075 90.4541 71.2075 90.4541 71.2075L96.9072 69.585C97.4331 69.4509 97.9695 69.7744 98.1037 70.3003L100.355 79.2621C99.947 79.2568 99.6183 79.646 99.7367 80.0562C99.8602 80.4927 100.171 81.0134 100.904 81.442L101.094 82.1994C100.725 82.8278 100.231 83.8928 100.686 84.5108Z" fill="#7486BE"/>
</g>
<mask id="mask52_876_3109" style="mask-type:luminance" maskUnits="userSpaceOnUse" x="0" y="0" width="284" height="284">
<path d="M284 0H0V284H284V0Z" fill="white"/>
</mask>
<g mask="url(#mask52_876_3109)">
<path d="M101.09 82.2021C100.725 82.828 100.231 83.893 100.683 84.5109C100.68 84.5136 100.678 84.5136 100.678 84.5136C100.672 84.5162 100.667 84.5188 100.662 84.5188L94.2034 86.1413C93.6749 86.2728 93.1411 85.952 93.007 85.4261L92.8124 84.6529L89.7357 72.4041C89.6042 71.8782 89.9224 71.3444 90.4483 71.2103C90.4509 71.2103 90.451 71.2103 90.451 71.2103L96.9041 69.5878L97.5957 69.4142C98.1242 69.2828 98.658 69.6036 98.7921 70.1295L101.122 79.3989L100.462 79.2754C100.425 79.2675 100.388 79.2648 100.352 79.2648C99.9439 79.2596 99.6152 79.6488 99.7335 80.0616C99.8571 80.4981 100.167 81.0188 100.901 81.4474C101.054 81.5368 101.225 81.6236 101.417 81.7025C101.417 81.6999 101.269 81.8997 101.09 82.2021Z" fill="#9AADE2"/>
</g>
<mask id="mask53_876_3109" style="mask-type:luminance" maskUnits="userSpaceOnUse" x="0" y="0" width="284" height="284">
<path d="M284 0H0V284H284V0Z" fill="white"/>
</mask>
<g mask="url(#mask53_876_3109)">
<path d="M98.0671 83.4188C98.1565 83.7764 97.9383 84.1419 97.5806 84.2313C97.223 84.3207 96.8575 84.1051 96.7681 83.7449C96.6787 83.3872 96.8969 83.0217 97.2546 82.9323C97.6148 82.8429 97.9777 83.0585 98.0671 83.4188Z" fill="#7486BE"/>
</g>
<mask id="mask54_876_3109" style="mask-type:luminance" maskUnits="userSpaceOnUse" x="0" y="0" width="284" height="284">
<path d="M284 0H0V284H284V0Z" fill="white"/>
</mask>
<g mask="url(#mask54_876_3109)">
<path d="M100.691 84.5742L95.6686 86.3624C94.9744 86.6096 94.2171 86.6148 93.5176 86.3781L100.691 84.5742Z" fill="#EF9EA0"/>
</g>
<mask id="mask55_876_3109" style="mask-type:luminance" maskUnits="userSpaceOnUse" x="0" y="0" width="284" height="284">
<path d="M284 0H0V284H284V0Z" fill="white"/>
</mask>
<g mask="url(#mask55_876_3109)">
<path d="M92.4523 83.2442C92.2314 83.2205 91.9843 83.2074 91.7055 83.2021C91.6582 83.1995 91.3716 83.189 91.1954 83.3941C90.9955 83.6281 91.0981 83.9595 91.1296 84.0594C91.3111 84.6405 92.0447 84.8088 92.1131 84.8246L92.8678 84.9009L93.4227 84.9587C93.8276 85.0008 94.201 84.6905 94.1984 84.2829C94.1932 83.8622 93.8539 83.3888 92.4523 83.2442Z" fill="#FFC1C2"/>
</g>
<mask id="mask56_876_3109" style="mask-type:luminance" maskUnits="userSpaceOnUse" x="0" y="0" width="284" height="284">
<path d="M284 0H0V284H284V0Z" fill="white"/>
</mask>
<g mask="url(#mask56_876_3109)">
<path d="M93.0439 80.7222C92.9124 80.362 92.5442 80.0491 91.6528 80.099C91.4451 80.1095 91.2084 80.1411 90.9428 80.1963C90.9428 80.1963 89.7858 81.4585 91.4082 82.0502L92.0998 81.8793L92.4443 81.7925C92.915 81.6768 93.2148 81.1772 93.0439 80.7222Z" fill="#FFC1C2"/>
</g>
<mask id="mask57_876_3109" style="mask-type:luminance" maskUnits="userSpaceOnUse" x="0" y="0" width="284" height="284">
<path d="M284 0H0V284H284V0Z" fill="white"/>
</mask>
<g mask="url(#mask57_876_3109)">
<path d="M133.816 197.571L127.534 205.318C125.714 207.427 122.853 208.395 120.342 207.545C118.364 206.877 117.205 205.252 119.737 201.723C120.263 200.99 120.852 200.327 121.475 199.73L124.949 196.49C125.367 196.088 125.667 195.636 125.841 195.165C125.961 194.842 126.019 194.508 126.014 194.176L126.004 193.324H133.779L134.04 194.316V194.318L134.326 195.41C134.521 196.177 134.35 196.95 133.816 197.571Z" fill="#142038"/>
</g>
<mask id="mask58_876_3109" style="mask-type:luminance" maskUnits="userSpaceOnUse" x="0" y="0" width="284" height="284">
<path d="M284 0H0V284H284V0Z" fill="white"/>
</mask>
<g mask="url(#mask58_876_3109)">
<path d="M134.034 194.314V194.316C126.14 199.221 125.838 195.163 125.838 195.163C125.959 194.84 126.017 194.506 126.011 194.174L126.001 193.322H133.777L133.887 193.748L134.034 194.314Z" fill="#FFC1C2"/>
</g>
<mask id="mask59_876_3109" style="mask-type:luminance" maskUnits="userSpaceOnUse" x="0" y="0" width="284" height="284">
<path d="M284 0H0V284H284V0Z" fill="white"/>
</mask>
<g mask="url(#mask59_876_3109)">
<path d="M133.887 193.748L126.011 194.174L126.001 193.322H133.774L133.887 193.748Z" fill="#EF9EA0"/>
</g>
<mask id="mask60_876_3109" style="mask-type:luminance" maskUnits="userSpaceOnUse" x="0" y="0" width="284" height="284">
<path d="M284 0H0V284H284V0Z" fill="white"/>
</mask>
<g mask="url(#mask60_876_3109)">
<path d="M152.663 154.689C152.229 155.017 151.414 155.543 150.265 155.767C149.037 156.004 147.99 155.785 147.32 155.564C146.888 155.422 146.546 155.081 146.425 154.644C146.423 154.639 146.423 154.633 146.42 154.628C146.312 154.236 146.323 153.779 146.786 153.505C146.786 153.505 145.481 152.359 146.773 151.565C146.773 151.565 145.776 150.321 146.765 149.319C146.765 149.319 146.399 149.287 146.799 148.706L147.201 148.125C148.179 146.708 149.158 145.29 150.136 143.873C150.517 144.039 153.139 145.238 154.033 148.233C155.069 151.709 152.842 154.473 152.663 154.689Z" fill="#FFC1C2"/>
</g>
<mask id="mask61_876_3109" style="mask-type:luminance" maskUnits="userSpaceOnUse" x="0" y="0" width="284" height="284">
<path d="M284 0H0V284H284V0Z" fill="white"/>
</mask>
<g mask="url(#mask61_876_3109)">
<path d="M148.679 153.999C147.633 153.999 146.776 153.749 146.718 153.731L146.855 153.276C146.876 153.281 149.034 153.91 150.578 153.129L150.794 153.552C150.118 153.894 149.361 153.999 148.679 153.999Z" fill="#EF9EA0"/>
</g>
<mask id="mask62_876_3109" style="mask-type:luminance" maskUnits="userSpaceOnUse" x="0" y="0" width="284" height="284">
<path d="M284 0H0V284H284V0Z" fill="white"/>
</mask>
<g mask="url(#mask62_876_3109)">
<path d="M148.127 151.959C147.375 151.959 146.76 151.807 146.715 151.796L146.831 151.333C146.849 151.339 148.645 151.778 149.713 151.115L149.965 151.52C149.413 151.862 148.727 151.959 148.127 151.959Z" fill="#EF9EA0"/>
</g>
<mask id="mask63_876_3109" style="mask-type:luminance" maskUnits="userSpaceOnUse" x="0" y="0" width="284" height="284">
<path d="M284 0H0V284H284V0Z" fill="white"/>
</mask>
<g mask="url(#mask63_876_3109)">
<path d="M148.44 149.815C147.578 149.815 146.747 149.563 146.694 149.547L146.834 149.092C146.849 149.097 148.519 149.602 149.405 149.158L149.618 149.584C149.277 149.757 148.853 149.815 148.44 149.815Z" fill="#EF9EA0"/>
</g>
<mask id="mask64_876_3109" style="mask-type:luminance" maskUnits="userSpaceOnUse" x="0" y="0" width="284" height="284">
<path d="M284 0H0V284H284V0Z" fill="white"/>
</mask>
<g mask="url(#mask64_876_3109)">
<path d="M166.84 117.832L158.152 122.941L150.134 143.873L156.679 124.256L155.961 121.876L166.84 117.832Z" fill="#EF9EA0"/>
</g>
<mask id="mask65_876_3109" style="mask-type:luminance" maskUnits="userSpaceOnUse" x="0" y="0" width="284" height="284">
<path d="M284 0H0V284H284V0Z" fill="white"/>
</mask>
<g mask="url(#mask65_876_3109)">
<path d="M111.346 153.197C111.346 155.847 109.848 158.146 107.652 159.29L107.107 158.606C104.386 155.174 104.828 150.23 108.07 147.338C110.037 148.548 111.346 150.717 111.346 153.197Z" fill="#1B2C58"/>
</g>
</g>
<defs>
<clipPath id="clip0_876_3109">
<rect width="284" height="284" fill="white"/>
</clipPath>
</defs>
</svg>
