<svg width="1792" height="1536" viewBox="0 0 1792 1536" fill="none" xmlns="http://www.w3.org/2000/svg">
<path d="M880.284 1489.72L880.031 1489.46L879.772 1489.21L255.772 887.213L254.437 885.924L252.988 884.765C248.328 881.038 240.564 873.826 229.18 862.117C219.003 851.649 201.573 831.185 176.235 799.512C151.973 769.185 130.339 738.153 111.3 706.42C93.1712 676.206 76.4604 638.709 61.474 593.431C46.9949 549.686 40 507.931 40 468C40 329.365 79.7503 226.038 154.944 152.62C230.31 79.035 336.24 40 478 40C514.639 40 552.537 46.3429 591.851 59.4473C631.636 72.7089 668.489 90.5391 702.521 112.92C738.77 136.76 769.548 158.864 795.012 179.235C820.534 199.652 844.766 221.334 867.716 244.284L896 272.569L924.284 244.284C947.234 221.334 971.466 199.652 996.988 179.235C1022.45 158.864 1053.23 136.76 1089.48 112.92C1123.51 90.5391 1160.36 72.7089 1200.15 59.4473C1239.46 46.3429 1277.36 40 1314 40C1455.76 40 1561.69 79.035 1637.06 152.62C1712.25 226.038 1752 329.365 1752 468C1752 600.571 1683.44 740.903 1534.98 889.454L912.253 1489.19L911.982 1489.45L911.716 1489.72C907.395 1494.04 902.979 1496 896 1496C889.021 1496 884.605 1494.04 880.284 1489.72Z" fill="#E20479" stroke="white" stroke-width="80"/>
</svg>
