<svg width="16" height="17" viewBox="0 0 16 17" fill="none" xmlns="http://www.w3.org/2000/svg">
<path d="M7.2 4.23291H8.8V5.83291H7.2V4.23291ZM8 12.2329C8.44 12.2329 8.8 11.8729 8.8 11.4329V8.23291C8.8 7.79291 8.44 7.43291 8 7.43291C7.56 7.43291 7.2 7.79291 7.2 8.23291V11.4329C7.2 11.8729 7.56 12.2329 8 12.2329ZM8 0.23291C3.584 0.23291 0 3.81691 0 8.23291C0 12.6489 3.584 16.2329 8 16.2329C12.416 16.2329 16 12.6489 16 8.23291C16 3.81691 12.416 0.23291 8 0.23291ZM8 14.6329C4.472 14.6329 1.6 11.7609 1.6 8.23291C1.6 4.70491 4.472 1.83291 8 1.83291C11.528 1.83291 14.4 4.70491 14.4 8.23291C14.4 11.7609 11.528 14.6329 8 14.6329Z" fill="#F3F3F3"/>
</svg>
