<svg width="12" height="12" viewBox="0 0 12 12" fill="none" xmlns="http://www.w3.org/2000/svg">
<path d="M1.5 11.6791C1.0875 11.6791 0.734375 11.5322 0.440625 11.2384C0.146875 10.9447 0 10.5916 0 10.1791V8.67905C0 8.46655 0.071875 8.28843 0.215625 8.14468C0.359375 8.00093 0.5375 7.92905 0.75 7.92905C0.9625 7.92905 1.14062 8.00093 1.28438 8.14468C1.42813 8.28843 1.5 8.46655 1.5 8.67905V10.1791H10.5V8.67905C10.5 8.46655 10.5719 8.28843 10.7156 8.14468C10.8594 8.00093 11.0375 7.92905 11.25 7.92905C11.4625 7.92905 11.6406 8.00093 11.7844 8.14468C11.9281 8.28843 12 8.46655 12 8.67905V10.1791C12 10.5916 11.8531 10.9447 11.5594 11.2384C11.2656 11.5322 10.9125 11.6791 10.5 11.6791H1.5ZM5.25 2.56655L3.84375 3.9728C3.69375 4.1228 3.51563 4.19468 3.30938 4.18843C3.10313 4.18218 2.925 4.10405 2.775 3.95405C2.6375 3.80405 2.56563 3.62905 2.55938 3.42905C2.55313 3.22905 2.625 3.05405 2.775 2.90405L5.475 0.204053C5.55 0.129053 5.63125 0.0759277 5.71875 0.0446777C5.80625 0.0134277 5.9 -0.00219727 6 -0.00219727C6.1 -0.00219727 6.19375 0.0134277 6.28125 0.0446777C6.36875 0.0759277 6.45 0.129053 6.525 0.204053L9.225 2.90405C9.375 3.05405 9.44688 3.22905 9.44063 3.42905C9.43438 3.62905 9.3625 3.80405 9.225 3.95405C9.075 4.10405 8.89688 4.18218 8.69063 4.18843C8.48438 4.19468 8.30625 4.1228 8.15625 3.9728L6.75 2.56655V7.92905C6.75 8.14155 6.67813 8.31968 6.53438 8.46343C6.39063 8.60718 6.2125 8.67905 6 8.67905C5.7875 8.67905 5.60938 8.60718 5.46563 8.46343C5.32188 8.31968 5.25 8.14155 5.25 7.92905V2.56655Z" fill="#333333"/>
</svg>
