<svg width="77" height="79" viewBox="0 0 77 79" fill="none" xmlns="http://www.w3.org/2000/svg">
<path d="M40.2612 20.4539C38.8506 18.3575 34.8869 18.5577 31.4047 20.8965C27.9226 23.2354 26.2432 26.8318 27.6513 28.9311L28.981 31.0155C30.3915 33.1118 34.4203 32.9004 37.8994 30.559C41.3816 28.2201 43.1096 24.6138 41.7015 22.5145L40.2934 20.506C40.2835 20.4876 40.2735 20.4693 40.2582 20.4514L40.2612 20.4539Z" fill="url(#paint0_linear_567_8470)"/>
<mask id="mask0_567_8470" style="mask-type:luminance" maskUnits="userSpaceOnUse" x="27" y="20" width="16" height="13">
<path d="M41.7045 22.5174C43.1151 24.6137 41.3841 28.2175 37.9024 30.5619C34.4203 32.9007 30.3886 33.1097 28.981 31.0159L27.5814 28.8277L40.1888 20.3534L41.7045 22.5174Z" fill="white"/>
</mask>
<g mask="url(#mask0_567_8470)">
<path d="M31.6425 34.3477L31.4737 34.4592L28.0073 29.3037L28.1761 29.1922L31.6425 34.3477ZM28.4328 29.0178L28.264 29.1293L31.7334 34.2872L31.9022 34.1757L28.4358 29.0202L28.4328 29.0178ZM28.7441 28.8081L28.5753 28.9196L32.0417 34.0751L32.2105 33.9636L28.7441 28.8081ZM29.0971 28.5727L28.9283 28.6842L32.3947 33.8397L32.5636 33.7282L29.0971 28.5727ZM29.476 28.3184L29.3072 28.4299L32.7736 33.5854L32.9424 33.4739L29.476 28.3184ZM29.904 28.0295L29.7352 28.141L33.2016 33.2965L33.3704 33.1849L29.904 28.0295ZM30.3916 27.6994L30.2228 27.8109L33.6892 32.9664L33.858 32.8549L30.3916 27.6994ZM30.9338 27.3341L30.765 27.4456L34.2314 32.6011L34.4002 32.4896L30.9338 27.3341ZM31.5202 26.9401L31.3514 27.0516L34.8178 32.2071L34.9866 32.0955L31.5202 26.9401ZM32.2079 26.4791L32.0391 26.5907L35.5055 31.7461L35.6743 31.6346L32.2079 26.4791ZM32.981 25.9582L32.8122 26.0698L36.2786 31.2252L36.4474 31.1137L32.981 25.9582ZM33.8241 25.3897L33.6553 25.5013L37.1217 30.6567L37.2905 30.5452L33.8241 25.3897ZM40.4299 20.9479L40.2611 21.0594L43.7276 26.2149L43.8964 26.1034L40.4299 20.9479ZM40.1732 21.1224L40.0044 21.2339L43.4708 26.3894L43.6397 26.2779L40.1732 21.1224ZM39.8619 21.332L39.6931 21.4435L43.1595 26.599L43.3283 26.4875L39.8619 21.332ZM39.5089 21.5675L39.3401 21.679L42.8065 26.8344L42.9753 26.7229L39.5089 21.5675ZM39.13 21.8217L38.9612 21.9332L42.4276 27.0887L42.5965 26.9772L39.13 21.8217ZM38.702 22.1107L38.5332 22.2222L41.9996 27.3776L42.1684 27.2661L38.702 22.1107ZM38.2144 22.4408L38.0456 22.5523L41.512 27.7077L41.6808 27.5962L38.2144 22.4408ZM37.6722 22.806L37.5034 22.9175L40.9698 28.073L41.1386 27.9615L37.6722 22.806ZM37.0858 23.2001L36.917 23.3116L40.3834 28.467L40.5522 28.3555L37.0858 23.2001ZM36.3981 23.661L36.2293 23.7725L39.6957 28.928L39.8645 28.8165L36.3981 23.661ZM35.625 24.1819L35.4562 24.2934L38.9226 29.4489L39.0914 29.3374L35.625 24.1819ZM34.7819 24.7504L34.6131 24.8619L38.0795 30.0174L38.2483 29.9059L34.7819 24.7504Z" fill="url(#paint1_linear_567_8470)"/>
<path d="M31.6991 34.3086L31.5303 34.4201L28.0639 29.2647L28.2327 29.1532L31.6991 34.3086ZM28.4894 28.9787L28.3206 29.0902L31.7875 34.2511L31.9563 34.1396L28.4899 28.9842L28.4894 28.9787ZM28.8007 28.769L28.6319 28.8806L32.0984 34.036L32.2672 33.9245L28.8007 28.769ZM29.1538 28.5336L28.985 28.6451L32.4514 33.8006L32.6202 33.6891L29.1538 28.5336ZM29.5326 28.2794L29.3638 28.3909L32.8302 33.5464L32.9991 33.4348L29.5326 28.2794ZM29.9606 27.9904L29.7918 28.1019L33.2582 33.2574L33.4271 33.1459L29.9606 27.9904ZM30.4482 27.6603L30.2794 27.7718L33.7458 32.9273L33.9147 32.8158L30.4482 27.6603ZM30.9904 27.295L30.8216 27.4066L34.2881 32.562L34.4569 32.4505L30.9904 27.295ZM31.5768 26.901L31.408 27.0125L34.8745 32.168L35.0433 32.0565L31.5768 26.901ZM32.2645 26.4401L32.0957 26.5516L35.5621 31.7071L35.731 31.5956L32.2645 26.4401ZM33.0376 25.9192L32.8688 26.0307L36.3352 31.1862L36.5041 31.0746L33.0376 25.9192ZM33.8807 25.3507L33.7119 25.4622L37.1784 30.6177L37.3472 30.5062L33.8807 25.3507ZM40.4866 20.9089L40.3178 21.0204L43.7842 26.1758L43.953 26.0643L40.4866 20.9089ZM40.2299 21.0833L40.0611 21.1948L43.5275 26.3503L43.6963 26.2388L40.2299 21.0833ZM39.9185 21.293L39.7497 21.4045L43.2162 26.56L43.385 26.4484L39.9185 21.293ZM39.5655 21.5284L39.3967 21.6399L42.8631 26.7954L43.0319 26.6839L39.5655 21.5284ZM39.1867 21.7826L39.0178 21.8942L42.4843 27.0496L42.6531 26.9381L39.1867 21.7826ZM38.7587 22.0716L38.5898 22.1831L42.0563 27.3386L42.2251 27.2271L38.7587 22.0716ZM38.2711 22.4017L38.1022 22.5132L41.5687 27.6687L41.7375 27.5572L38.2711 22.4017ZM37.7288 22.767L37.56 22.8785L41.0265 28.034L41.1953 27.9224L37.7288 22.767ZM37.1424 23.161L36.9736 23.2725L40.4401 28.428L40.6089 28.3165L37.1424 23.161ZM36.4548 23.6219L36.2859 23.7334L39.7524 28.8889L39.9212 28.7774L36.4548 23.6219ZM35.6817 24.1428L35.5128 24.2544L38.9793 29.4098L39.1481 29.2983L35.6817 24.1428ZM34.8385 24.7113L34.6697 24.8228L38.1362 29.9783L38.305 29.8668L34.8385 24.7113Z" fill="url(#paint2_linear_567_8470)"/>
</g>
<path d="M40.261 20.4536C41.6716 22.5499 39.9922 26.1463 36.5076 28.4881C33.0254 30.827 29.0617 31.0272 27.6511 28.9308C26.2406 26.8344 27.9229 23.2405 31.4046 20.8962C34.8867 18.5573 38.8504 18.3572 40.261 20.4536Z" fill="url(#paint3_linear_567_8470)"/>
<path d="M40.0323 20.5355C41.3918 22.5539 39.7537 26.0283 36.3833 28.2938C33.0104 30.5623 29.1762 30.7645 27.8191 28.7431C26.4596 26.7248 28.0977 23.2504 31.4681 20.9849C34.8411 18.7164 38.6753 18.5142 40.0323 20.5355Z" fill="url(#paint4_linear_567_8470)"/>
<path d="M40.2612 20.4539C38.8506 18.3575 34.8869 18.5577 31.4047 20.8965C27.9226 23.2354 26.2432 26.8318 27.6513 28.9311L28.981 31.0155C30.3915 33.1118 34.4203 32.9004 37.8994 30.559C41.3816 28.2201 43.1096 24.6138 41.7015 22.5145L40.2934 20.506C40.2835 20.4876 40.2735 20.4693 40.2582 20.4514L40.2612 20.4539Z" fill="url(#paint5_linear_567_8470)"/>
<path d="M35.7321 27.3312C33.0052 29.1645 30.3269 29.2159 29.3292 27.7317C28.3315 26.2476 29.5842 23.6583 32.1165 21.9553C34.6488 20.2523 37.5217 20.0706 38.5194 21.5547C39.5142 23.0364 38.459 25.4979 35.7321 27.3312Z" fill="#FFF399"/>
<path d="M35.669 27.2379C33.1367 28.9409 30.2791 29.1404 29.2978 27.6851C28.3189 26.2268 29.5845 23.6583 32.1168 21.9553C34.6491 20.2523 37.5067 20.0528 38.488 21.5081C39.4669 22.9664 38.2013 25.5349 35.669 27.2379Z" fill="url(#paint6_linear_567_8470)"/>
<path d="M32.2655 22.1763C34.7045 20.5368 37.5144 20.3883 38.5852 21.6759C38.5554 21.6208 38.5227 21.5632 38.4875 21.5086C37.5087 20.0503 34.6486 20.2529 32.1163 21.9559C29.584 23.6588 28.3184 26.2273 29.2973 27.6857C29.3325 27.7403 29.3726 27.7889 29.4128 27.8376C28.6275 26.3591 29.8236 23.8134 32.2625 22.1738L32.2655 22.1763Z" fill="url(#paint7_linear_567_8470)"/>
<path d="M35.669 27.2379C33.1367 28.9409 30.2791 29.1404 29.2978 27.6851C28.3189 26.2268 29.5845 23.6583 32.1168 21.9553C34.6491 20.2523 37.5067 20.0528 38.488 21.5081C39.4669 22.9664 38.2013 25.5349 35.669 27.2379Z" fill="url(#paint8_linear_567_8470)"/>
<defs>
<linearGradient id="paint0_linear_567_8470" x1="28.2403" y1="29.9038" x2="40.9368" y2="21.3701" gradientUnits="userSpaceOnUse">
<stop stop-color="#E8A928"/>
<stop offset="0.4" stop-color="#C8690F"/>
<stop offset="0.6" stop-color="#C8690F"/>
<stop offset="0.96" stop-color="#F8C935"/>
</linearGradient>
<linearGradient id="paint1_linear_567_8470" x1="29.6922" y1="31.7994" x2="42.1185" y2="23.4473" gradientUnits="userSpaceOnUse">
<stop offset="0.03" stop-color="#E8B328"/>
<stop offset="0.4" stop-color="#E1800F"/>
<stop offset="0.6" stop-color="#E1800F"/>
<stop offset="0.92" stop-color="#F8D335"/>
</linearGradient>
<linearGradient id="paint2_linear_567_8470" x1="29.7465" y1="31.7618" x2="42.1728" y2="23.4097" gradientUnits="userSpaceOnUse">
<stop stop-color="#D8891B"/>
<stop offset="0.4" stop-color="#B75D0F"/>
<stop offset="0.6" stop-color="#B75D0F"/>
<stop offset="1" stop-color="#E4AF2C"/>
</linearGradient>
<linearGradient id="paint3_linear_567_8470" x1="31.3278" y1="20.7682" x2="36.4627" y2="28.4079" gradientUnits="userSpaceOnUse">
<stop stop-color="#F8E765"/>
<stop offset="1" stop-color="#F2B52D" stop-opacity="0.8"/>
</linearGradient>
<linearGradient id="paint4_linear_567_8470" x1="31.3881" y1="20.8578" x2="36.3336" y2="28.2156" gradientUnits="userSpaceOnUse">
<stop stop-color="#FFFF82"/>
<stop offset="1" stop-color="#FFD83B"/>
</linearGradient>
<linearGradient id="paint5_linear_567_8470" x1="35.3342" y1="32.3569" x2="31.0929" y2="20.581" gradientUnits="userSpaceOnUse">
<stop offset="0.22" stop-color="#FFF37D" stop-opacity="0"/>
<stop offset="0.67" stop-color="white" stop-opacity="0.7"/>
<stop offset="1" stop-color="#FFF37D" stop-opacity="0"/>
</linearGradient>
<linearGradient id="paint6_linear_567_8470" x1="32.0459" y1="21.8363" x2="35.6189" y2="27.1521" gradientUnits="userSpaceOnUse">
<stop stop-color="#F8E253"/>
<stop offset="1" stop-color="#F7C332"/>
</linearGradient>
<linearGradient id="paint7_linear_567_8470" x1="33.9401" y1="24.6557" x2="32.0454" y2="21.8369" gradientUnits="userSpaceOnUse">
<stop stop-color="#F8C935"/>
<stop offset="1" stop-color="#C8690F"/>
</linearGradient>
<linearGradient id="paint8_linear_567_8470" x1="34.2007" y1="27.9603" x2="31.9063" y2="21.5902" gradientUnits="userSpaceOnUse">
<stop offset="0.22" stop-color="#FFF37D" stop-opacity="0"/>
<stop offset="0.29" stop-color="#FFF381" stop-opacity="0.02"/>
<stop offset="0.37" stop-color="#FFF48D" stop-opacity="0.06"/>
<stop offset="0.44" stop-color="#FFF6A1" stop-opacity="0.14"/>
<stop offset="0.52" stop-color="#FFF9BE" stop-opacity="0.25"/>
<stop offset="0.6" stop-color="#FFFCE2" stop-opacity="0.39"/>
<stop offset="0.64" stop-color="white" stop-opacity="0.5"/>
<stop offset="0.67" stop-color="#FFFDEE" stop-opacity="0.44"/>
<stop offset="0.76" stop-color="#FFF9BE" stop-opacity="0.25"/>
<stop offset="0.85" stop-color="#FFF59A" stop-opacity="0.11"/>
<stop offset="0.91" stop-color="#FFF384" stop-opacity="0.03"/>
<stop offset="0.96" stop-color="#FFF37D" stop-opacity="0"/>
</linearGradient>
</defs>
</svg>
