<svg fill="none" xmlns="http://www.w3.org/2000/svg" viewBox="0 0 141 140"><rect x="140.3" width="140" height="140" rx="70" transform="rotate(90 140.3 0)" fill="url(#a)"/><mask id="b" style="mask-type:alpha" maskUnits="userSpaceOnUse" x="0" y="0" width="141" height="140"><rect x="140.3" width="140" height="140" rx="70" transform="rotate(90 140.3 0)" fill="#3D8EFF"/></mask><g mask="url(#b)"><g filter="url(#c)" fill="#003A8A"><path d="m123.3 117.5-1.8 10.6-2.8.3-.3.2-2.2 2.3.5 1h10l.6-.3 6.8-12.1V109.4l-10.8 8.1Z"/><path d="m194.7 107.9-2-16.9-3-5.9-.8-2.9-.2-.3-22.5-16.3h-.3l-34.2-.1-8.8-2.5h-.2l-5.6.6-18.1 9-3.3.3-2.7-3.5-.5-.3-5.6-1.1-.6.7 1.5 5-6 9.6v.6l1 2-8.9 6.1v.9l4.8 4.7.5.2 9.4-2 2 1h.3l20-4 5 12-11.4 11.8-.1.5.8 5v3.6l.2.4 3.5 3.1 1-.2 3.3-9.2 8.5-2.5 12.5-9.3V100l.8 3 .3.5 20 6.4.6-.3 1.2-2.3-1.6 17.5-8.4 3.1-.3.3-1.4 2.7.5.9h18.5l.4-.3 15.6-23.3-.7 2.7.1.6 13.4 13.3-.2 3.3-4 .2-.5.3-1.7 2.7.5.8h10l.5-.2 5.8-8.5v-.6l-9-15Z"/></g><g filter="url(#d)"><path d="m73.3 83.8-16.4 1.4S46.1 69.4 39.1 65.4c-1.7-1-7.4-4.2-15.4-5.2-5-.7-7.5-1-10.3-.2C4 63 7.2 75.5-4 85.5c-7.3 6.6-11.9 4-21.3 13.2-3.3 3.3-5.9 5.2-9.9 8.7a52.8 52.8 0 0 1-14.6 10.2l-6.7 1c-1.2 0-1.2 1.7-.2 1.9l6.1 1.3 15.3-10.7 5.5 5.6-10 14.3c.8 3 1.7 5.6 2.7 8.6-.5 2.8-1 5.3-1.3 8.2h8.8c-.8-1.5-1.6-3.6-2.4-5.6l.3-9.5 10.2-2.6 9.7-10.2 37.1-6 .8 4.3-7.6 1.8.1 7.2 18-7.6-2-16.9 6.4-3.9-1.2 6.7 6.5 2.8c1 .4 2 0 2.4-.9a8 8 0 0 1 6.5-4.4l.1-.1 1.4-7 11.7 1.4c.8 0 1-1 .4-1.3l-10.2-4.8 15-6c.7-.4.5-1.5-.3-1.4Z" fill="#820047"/></g><g filter="url(#e)"><path d="M53 46C50.5 44 69-6 69-6l2.5-1s-2.5 30 0 31 17-7 18-5.5S68 74 68 74v-.5s3.5-34 2.5-35S55.5 48 53 46Z" fill="url(#f)"/></g><path d="M53 46C50.5 44 69-6 69-6l2.5-1s-2.5 30 0 31 17-7 18-5.5S68 74 68 74v-.5s3.5-34 2.5-35S55.5 48 53 46Z" stroke="#F49134"/></g><defs><filter id="c" x="73.8" y="63" width="129.8" height="71.2" filterUnits="userSpaceOnUse" color-interpolation-filters="sRGB"><feFlood flood-opacity="0" result="BackgroundImageFix"/><feBlend in="SourceGraphic" in2="BackgroundImageFix" result="shape"/><feColorMatrix in="SourceAlpha" values="0 0 0 0 0 0 0 0 0 0 0 0 0 0 0 0 0 0 127 0" result="hardAlpha"/><feOffset dy="2"/><feGaussianBlur stdDeviation="2"/><feComposite in2="hardAlpha" operator="arithmetic" k2="-1" k3="1"/><feColorMatrix values="0 0 0 0 0 0 0 0 0 0 0 0 0 0 0 0 0 0 0.25 0"/><feBlend in2="shape" result="effect1_innerShadow_2652_39"/></filter><filter id="d" x="-57.4" y="59.5" width="131.4" height="90.3" filterUnits="userSpaceOnUse" color-interpolation-filters="sRGB"><feFlood flood-opacity="0" result="BackgroundImageFix"/><feBlend in="SourceGraphic" in2="BackgroundImageFix" result="shape"/><feColorMatrix in="SourceAlpha" values="0 0 0 0 0 0 0 0 0 0 0 0 0 0 0 0 0 0 127 0" result="hardAlpha"/><feOffset dy="2"/><feGaussianBlur stdDeviation="2"/><feComposite in2="hardAlpha" operator="arithmetic" k2="-1" k3="1"/><feColorMatrix values="0 0 0 0 0 0 0 0 0 0 0 0 0 0 0 0 0 0 0.25 0"/><feBlend in2="shape" result="effect1_innerShadow_2652_39"/></filter><filter id="e" x="52.3" y="-7.8" width="38.8" height="84" filterUnits="userSpaceOnUse" color-interpolation-filters="sRGB"><feFlood flood-opacity="0" result="BackgroundImageFix"/><feBlend in="SourceGraphic" in2="BackgroundImageFix" result="shape"/><feColorMatrix in="SourceAlpha" values="0 0 0 0 0 0 0 0 0 0 0 0 0 0 0 0 0 0 127 0" result="hardAlpha"/><feOffset dx="1" dy="2"/><feGaussianBlur stdDeviation="2"/><feComposite in2="hardAlpha" operator="arithmetic" k2="-1" k3="1"/><feColorMatrix values="0 0 0 0 0.771094 0 0 0 0 0.373498 0 0 0 0 0 0 0 0 1 0"/><feBlend in2="shape" result="effect1_innerShadow_2652_39"/></filter><radialGradient id="f" cx="0" cy="0" r="1" gradientUnits="userSpaceOnUse" gradientTransform="matrix(0 40.25 -18.3835 0 71.2 33.3)"><stop stop-color="#FFC400"/><stop offset="1" stop-color="#FFEA00"/></radialGradient><linearGradient id="a" x1="210.3" y1="0" x2="210.3" y2="140" gradientUnits="userSpaceOnUse"><stop stop-color="#3D8EFF"/><stop offset="1" stop-color="#E2017B"/></linearGradient></defs></svg>