<svg xmlns="http://www.w3.org/2000/svg" version="1.1" xmlns:xlink="http://www.w3.org/1999/xlink" xmlns:svgjs="http://svgjs.dev/svgjs" width="1280" height="1280"><svg width="1280" height="1280" viewBox="0 0 1280 1280" fill="none" xmlns="http://www.w3.org/2000/svg">
<path d="M619.375 0H660.625L685 1.25L712.5 3.75L736.25 6.875L761.875 11.25L788.125 16.875L812.5 23.125L835 30L857.5 37.5L881.875 46.875L900.625 55L918.125 63.125L940.625 74.375L955 82.5L968.125 90L981.25 98.125L993.75 106.25L1007.5 115.625L1018.75 123.75L1031.88 133.75L1040.62 140.625L1047.5 146.25L1055.62 153.125L1064.38 160.625L1072.5 168.125L1078.75 173.75L1085 180L1090 184.375L1099.38 193.75L1103.75 198.75L1110.62 205.625L1115 210.625L1121.25 217.5L1126.88 224.375L1132.5 230.625L1139.38 239.375L1147.5 249.375L1156.25 261.25L1164.38 272.5L1172.5 284.375L1180.62 296.875L1188.75 310L1197.5 325L1207.5 343.125L1220 368.125L1228.12 386.25L1237.5 409.375L1244.38 428.125L1251.88 450.625L1259.38 476.875L1266.25 505.625L1271.88 535.625L1275.62 561.875L1278.12 586.875L1279.38 605L1280 619.375V660.625L1278.75 685L1276.25 712.5L1273.12 736.25L1268.75 761.875L1263.12 788.125L1256.88 812.5L1250 835L1242.5 857.5L1233.12 881.875L1225 900.625L1216.88 918.125L1205.62 940.625L1197.5 955L1190 968.125L1181.88 981.25L1173.75 993.75L1164.38 1007.5L1156.25 1018.75L1146.25 1031.88L1139.38 1040.62L1133.75 1047.5L1126.88 1055.62L1119.38 1064.38L1111.88 1072.5L1106.25 1078.75L1100 1085L1095.62 1090L1086.25 1099.38L1081.25 1103.75L1074.38 1110.62L1069.38 1115L1062.5 1121.25L1055.62 1126.88L1049.38 1132.5L1040.62 1139.38L1030.62 1147.5L1018.75 1156.25L1007.5 1164.38L995.625 1172.5L983.125 1180.62L970 1188.75L955 1197.5L936.875 1207.5L911.875 1220L893.75 1228.12L870.625 1237.5L851.875 1244.38L829.375 1251.88L803.125 1259.38L774.375 1266.25L748.125 1271.25L718.125 1275.62L693.125 1278.12L675 1279.38L660.625 1280H619.375L595 1278.75L567.5 1276.25L543.75 1273.12L518.125 1268.75L491.875 1263.12L467.5 1256.88L445 1250L422.5 1242.5L398.125 1233.12L379.375 1225L361.875 1216.88L339.375 1205.62L325 1197.5L311.875 1190L298.75 1181.88L286.25 1173.75L272.5 1164.38L261.25 1156.25L248.125 1146.25L239.375 1139.38L232.5 1133.75L224.375 1126.88L215.625 1119.38L207.5 1111.88L201.25 1106.25L195 1100L190 1095.62L180 1085.62L175.625 1080.62L169.375 1074.38L165 1069.38L158.75 1062.5L153.125 1055.62L147.5 1049.38L140.625 1040.62L132.5 1030.62L123.75 1018.75L115.625 1007.5L107.5 995.625L99.375 983.125L91.25 970L82.5 955L72.5 936.875L60 911.875L51.875 893.75L42.5 870.625L35.625 851.875L28.125 829.375L20.625 803.125L15 780L9.375 751.875L5 723.125L2.5 700.625L0.625 675L0 660.625V619.375L1.25 595L3.75 567.5L6.875 543.75L11.25 518.125L16.875 491.875L23.125 467.5L30 445L37.5 422.5L46.875 398.125L55 379.375L63.125 361.875L74.375 339.375L82.5 325L90 311.875L98.125 298.75L106.25 286.25L115.625 272.5L123.75 261.25L133.75 248.125L140.625 239.375L146.25 232.5L153.125 224.375L160.625 215.625L168.125 207.5L173.75 201.25L179.375 195.625L183.75 190.625L193.75 180.625L198.75 176.25L205.625 169.375L210.625 165L218.125 158.125L225 152.5L234.375 144.375L243.125 137.5L254.375 128.75L266.25 120L278.75 111.25L288.125 105L303.75 95L320.625 85L336.25 76.25L353.125 67.5L368.125 60L386.25 51.875L409.375 42.5L428.125 35.625L450.625 28.125L476.875 20.625L500 15L528.125 9.375L556.875 5L579.375 2.5L605 0.625L619.375 0Z" fill="#DE0C7A"></path>
<path d="M860.625 208.75L861.875 209.375L853.75 220.625L846.25 231.25L821.875 265L814.375 275.625L790 309.375L782.5 320L766.25 342.5L758.75 353.125L734.375 386.875L726.875 397.5L702.5 431.25L695 441.875L693.75 443.75L703.125 443.125L814.375 431.875L876.875 425.625L875.625 428.125L866.25 438.125L851.25 454.375L844.375 461.875L836.875 470L830 477.5L820.625 487.5L806.875 502.5L761.875 551.25L755 558.75L740 575L731.25 584.375L717.5 599.375L710 607.5L703.125 615L695.625 623.125L714.375 621.875L827.5 612.5L865.625 609.375H868.125V610.625L863.125 615L765.625 712.5L760.625 716.875L663.125 814.375L658.125 818.75L561.25 915.625L556.25 920L459.375 1016.88L454.375 1021.25L404.375 1071.25V1069.38L414.375 1051.88L423.75 1036.25L432.5 1021.25L443.125 1003.12L451.25 989.375L461.875 971.25L470 957.5L480.625 939.375L490 923.75L499.375 907.5L508.75 891.875L518.125 875.625L523.75 866.25L534.375 848.125L542.5 834.375L553.125 816.25L561.25 802.5L571.875 784.375L581.875 767.5L592.5 749.375L600.625 735.625L609.375 720.625L603.75 721.875L428.75 747.5L430 745L437.5 738.125L448.125 727.5L453.125 723.125L464.375 711.875L469.375 707.5L480.625 696.25L485.625 691.875L496.25 681.25L501.25 676.875L511.875 666.25L516.875 661.875L527.5 651.25L532.5 646.875L543.75 635.625L548.75 631.25L561.25 618.75L566.25 614.375L576.875 603.75L581.875 599.375L592.5 588.75L597.5 584.375L608.125 573.75L613.125 569.375L623.75 558.75L628.75 554.375L639.375 543.75L616.25 545.625L485.625 557.5L416.25 563.75H413.125L416.25 560.625L426.25 552.5L443.75 538.75L453.125 531.25L470.625 517.5L480 510L497.5 496.25L507.5 488.125L515.625 481.875L525 474.375L542.5 460.625L552.5 452.5L560.625 446.25L569.375 439.375L579.375 431.25L587.5 425L596.875 417.5L614.375 403.75L623.75 396.25L641.25 382.5L651.25 374.375L659.375 368.125L668.75 360.625L686.25 346.875L696.25 338.75L704.375 332.5L713.125 325.625L723.125 317.5L731.25 311.25L740.625 303.75L758.125 290L768.125 281.875L776.25 275.625L785.625 268.125L803.125 254.375L812.5 246.875L830 233.125L839.375 225.625L848.125 218.75L857.5 211.25L860.625 208.75Z" fill="#F9EA0E"></path>
</svg><style>@media (prefers-color-scheme: light) { :root { filter: none; } }
@media (prefers-color-scheme: dark) { :root { filter: none; } }
</style></svg>